<?xml version="1.0" standalone="no"?>
<!DOCTYPE svg PUBLIC "-//W3C//DTD SVG 20010904//EN"
 "http://www.w3.org/TR/2001/REC-SVG-20010904/DTD/svg10.dtd">
<svg version="1.0" xmlns="http://www.w3.org/2000/svg"
 width="1600.000000pt" height="1600.000000pt" viewBox="0 0 1600.000000 1600.000000"
 preserveAspectRatio="xMidYMid meet">
<metadata>
Created by potrace 1.14, written by Peter Selinger 2001-2017
</metadata>
<g transform="translate(0.000000,1600.000000) scale(0.100000,-0.100000)"
fill="#000000" stroke="none">
<path d="M4 12178 c3 -35 9 -74 12 -88 3 -14 6 -32 8 -40 8 -55 44 -138 106
-245 32 -54 173 -194 235 -232 55 -34 146 -77 185 -88 14 -3 41 -11 60 -16 19
-5 62 -12 95 -15 33 -3 1942 -6 4243 -6 2300 -1 4182 -3 4182 -6 0 -2 -12 -27
-26 -56 -14 -28 -25 -52 -24 -54 1 -1 -10 -26 -23 -55 -57 -119 -98 -208 -142
-307 -26 -58 -63 -139 -83 -180 -20 -41 -36 -77 -37 -80 0 -3 -13 -31 -28 -64
-15 -32 -27 -62 -27 -67 0 -5 -5 -9 -11 -9 -5 0 -8 -4 -4 -9 3 -5 1 -12 -5
-16 -6 -4 -8 -11 -5 -16 4 -5 1 -9 -4 -9 -6 0 -11 -4 -11 -9 0 -9 -35 -88
-106 -238 -19 -40 -34 -75 -34 -78 0 -3 -13 -33 -30 -67 -16 -33 -30 -66 -30
-73 0 -7 -3 -15 -8 -17 -4 -1 -34 -64 -67 -138 -32 -74 -63 -141 -69 -149 -6
-7 -11 -18 -12 -25 -1 -6 -20 -49 -42 -96 -64 -136 -103 -222 -123 -267 -9
-22 -31 -70 -47 -105 -37 -77 -100 -216 -103 -226 -1 -4 -27 -59 -57 -122 -29
-63 -62 -134 -73 -157 -10 -24 -29 -64 -41 -90 -12 -27 -21 -51 -20 -55 1 -5
-2 -8 -8 -8 -5 0 -10 -6 -10 -13 0 -7 -13 -39 -29 -72 -61 -125 -106 -228
-111 -250 -1 -5 -7 -17 -14 -25 -7 -8 -16 -27 -20 -42 l-6 -27 1395 0 1396 0
23 52 c13 29 40 88 61 132 20 44 57 125 82 180 50 114 76 168 83 175 3 3 6 10
7 15 1 6 19 48 41 95 53 114 91 197 112 245 10 22 30 67 46 100 15 33 27 63
26 68 -1 4 2 7 8 7 6 0 9 3 8 8 -1 4 11 33 25 65 15 31 38 81 51 110 13 28 37
81 54 117 16 36 53 117 82 180 29 63 72 157 96 208 24 51 47 104 50 117 3 14
10 25 14 25 4 0 11 10 15 23 4 12 8 25 10 30 6 18 7 22 6 30 0 4 3 7 9 7 5 0
10 5 10 11 0 7 15 44 34 83 38 80 83 176 116 251 53 118 65 144 103 225 22 47
41 87 42 90 2 8 30 71 58 130 14 30 42 91 62 135 20 44 48 103 60 130 13 28
42 91 64 140 l40 90 1658 1 c912 1 1683 4 1714 7 64 6 167 34 188 51 8 6 15
10 15 8 2 -8 56 11 56 19 0 5 5 9 10 9 12 0 106 58 140 87 58 48 130 128 130
143 0 6 5 10 10 10 6 0 15 10 20 23 6 12 20 38 32 57 25 42 74 172 82 220 3
19 9 63 12 98 l6 62 -2124 -3 c-1168 -1 -2134 -6 -2148 -10 -142 -41 -231 -81
-311 -139 -55 -39 -119 -95 -119 -103 0 -3 -11 -17 -24 -30 -56 -55 -95 -126
-196 -350 -12 -27 -36 -79 -53 -115 -17 -36 -31 -67 -32 -70 -2 -5 -30 -67
-90 -195 -20 -44 -45 -98 -55 -120 -9 -22 -31 -69 -48 -105 -16 -36 -41 -90
-55 -120 -14 -30 -38 -84 -54 -120 -71 -153 -84 -183 -109 -237 -39 -86 -82
-181 -112 -243 -14 -30 -26 -57 -27 -60 0 -3 -17 -40 -38 -83 -20 -44 -37 -80
-37 -82 0 -2 -25 -56 -55 -120 -30 -65 -55 -119 -55 -121 0 -2 -15 -35 -34
-73 -19 -38 -31 -72 -28 -75 3 -3 0 -6 -6 -6 -7 0 -12 -4 -12 -10 0 -5 -18
-48 -40 -95 -22 -47 -40 -87 -40 -90 0 -2 -27 -61 -60 -130 -33 -69 -60 -128
-60 -130 0 -3 -69 -154 -101 -220 -10 -20 -18 -20 -484 -20 -261 0 -475 0
-475 1 0 0 12 25 26 55 40 82 126 269 129 279 1 5 24 54 75 165 86 182 103
221 105 230 2 6 30 68 64 138 34 71 61 130 61 132 0 3 18 42 39 87 21 46 50
108 64 138 52 115 81 177 114 250 20 41 46 100 60 130 13 30 35 78 48 105 13
28 37 79 53 115 66 146 77 169 120 260 24 52 45 101 45 108 0 6 4 12 9 12 4 0
8 4 8 9 0 10 70 166 94 211 40 74 60 165 60 270 -1 107 -5 144 -17 156 -4 4
-7 13 -7 20 0 26 -53 130 -88 174 -35 43 -110 120 -117 120 -2 0 -25 13 -52
30 -26 16 -75 40 -108 52 l-60 23 -4824 3 -4823 2 6 -62z"/>
<path d="M1033 10602 l-42 -3 4 -57 c5 -56 21 -142 32 -172 4 -8 7 -17 8 -20
41 -119 95 -207 181 -295 80 -81 101 -97 187 -144 97 -54 187 -83 292 -96 22
-2 264 -5 538 -5 273 0 497 -2 497 -5 0 -2 -20 -45 -44 -97 -60 -128 -104
-223 -133 -288 -49 -108 -66 -146 -109 -238 -24 -51 -44 -95 -44 -97 0 -2 -21
-47 -46 -102 -25 -54 -57 -123 -71 -153 -13 -30 -29 -63 -34 -72 -5 -10 -9
-25 -9 -33 0 -8 -4 -15 -8 -15 -6 0 -26 -38 -36 -70 -3 -7 -40 -88 -87 -188
-21 -45 -39 -84 -39 -86 0 -2 -17 -42 -39 -88 -21 -45 -62 -135 -91 -198 -29
-63 -65 -141 -81 -172 -15 -32 -25 -58 -22 -58 3 0 1 -6 -4 -12 -18 -25 -56
-145 -70 -221 -8 -46 -7 -255 1 -302 20 -115 112 -345 138 -345 6 0 8 -3 5 -6
-9 -10 46 -78 132 -165 125 -125 309 -220 484 -251 40 -7 308 -12 762 -13 582
-1 705 1 728 12 28 14 42 40 127 228 13 28 36 79 52 115 35 76 45 102 46 114
0 5 4 12 9 15 5 3 23 38 40 76 38 84 83 182 122 268 15 34 39 85 51 112 13 28
42 92 66 143 24 52 44 95 44 97 0 2 19 43 125 270 20 44 54 118 75 165 41 93
50 112 183 400 49 107 100 220 114 250 44 99 51 114 102 225 28 61 56 118 61
127 6 10 10 25 10 33 0 8 5 15 10 15 6 0 10 9 10 19 0 11 4 22 9 26 5 3 12 19
16 35 4 17 11 30 16 30 5 0 9 5 9 10 0 9 29 76 131 298 16 34 42 91 59 127
l30 65 490 0 c270 0 489 -3 487 -7 -2 -5 -11 -24 -20 -43 -15 -34 -51 -113
-122 -266 -19 -41 -35 -77 -35 -79 0 -1 -23 -52 -51 -111 -28 -60 -57 -122
-64 -139 -7 -16 -26 -57 -41 -90 -15 -33 -27 -63 -26 -67 1 -5 -3 -8 -8 -8 -5
0 -9 -3 -8 -7 1 -5 -10 -33 -24 -63 -14 -30 -35 -77 -48 -105 -13 -27 -43 -92
-67 -143 -23 -52 -43 -95 -43 -97 0 -3 -18 -41 -39 -85 -22 -44 -37 -80 -34
-80 3 0 -2 -9 -13 -21 -10 -12 -18 -24 -17 -28 1 -3 -6 -24 -16 -46 -10 -22
-50 -110 -89 -195 -64 -142 -104 -251 -117 -319 -18 -95 -24 -276 -11 -341 4
-19 7 -42 8 -50 0 -8 5 -33 11 -55 6 -22 11 -44 13 -50 15 -74 113 -285 135
-293 5 -2 9 -8 9 -14 0 -26 120 -157 230 -251 53 -45 227 -143 270 -151 3 -1
10 -4 15 -8 9 -5 52 -18 120 -35 11 -3 31 -7 45 -8 14 -2 25 -4 25 -5 0 -10
405 -12 2495 -14 1960 -2 2413 0 2450 11 54 16 119 58 153 99 30 36 138 260
129 268 -3 3 0 6 6 6 7 0 12 5 12 10 0 6 20 54 45 107 25 52 45 97 45 99 0 2
18 41 39 86 44 94 70 155 70 165 -1 3 3 9 8 12 5 3 20 33 33 66 13 33 30 67
37 76 7 8 13 20 13 26 0 5 6 23 14 39 19 39 79 168 81 174 1 3 10 23 20 45 10
22 18 43 17 48 -1 4 2 7 8 7 5 0 10 5 10 12 0 6 12 36 26 67 39 82 94 201 111
241 8 19 19 42 24 50 5 8 12 22 15 30 3 8 18 40 32 70 14 30 27 60 28 65 3 12
31 75 43 95 5 8 27 56 49 105 49 108 90 199 148 324 24 51 44 95 44 97 0 2 20
45 43 96 24 51 64 138 90 193 25 55 60 132 78 170 18 39 33 72 34 75 0 3 6 15
13 28 7 12 9 22 5 22 -4 0 -3 4 3 8 10 7 27 42 69 140 l19 42 505 1 c278 0
515 2 526 4 11 2 39 7 63 10 23 4 58 13 77 21 19 8 35 12 35 9 0 -3 17 4 37
15 21 11 42 20 47 20 33 0 223 155 276 225 48 64 116 185 104 185 -4 0 -2 6 3
13 11 13 35 80 39 112 2 11 6 36 9 55 15 84 13 120 -4 121 -104 4 -2115 -1
-2141 -6 -53 -9 -116 -43 -156 -83 -36 -36 -75 -111 -181 -347 -25 -55 -63
-138 -84 -183 -21 -46 -39 -85 -39 -87 0 -5 -108 -236 -120 -257 -6 -10 -10
-24 -10 -32 0 -7 -7 -19 -15 -26 -8 -7 -15 -18 -15 -26 0 -7 -29 -74 -65 -149
-36 -76 -65 -139 -65 -140 0 -2 -17 -39 -37 -82 -20 -43 -37 -80 -38 -83 0 -3
-16 -36 -35 -75 -18 -38 -34 -72 -35 -75 -4 -13 -27 -65 -58 -131 -19 -41 -42
-92 -52 -114 -10 -22 -35 -76 -55 -120 -21 -44 -59 -127 -85 -185 -26 -58 -65
-143 -87 -190 -21 -46 -40 -89 -41 -95 -1 -5 -4 -12 -7 -15 -5 -5 -42 -84
-108 -230 -16 -36 -41 -90 -54 -120 -14 -30 -36 -77 -48 -105 -12 -27 -45 -97
-72 -155 -28 -58 -51 -111 -52 -119 -2 -8 -11 -21 -22 -30 -18 -15 -215 -16
-2160 -15 -1176 1 -2156 4 -2177 8 -117 19 -207 127 -209 249 -1 66 6 87 92
272 23 50 57 123 76 163 19 41 34 76 34 78 0 2 18 41 41 87 22 45 39 82 38 82
-1 0 8 20 21 45 13 25 23 46 22 47 -1 3 49 112 119 261 21 46 39 85 39 87 0 2
19 43 41 92 23 48 50 106 59 128 10 22 41 89 69 149 28 59 51 110 51 112 0 1
18 42 41 91 44 94 120 260 164 358 15 33 47 102 71 153 24 52 44 95 44 97 0 2
20 45 44 97 24 51 53 116 66 143 26 59 62 138 117 255 22 47 51 110 64 140 12
30 25 57 28 60 4 3 7 10 8 15 2 16 -2812 11 -2831 -4 -9 -7 -18 -23 -22 -34
-3 -12 -21 -53 -39 -92 -18 -38 -42 -90 -53 -115 -11 -25 -30 -67 -43 -95 -13
-27 -24 -52 -24 -55 -1 -3 -19 -41 -40 -85 -21 -44 -39 -86 -41 -94 -1 -8 -6
-17 -11 -20 -4 -3 -10 -15 -11 -26 -2 -11 -10 -27 -18 -36 -8 -8 -14 -23 -14
-32 0 -9 -5 -19 -10 -22 -6 -4 -8 -11 -5 -16 4 -5 1 -9 -4 -9 -6 0 -11 -4 -11
-9 0 -9 -23 -61 -95 -216 -35 -76 -65 -142 -100 -220 -13 -27 -38 -81 -56
-120 -18 -38 -34 -72 -34 -75 -2 -7 -33 -75 -80 -175 -49 -107 -59 -129 -57
-137 1 -5 -3 -8 -8 -8 -6 0 -10 -5 -10 -10 0 -6 -18 -49 -40 -96 -22 -47 -40
-87 -40 -89 0 -2 -23 -52 -51 -112 -28 -59 -60 -128 -71 -153 -11 -25 -29 -65
-41 -90 -12 -25 -22 -47 -22 -50 -1 -3 -11 -25 -24 -50 -13 -25 -23 -46 -23
-47 1 -2 -21 -51 -48 -109 -28 -58 -50 -108 -50 -111 0 -6 -59 -131 -71 -153
-5 -8 -12 -22 -16 -30 -3 -8 -21 -49 -40 -90 -19 -41 -36 -79 -37 -85 -2 -5
-22 -50 -45 -100 -24 -49 -53 -113 -66 -141 -14 -28 -32 -53 -42 -55 -10 -3
-171 -4 -358 -3 -319 1 -342 2 -375 21 -53 30 -94 94 -96 151 -2 49 0 57 67
200 22 46 39 88 39 94 0 6 6 19 13 27 8 9 20 32 27 51 7 19 28 66 47 104 18
37 33 74 33 81 0 7 7 18 15 25 8 7 12 16 9 21 -3 5 -1 9 4 9 5 0 9 6 9 13 0 6
18 50 41 97 84 177 120 260 114 260 -4 0 -2 4 3 8 10 7 26 38 58 112 9 19 36
79 61 133 25 53 46 99 46 101 0 2 17 39 37 82 20 43 36 82 35 87 -1 4 2 7 8 7
5 0 10 5 10 11 0 10 8 27 80 184 45 97 73 159 75 165 2 6 36 79 92 200 22 47
57 123 78 170 40 90 71 157 128 280 19 41 45 98 57 125 12 28 37 82 55 120 55
119 65 143 65 153 0 6 3 12 8 14 4 2 24 40 44 86 36 80 36 82 15 83 -82 2
-2931 3 -2964 1z"/>
<path d="M6737 5674 c-1 -1 -40 -4 -87 -7 -126 -9 -303 -46 -361 -78 -13 -7
-24 -11 -24 -8 0 10 -198 -97 -250 -136 -73 -55 -180 -159 -203 -197 -9 -15
-19 -28 -23 -28 -7 0 -99 -151 -99 -162 0 -3 -8 -23 -17 -44 -9 -22 -18 -42
-19 -46 -1 -5 -2 -9 -4 -10 -1 -2 -3 -10 -6 -18 -2 -8 -13 -51 -25 -95 -17
-64 -22 -115 -25 -255 -2 -113 1 -179 8 -187 6 -7 8 -13 5 -13 -3 0 -1 -15 4
-32 6 -18 12 -44 15 -57 9 -46 68 -151 120 -217 105 -131 269 -231 454 -275
79 -19 123 -23 260 -24 148 0 312 9 329 19 3 2 29 6 56 10 28 3 61 8 75 11 14
3 36 7 50 10 14 3 36 7 50 10 14 3 41 8 60 12 46 9 49 10 55 13 3 1 10 3 15 4
25 3 30 42 30 234 0 187 -1 203 -20 222 -10 10 -27 18 -37 16 -10 -2 -39 -6
-64 -10 -25 -4 -57 -9 -70 -11 -40 -6 -122 -17 -154 -20 -16 -2 -52 -6 -80 -9
-280 -35 -462 34 -543 204 -21 44 -27 72 -28 142 -1 47 3 108 8 135 41 197
218 357 431 389 51 8 277 11 277 4 0 -3 21 -6 48 -6 26 -1 61 -4 77 -7 136
-25 189 -26 235 -6 74 33 91 59 154 239 61 171 61 175 34 194 -11 8 -25 13
-29 10 -5 -3 -17 -1 -26 4 -10 6 -36 13 -58 16 -22 4 -49 9 -60 11 -56 10
-202 33 -215 34 -8 0 -40 3 -70 6 -58 6 -249 13 -253 9z"/>
<path d="M2777 5653 c-1 -1 -81 -3 -178 -6 -221 -6 -268 -23 -327 -119 -17
-28 -57 -197 -68 -293 -2 -16 -10 -64 -18 -105 -8 -41 -17 -92 -20 -114 -4
-21 -8 -41 -10 -45 -2 -3 -7 -28 -10 -56 -3 -27 -8 -61 -10 -75 -8 -38 -84
-471 -90 -505 -2 -16 -5 -30 -6 -30 -1 0 -3 -13 -5 -30 -2 -16 -10 -67 -19
-111 -8 -45 -18 -103 -22 -130 -3 -27 -8 -52 -10 -55 -1 -3 -6 -28 -10 -55 -3
-27 -10 -59 -15 -71 -5 -14 -4 -25 3 -29 8 -5 342 -9 358 -4 3 1 15 3 28 6 84
15 167 108 183 203 11 65 19 104 24 121 3 8 7 33 10 55 12 88 -2 80 132 83
l120 3 18 -43 c10 -24 24 -56 31 -73 7 -16 22 -54 34 -84 12 -30 32 -78 45
-105 13 -28 33 -77 45 -108 14 -38 27 -58 38 -59 23 -1 492 -1 518 0 29 1 53
22 59 49 2 14 -14 62 -44 125 -27 56 -70 147 -96 202 -26 55 -62 131 -80 170
l-32 69 46 29 c74 47 194 176 240 258 23 41 53 112 68 159 23 73 27 103 27
210 0 132 -4 164 -31 233 -68 174 -239 288 -483 323 -45 6 -438 13 -443 7z
m246 -456 c74 -15 119 -43 143 -88 40 -79 14 -220 -53 -283 -51 -49 -103 -84
-103 -70 0 3 -6 2 -12 -4 -20 -15 -83 -23 -198 -23 -166 -1 -149 -9 -133 64 7
34 11 68 8 75 -2 6 -1 12 4 12 4 0 8 6 8 13 0 25 44 273 52 292 8 19 16 21
132 19 68 -1 136 -4 152 -7z"/>
<path d="M546 5631 c-5 -8 -29 -132 -41 -211 -2 -14 -6 -38 -10 -55 -14 -71
-16 -81 -19 -103 -2 -13 6 -37 18 -55 l22 -32 252 -3 252 -2 -4 -23 c-13 -60
-29 -145 -31 -167 -3 -24 -12 -81 -21 -124 -2 -11 -8 -46 -14 -76 -6 -30 -12
-64 -14 -75 -2 -11 -7 -42 -10 -69 -4 -27 -9 -52 -11 -56 -2 -3 -6 -26 -10
-50 -3 -25 -10 -67 -15 -95 -5 -27 -12 -66 -15 -85 -3 -19 -10 -57 -15 -85 -6
-27 -12 -63 -15 -80 -2 -16 -7 -42 -9 -56 -3 -14 -8 -41 -10 -60 -3 -19 -5
-34 -6 -34 -1 0 -3 -9 -5 -20 -12 -62 -15 -84 -20 -120 -4 -22 -8 -48 -11 -57
-6 -20 -6 -20 206 -20 99 0 134 3 185 16 71 17 163 119 181 197 9 41 12 56 19
104 5 28 9 52 10 55 1 3 5 28 10 55 9 60 9 59 29 165 8 47 18 99 21 115 2 17
7 40 9 51 2 12 7 39 11 60 11 72 16 99 20 114 2 8 7 35 10 60 4 24 9 48 12 53
3 5 6 25 8 45 3 30 23 145 40 232 2 8 4 18 4 23 1 4 127 7 281 7 154 0 280 3
281 8 0 4 2 16 5 27 2 11 6 34 8 50 13 85 17 111 23 125 3 8 6 29 8 45 2 17 6
49 9 73 7 51 -11 93 -51 119 -25 17 -80 18 -800 19 -426 0 -775 -2 -777 -5z"/>
<path d="M3934 5619 c-9 -10 -17 -35 -19 -56 -3 -37 -18 -121 -30 -173 -3 -14
-8 -41 -10 -60 -2 -19 -5 -44 -8 -55 -3 -11 -8 -40 -12 -65 -4 -25 -9 -54 -12
-65 -2 -11 -6 -36 -9 -55 -2 -19 -7 -46 -9 -60 -3 -14 -8 -40 -11 -59 -3 -18
-8 -43 -10 -55 -2 -11 -11 -61 -20 -111 -34 -196 -39 -239 -38 -355 0 -58 3
-121 6 -140 26 -163 105 -298 230 -393 74 -57 219 -114 312 -123 27 -3 53 -7
58 -10 9 -6 231 -6 273 0 17 2 48 7 70 10 22 3 65 13 95 21 30 9 62 17 71 20
29 6 193 89 209 105 3 3 31 25 63 49 60 46 147 138 190 202 84 124 162 324
183 467 3 20 7 43 10 50 2 8 7 37 10 65 4 29 8 56 11 60 2 4 6 22 9 40 2 18 6
43 9 57 10 48 18 105 19 128 0 12 3 22 6 22 3 0 6 8 6 18 1 27 13 102 18 111
3 4 6 26 7 49 2 23 6 42 9 42 6 0 10 46 11 131 1 34 -5 68 -15 88 -18 34 -86
104 -94 96 -3 -3 -12 1 -20 7 -18 16 -317 20 -349 5 -24 -11 -32 -26 -39 -72
-2 -16 -6 -41 -9 -55 -8 -38 -18 -103 -19 -122 0 -10 -4 -18 -9 -18 -4 0 -6
-4 -3 -8 2 -4 -1 -39 -9 -77 -7 -39 -15 -88 -19 -110 -3 -22 -8 -51 -11 -65
-3 -14 -7 -43 -10 -65 -3 -22 -7 -47 -10 -55 -5 -16 -15 -72 -20 -105 -2 -11
-8 -47 -14 -80 -6 -33 -13 -76 -16 -95 -18 -104 -46 -181 -96 -255 -30 -44
-93 -105 -109 -105 -5 0 -10 -4 -10 -8 0 -18 -125 -47 -195 -45 -109 2 -185
44 -227 127 -24 46 -34 190 -18 261 5 22 11 58 14 80 6 40 10 64 21 115 7 37
17 92 20 115 1 11 3 20 5 20 1 0 3 14 5 30 3 28 11 79 21 129 2 11 13 73 24
136 11 63 22 126 25 140 2 13 7 42 11 65 3 22 9 57 14 78 5 25 4 39 -4 45 -6
4 -125 7 -264 8 -229 0 -254 -1 -268 -17z"/>
<path d="M7564 5591 c-4 -25 -8 -55 -11 -66 -2 -11 -6 -31 -8 -45 -2 -14 -6
-34 -8 -45 -3 -11 -8 -40 -12 -65 -4 -25 -9 -54 -11 -65 -10 -54 -26 -139 -29
-163 -7 -44 -16 -94 -26 -142 -5 -25 -11 -61 -14 -80 -2 -19 -7 -46 -10 -60
-3 -14 -8 -38 -10 -55 -3 -16 -10 -55 -16 -85 -5 -30 -12 -73 -15 -95 -2 -22
-7 -47 -10 -55 -4 -8 -8 -28 -10 -45 -6 -47 -12 -90 -14 -90 -1 0 -9 -45 -15
-85 -1 -14 -4 -25 -5 -25 -1 0 -3 -15 -6 -34 -5 -38 -9 -64 -18 -101 -3 -14
-8 -38 -10 -55 -3 -16 -10 -57 -16 -90 -6 -33 -13 -76 -16 -95 -2 -19 -8 -48
-11 -65 -13 -61 -12 -65 21 -66 17 -1 104 -1 194 -1 143 0 167 3 205 21 78 38
129 103 142 184 3 15 7 39 10 55 3 15 8 41 10 57 3 17 7 41 10 55 2 14 7 39
10 55 3 17 7 41 10 55 3 14 8 40 11 58 l6 33 122 -3 121 -3 100 -200 c55 -110
103 -201 108 -203 4 -2 7 -9 7 -17 0 -28 53 -105 87 -126 34 -21 45 -22 275
-22 239 0 240 0 264 24 33 34 35 65 6 118 -13 25 -43 82 -67 126 -73 139 -248
467 -331 623 -19 34 -34 68 -34 75 1 6 31 44 68 83 37 39 85 91 107 115 39 43
249 273 270 295 5 6 46 51 90 100 44 48 95 103 113 121 19 18 31 33 27 33 -4
0 7 12 24 26 32 27 40 57 19 71 -7 4 -134 9 -283 9 -219 1 -276 -1 -300 -13
-30 -15 -62 -46 -164 -162 -31 -35 -74 -83 -96 -105 -22 -23 -53 -57 -69 -76
-16 -19 -54 -62 -85 -96 -57 -61 -202 -221 -232 -255 -9 -11 -25 -19 -36 -19
-21 0 -23 20 -9 67 3 10 8 38 11 63 4 25 10 63 15 85 5 22 12 60 15 85 4 25
15 90 25 145 10 55 24 133 30 174 18 111 31 106 -270 107 l-249 1 -7 -46z"/>
<path d="M10231 5623 c-13 -14 -14 -19 -25 -94 -7 -47 -12 -76 -21 -119 -3
-14 -8 -41 -11 -60 -3 -19 -7 -46 -10 -60 -2 -14 -7 -38 -9 -55 -3 -16 -7 -41
-10 -55 -3 -14 -8 -45 -11 -70 -3 -25 -8 -48 -10 -51 -2 -4 -6 -24 -9 -45 -3
-22 -8 -50 -11 -64 -5 -28 -10 -57 -18 -110 -3 -19 -8 -46 -11 -60 -3 -14 -8
-45 -11 -69 -2 -24 -7 -47 -9 -51 -15 -25 -23 -238 -12 -330 11 -90 62 -228
104 -282 23 -29 112 -118 141 -141 19 -14 121 -67 142 -72 3 -1 12 -5 20 -8
94 -39 316 -59 465 -43 102 12 263 54 320 84 17 9 33 16 36 17 16 1 169 107
204 143 106 104 155 171 213 287 40 81 86 205 96 260 3 17 8 41 11 55 8 40 65
361 71 403 8 50 12 72 15 72 1 0 3 9 4 20 9 66 15 107 26 160 6 33 13 92 15
130 2 58 -2 77 -22 115 -13 25 -24 40 -24 35 0 -5 -7 0 -15 11 -32 47 -79 58
-240 60 -82 1 -160 -3 -173 -7 -28 -11 -37 -35 -57 -151 -9 -51 -18 -104 -21
-118 -3 -14 -7 -44 -9 -67 -2 -24 -6 -46 -8 -50 -5 -8 -10 -35 -23 -120 -3
-21 -7 -45 -9 -53 -2 -8 -7 -30 -10 -47 -11 -69 -15 -94 -21 -125 -3 -18 -7
-42 -8 -53 -2 -11 -6 -29 -9 -40 -3 -11 -8 -40 -11 -65 -12 -92 -44 -210 -58
-210 -5 0 -7 -4 -4 -9 8 -12 -59 -109 -103 -148 -20 -18 -52 -40 -71 -48 -19
-9 -45 -21 -58 -27 -12 -6 -59 -12 -105 -12 -71 0 -91 4 -139 27 -64 32 -103
80 -123 155 -12 49 -13 140 -1 199 3 15 8 43 11 61 3 17 8 47 11 65 3 17 7 43
9 57 2 14 6 36 9 50 3 14 8 41 10 60 6 44 14 88 22 120 4 14 8 39 10 55 2 17
6 41 9 55 3 14 8 41 11 60 3 19 8 49 11 65 3 17 7 39 8 50 2 11 11 61 20 111
21 124 25 154 17 156 -4 1 -122 2 -262 3 -204 1 -258 -1 -269 -12z"/>
<path d="M12093 5627 c-11 -5 -26 -19 -32 -31 -12 -23 -18 -49 -36 -156 -2
-14 -7 -41 -10 -60 -4 -19 -8 -46 -10 -60 -2 -14 -8 -49 -14 -79 -6 -29 -8
-57 -5 -62 3 -5 168 -9 375 -9 203 0 369 -3 369 -7 0 -3 -78 -85 -174 -182
-449 -453 -702 -710 -742 -756 -55 -61 -77 -120 -100 -263 -17 -104 -17 -114
-2 -129 15 -15 85 -16 777 -16 685 0 762 1 784 16 31 20 44 58 63 177 6 41 21
124 29 160 3 14 7 46 10 71 l5 46 -385 -1 c-212 -1 -392 1 -400 4 -9 3 48 68
166 190 98 101 179 185 179 186 0 1 46 49 103 106 231 238 470 489 482 505 16
23 33 78 40 128 3 23 8 52 10 65 3 14 8 41 11 60 2 19 7 47 10 62 3 16 0 29
-8 35 -18 11 -1468 12 -1495 0z"/>
<path d="M9343 4358 c-140 -23 -245 -144 -247 -283 -1 -61 20 -145 36 -145 5
0 7 -4 4 -8 -6 -10 65 -80 108 -107 42 -25 122 -42 185 -38 107 8 209 77 254
172 31 64 30 178 0 242 -37 77 -126 149 -203 163 -14 2 -25 5 -25 6 0 6 -77 4
-112 -2z"/>
</g>
</svg>
