<svg width="18" height="19" viewBox="0 0 18 19" fill="none" xmlns="http://www.w3.org/2000/svg">
<path d="M8.77778 18.0733C7.18074 18.0733 5.72222 17.6904 4.40222 16.9244C3.09852 16.1585 2.0637 15.1156 1.29778 13.7956C0.548148 12.4756 0.173333 11.0252 0.173333 9.44444C0.173333 7.8637 0.548148 6.41333 1.29778 5.09333C2.0637 3.77333 3.10667 2.73037 4.42667 1.96444C5.74667 1.19852 7.21333 0.815555 8.82667 0.815555C10.44 0.815555 11.8985 1.19037 13.2022 1.94C14.5222 2.68963 15.557 3.72444 16.3067 5.04444C17.0563 6.34815 17.4311 7.79852 17.4311 9.39555C17.4311 10.9926 17.0481 12.4593 16.2822 13.7956C15.5163 15.1156 14.4733 16.1585 13.1533 16.9244C11.8333 17.6904 10.3748 18.0733 8.77778 18.0733ZM8.77778 16.9733C10.1793 16.9733 11.4504 16.6393 12.5911 15.9711C13.7319 15.303 14.6281 14.3904 15.28 13.2333C15.9481 12.0763 16.2822 10.797 16.2822 9.39555C16.2822 7.99407 15.9563 6.72296 15.3044 5.58222C14.6689 4.44148 13.7807 3.54518 12.64 2.89333C11.5156 2.24148 10.2444 1.91555 8.82667 1.91555C7.42519 1.91555 6.14593 2.24963 4.98889 2.91778C3.84815 3.58592 2.95185 4.49852 2.3 5.65556C1.64815 6.7963 1.32222 8.05926 1.32222 9.44444C1.32222 10.8296 1.64815 12.1007 2.3 13.2578C2.95185 14.3985 3.84815 15.303 4.98889 15.9711C6.12963 16.6393 7.39259 16.9733 8.77778 16.9733ZM9.04667 14.48C8.05259 14.48 7.16445 14.2681 6.38222 13.8444C5.6 13.4207 4.98889 12.8259 4.54889 12.06C4.10889 11.2941 3.88889 10.4222 3.88889 9.44444C3.88889 8.46667 4.10889 7.59481 4.54889 6.82889C4.98889 6.06296 5.6 5.46815 6.38222 5.04444C7.16445 4.62074 8.05259 4.40889 9.04667 4.40889C9.89407 4.40889 10.6681 4.58815 11.3689 4.94667C12.0696 5.30518 12.6156 5.78593 13.0067 6.38889L11.6133 7.39111C11.0267 6.51111 10.163 6.07111 9.02222 6.07111C8.07704 6.07111 7.29482 6.38074 6.67556 7C6.0563 7.61926 5.74667 8.43407 5.74667 9.44444C5.74667 10.4548 6.0563 11.2696 6.67556 11.8889C7.29482 12.5081 8.07704 12.8178 9.02222 12.8178C10.163 12.8178 11.0267 12.3778 11.6133 11.4978L13.0067 12.4756C12.6156 13.0948 12.0696 13.5837 11.3689 13.9422C10.6681 14.3007 9.89407 14.48 9.04667 14.48Z" fill="#EECE21"/>
</svg>
