<svg width="119" height="152" viewBox="0 0 119 152" fill="none" xmlns="http://www.w3.org/2000/svg">
<path d="M112.854 70.5448C112.847 70.4541 112.828 70.3763 112.809 70.2856C112.738 69.8775 112.667 69.4823 112.597 69.113C112.526 68.7437 112.462 68.3939 112.411 68.0635C112.025 66.0292 111.775 64.7076 111.743 64.5003C111.736 64.4809 111.736 64.4744 111.736 64.4744C111.736 64.4744 100.041 62.4984 90.9214 57.8727C81.808 53.2406 67.377 46.017 66.7604 45.408C66.7219 45.3691 66.6769 45.3237 66.632 45.2914C66.5934 45.246 66.5485 45.2071 66.5099 45.1618C66.0539 44.7277 65.3732 44.1576 64.9365 43.7106C64.8209 43.594 64.7309 43.4838 64.6603 43.3931C64.5897 43.296 64.5447 43.2117 64.5254 43.1469C64.519 43.1081 64.5062 43.0822 64.5062 43.0498C64.4997 43.0109 64.4869 42.9655 64.4805 42.9202C64.4355 42.7194 64.397 42.4926 64.3649 42.24C64.3584 42.1752 64.3392 42.1104 64.3263 42.0391L64.3071 41.9549C64.2878 41.8577 64.2621 41.7541 64.2364 41.6504C64.2364 41.631 64.23 41.6115 64.2172 41.5856C64.1979 41.469 64.1658 41.3524 64.1337 41.2228C64.0694 40.9702 63.9988 40.6981 63.9217 40.4195C63.8575 40.2316 63.7997 40.0372 63.7355 39.8429C63.6456 39.5967 63.5556 39.357 63.4465 39.1108C62.6565 37.2709 59.0793 28.4601 57.737 26.199C56.3947 23.9445 53.1578 22.273 52.1431 21.1717C51.1412 20.0703 48.2319 17.9648 46.8896 17.0254C45.5473 16.086 43.6784 14.1619 42.7793 13.7926C42.2141 13.5464 41.2765 13.0281 40.6663 12.6848C40.3067 12.471 40.0562 12.322 40.0562 12.322C40.0562 12.322 39.6066 10.6311 37.3331 8.37651C36.3634 7.41769 35.689 6.90588 35.2137 6.64026C35.1945 6.62082 35.1752 6.61434 35.1495 6.60139C34.9055 6.47182 34.7192 6.41351 34.5779 6.38759C34.411 6.34872 34.2889 6.38112 34.2183 6.39407C34.1926 6.40055 34.1797 6.40055 34.1669 6.41351C34.1476 6.41999 34.1284 6.41999 34.1155 6.43942C34.0898 6.4459 34.0641 6.45886 34.0256 6.47829C33.9871 6.49773 33.9421 6.51717 33.8972 6.54956C33.8779 6.54956 33.8586 6.56899 33.8458 6.57547C33.8008 6.59491 33.7623 6.62082 33.7238 6.64674C33.7173 6.64674 33.7173 6.64674 33.7045 6.66617C33.6981 6.66617 33.6981 6.66617 33.6981 6.66617C33.6917 6.66617 33.6916 6.66617 33.6916 6.66617C33.621 6.71152 33.5504 6.75687 33.4669 6.8087C33.4476 6.81518 33.4219 6.83461 33.3962 6.86053C33.3898 6.85405 33.3898 6.86053 33.377 6.86053C33.332 6.88644 33.2935 6.91236 33.2614 6.95123C33.2357 6.97066 33.21 6.9901 33.1779 7.00306C33.1329 7.02897 33.0815 7.06784 33.0366 7.10024V7.10671C33.0366 7.10671 33.0366 7.10671 33.0301 7.10671C32.9852 7.14559 32.9402 7.17798 32.9081 7.21685C32.8824 7.24276 32.8567 7.26868 32.8246 7.28811C32.7861 7.32699 32.754 7.3529 32.7283 7.38529C32.5742 7.52134 32.4521 7.66387 32.3686 7.81936C32.3622 7.81936 32.3622 7.82583 32.3622 7.83879C32.343 7.85823 32.3365 7.87766 32.3237 7.90358C32.298 7.95541 32.2787 8.00076 32.2723 8.05906C32.1631 8.5903 31.0135 10.8967 31.6814 14.0776C31.9062 15.1531 32.343 16.3257 33.0944 17.5696V17.5761C33.3641 18.0101 33.6146 18.4053 33.8715 18.7616C36.434 22.4285 38.2323 22.137 39.2855 23.1023C39.6195 23.4068 39.8507 23.6141 40.0434 23.7955H40.0498C40.281 23.9963 40.4416 24.1453 40.6342 24.3267L40.6406 24.3332C40.7948 24.4693 40.9553 24.6312 41.148 24.845C41.1673 24.8644 41.1866 24.8839 41.1994 24.8968C41.2829 24.9875 41.3792 25.0847 41.4756 25.1949C41.6361 25.3763 41.8416 25.5836 42.0664 25.8103C43.1839 26.9376 44.8216 28.4277 44.8216 28.4277L43.3702 28.3888C43.3702 28.3888 43.2289 28.3953 42.9912 28.4082C42.8371 28.4082 42.6573 28.4147 42.4453 28.4147H42.0857C41.9637 28.4147 41.8288 28.4147 41.6811 28.4082C40.7434 28.4017 39.6388 28.324 38.9965 28.1296C38.1102 27.8511 37.0377 27.4883 35.856 27.0736C35.6312 26.9894 35.4 26.9182 35.1559 26.8275C34.9312 26.7562 34.7 26.672 34.4688 26.5942C34.4688 26.5942 34.4688 26.5877 34.4623 26.5877C34.4431 26.5877 34.4238 26.5813 34.4174 26.5813C34.2183 26.51 34.0256 26.4452 33.8265 26.374C33.7559 26.348 33.6916 26.3286 33.621 26.3027C33.4412 26.2379 33.2613 26.1796 33.0815 26.1213C32.8311 26.0306 32.5806 25.9528 32.3301 25.8621C31.8805 25.7067 31.4374 25.5577 30.9814 25.4086C30.7309 25.3179 30.4805 25.2402 30.23 25.156C29.485 24.9098 28.7336 24.6701 27.995 24.4369C27.5647 24.3138 27.1344 24.1777 26.717 24.0546C26.672 24.0482 26.627 24.0287 26.5821 24.0158C26.1967 23.8991 25.8243 23.789 25.4453 23.6789C24.8095 23.4975 24.1865 23.3355 23.5828 23.193C23.5572 23.1865 23.5379 23.1865 23.5122 23.1735C23.2232 23.1023 22.9278 23.031 22.6516 22.9727C21.7011 22.7589 20.8084 22.6034 20.0056 22.5127C19.7808 22.4868 19.5689 22.4674 19.3634 22.4609C19.1193 22.4415 18.9009 22.435 18.6826 22.435C18.3037 22.435 17.9569 22.4544 17.6422 22.5063C17.4752 22.5322 17.3018 22.571 17.1348 22.6034C17.1091 22.6099 17.0706 22.6099 17.0449 22.6229C16.9293 22.6488 16.8201 22.6747 16.6981 22.7071C16.1522 22.8367 15.5806 23.0051 14.9961 23.193C14.7007 23.2902 14.3989 23.4003 14.0906 23.5104C13.8401 23.6011 13.5896 23.6983 13.3456 23.802C13.3392 23.802 13.3392 23.8084 13.3392 23.8084H13.3328C13.2171 23.8538 13.1015 23.8991 12.9924 23.9445C12.8511 23.9963 12.7162 24.0611 12.5685 24.1259C12.4529 24.1648 12.3437 24.2166 12.2281 24.2684C12.0226 24.3591 11.8107 24.4498 11.5987 24.547C10.8923 24.8645 10.2051 25.1949 9.54356 25.5317C9.24813 25.6872 8.95912 25.8298 8.67654 25.9852C8.24624 26.212 7.83521 26.4258 7.44986 26.6461H7.44344C7.28288 26.7368 7.10948 26.8275 6.96177 26.9182C6.78194 27.0153 6.60211 27.119 6.43513 27.2162C5.07359 28.0001 4.12308 28.5961 3.91756 28.7257C3.27533 29.1209 2.10003 30.8377 1.3422 31.4337C0.590779 32.0233 0.166903 33.0922 0.083412 33.2671C-7.87424e-05 33.4356 -0.128526 34.226 0.423797 35.3014C0.976121 36.3769 1.99085 37.3875 2.26702 37.53C2.28628 37.5689 2.31197 37.5754 2.35051 37.5819C2.38904 37.5883 2.434 37.6013 2.47895 37.6078C2.56887 37.6272 2.67805 37.6337 2.80007 37.6467C3.28175 37.6855 3.96252 37.6726 4.4442 37.692C5.16993 37.7309 5.16993 37.7309 5.16993 37.7309C5.16993 37.7309 4.21942 37.841 4.10381 38.2362C3.99463 38.6314 2.99274 41.9743 3.12761 42.5444C3.26891 43.1146 3.80196 44.501 5.19561 45.4857C5.38186 45.6153 5.55527 45.7384 5.71583 45.8356C6.76909 46.5417 7.27004 46.7555 7.27004 46.7555C7.27004 46.7555 7.24435 46.762 7.19939 46.7749C7.1737 46.7814 7.14801 46.7944 7.10948 46.8009C7.0581 46.8073 6.99388 46.8397 6.92323 46.8527C6.58285 46.9628 6.05621 47.1572 5.69014 47.4422C5.6516 47.4682 5.60665 47.4941 5.58096 47.5329C5.44609 47.6431 5.33691 47.7662 5.28553 47.9152C4.9901 48.6472 4.69467 50.7074 4.78458 51.5237C4.86807 52.3335 5.4204 53.6357 6.3388 54.2318C7.27004 54.8213 8.72149 55.3331 10.5968 55.4951C12.4657 55.6635 13.6153 55.5858 14.1163 55.8125C14.6236 56.0393 17.6678 56.6612 17.6678 56.6612C17.6678 56.6612 14.1163 57.2184 13.4419 57.4711C12.7676 57.7237 11.5473 58.3457 11.0978 59.2786C10.6482 60.2115 10.8088 62.4919 10.9822 63.062C11.1491 63.6192 12.4657 64.7529 13.8915 65.0315C14.3924 65.1287 14.7842 65.2 15.1439 65.2583C15.2273 65.2648 15.3044 65.2777 15.3879 65.2842C15.4521 65.2907 15.5035 65.3036 15.5613 65.3036C15.6255 65.3036 15.6962 65.3101 15.7604 65.3101C16.1779 65.349 16.5953 65.3295 17.1219 65.2648C18.2972 65.1222 19.1964 65.1676 20.6093 65.2453C21.3158 65.2842 22.0158 65.1741 22.6323 65.0769C22.9984 65.0251 23.3324 64.9797 23.615 64.9603C23.8269 64.9538 24.0196 64.9603 24.1801 65.0056C24.5012 65.0963 25.2462 65.2388 26.1775 65.3749C26.4215 65.4138 26.6784 65.4462 26.9353 65.485C27.0702 65.5045 27.2115 65.5239 27.3592 65.5369C27.5198 65.5563 27.6996 65.5757 27.8666 65.6016C28.0014 65.6081 28.1363 65.6276 28.2712 65.6405C28.2776 65.647 28.2776 65.647 28.2904 65.647C28.9776 65.7183 29.6777 65.7895 30.3199 65.8284C31.4374 65.8997 32.3494 65.9385 33.3063 66.0357H33.3127C33.4797 66.0551 33.6595 66.0746 33.8394 66.107C33.8458 66.1005 33.8651 66.107 33.8843 66.107C34.7256 66.2171 35.6505 66.3855 36.8001 66.6771C37.6029 66.8844 38.4121 67.014 39.1892 67.0723C39.2341 67.0788 39.2791 67.0788 39.3241 67.0917H39.414C40.7819 67.2018 42.0728 67.1371 43.1646 67.0204C43.3445 67.001 43.5243 66.9816 43.6848 66.9557C43.8454 66.9362 43.9867 66.9168 44.1344 66.8909C44.1601 66.8909 44.1858 66.8844 44.2179 66.8844C44.2564 66.8779 44.2886 66.8779 44.3335 66.8779C44.462 66.8585 44.5904 66.8391 44.7445 66.8326C45.1106 66.8067 45.5409 66.8067 46.0162 66.8067C46.1767 66.8067 46.3373 66.8131 46.4978 66.8131C46.7034 66.8196 46.9153 66.8196 47.1337 66.839C47.2236 66.839 47.3135 66.8391 47.4034 66.8455H47.4098C47.6218 66.852 47.8401 66.865 48.0456 66.8714H48.0521C48.2512 66.8779 48.431 66.8974 48.6172 66.9103C48.7393 66.9168 48.8613 66.9297 48.9769 66.9362C48.9833 66.9362 48.9961 66.9362 48.9961 66.9362H49.0861C49.1696 66.9427 49.2402 66.9557 49.3173 66.9557C49.5164 66.9751 49.6962 66.9816 49.8696 67.001C49.9659 67.0075 50.0687 67.0075 50.1586 67.0204H50.1971C50.5761 67.0593 50.8972 67.0852 51.1284 67.1047C51.2119 67.1111 51.2825 67.1241 51.3339 67.1241C51.488 67.1435 51.5779 67.15 51.5779 67.15C51.5779 67.15 51.7642 67.1889 52.0982 67.2602C52.2651 67.299 52.4771 67.3444 52.7083 67.3962C52.8881 67.4351 53.0936 67.4804 53.3056 67.5323C53.389 67.5517 53.4725 67.5711 53.5625 67.5841C53.5689 67.5841 53.5817 67.5841 53.5817 67.5841C55.1488 67.9728 57.4994 68.5883 60.1068 69.4693C64.519 70.9594 69.6762 73.2075 73.1378 76.3237C80.2988 82.7634 93.2206 93.1485 102.18 96.7376C102.379 96.8218 102.572 96.8931 102.764 96.9644C103.361 97.2105 103.946 97.4243 104.511 97.6316C104.517 97.6316 104.517 97.6316 104.53 97.6316C105.32 97.7936 106.162 97.8131 107.029 97.6576C108.249 97.4438 109.443 96.919 110.593 96.1221C112.783 94.6256 114.755 92.1702 116.232 89.1706C115.191 83.1391 113.907 76.0969 112.976 71.089C112.918 70.8946 112.892 70.7197 112.854 70.5448Z" fill="#F1BC95"/>
<path d="M111.736 64.4941C111.049 64.3839 110.323 64.3969 109.578 64.5329C109.488 64.5524 109.411 64.5589 109.328 64.5848C107.896 64.8763 106.489 65.6149 105.185 66.6709C104.601 67.1503 104.029 67.701 103.496 68.3035C103.471 68.3423 103.432 68.3683 103.406 68.4006C102.482 69.4502 101.634 70.6681 100.889 72.0222C99.3218 74.8468 98.2043 78.2351 97.774 81.7918C97.7227 82.1805 97.6841 82.5693 97.6584 82.958C97.4722 85.3486 97.6199 87.5642 98.0438 89.5143C98.0438 89.5207 98.0438 89.5207 98.0438 89.5207C98.8209 93.0386 100.504 95.7078 102.751 96.9516C103.297 97.2561 103.882 97.4829 104.498 97.6189C104.505 97.6189 104.505 97.6189 104.518 97.6189C105.307 97.7809 106.149 97.8003 107.016 97.6449C108.236 97.4311 109.431 96.9063 110.58 96.1094C112.77 94.6129 114.742 92.1575 116.219 89.1579C117.671 86.2361 118.653 82.796 118.929 79.2069C119.116 76.745 118.955 74.4646 118.499 72.4821C117.471 68.0184 114.986 64.9864 111.736 64.4941Z" fill="#F1BC95"/>
<path d="M111.736 64.494C111.73 64.4746 111.73 64.4681 111.73 64.4681C111.73 64.4681 100.035 62.4921 90.9149 57.8664C81.8016 53.2342 67.3705 46.0107 66.754 45.4017C66.7154 45.3628 66.6705 45.3174 66.6255 45.2851C66.587 45.2397 66.542 45.2008 66.5035 45.1555C66.0475 44.7214 65.3667 44.1513 64.93 43.7043C64.6538 46.3216 66.8246 49.5091 68.8155 50.7983C70.222 51.7118 71.834 52.2495 73.2727 53.0917C75.1544 54.1736 76.7022 55.7479 78.4105 57.089C81.7823 59.7258 85.7642 61.4555 89.7203 63.0946C92.6618 64.3126 95.6353 65.4982 98.6153 66.6513C99.7071 67.066 101.435 67.6555 103.503 68.3034C106.277 69.1909 109.681 70.1886 112.963 71.0762C114.896 71.601 116.791 72.0869 118.505 72.4821C117.471 68.0183 114.986 64.9864 111.736 64.494Z" fill="#EDB58C"/>
<path d="M64.6539 44.0673C64.6475 43.9247 64.6282 43.7757 64.6089 43.6462C64.5832 43.4648 64.5575 43.3028 64.5126 43.1473C64.5062 43.1084 64.4933 43.0825 64.4933 43.0501C64.4869 43.0113 64.4741 42.9659 64.4676 42.9206C64.4227 42.7197 64.3841 42.493 64.352 42.2403C64.3135 42.0589 64.2814 41.871 64.2236 41.6508C64.1979 41.5147 64.1594 41.3722 64.1272 41.2297C64.063 40.977 63.9924 40.7049 63.9153 40.4263C63.8511 40.2384 63.7933 40.0441 63.7291 39.8497C63.6391 39.6035 63.5492 39.3638 63.4401 39.1177C62.6501 37.2777 59.0728 28.4669 57.7306 26.2059C56.3883 23.9513 53.1514 22.2799 52.1367 21.1785C51.1348 20.0772 48.2255 17.9716 46.8832 17.0322C45.5409 16.0928 43.672 14.1687 42.7729 13.7994C42.2077 13.5532 41.27 13.035 40.6599 12.6916C40.3003 12.4778 40.0498 12.3288 40.0498 12.3288C40.0498 12.3288 39.6002 10.6379 37.3267 8.38336C35.0532 6.12882 34.3853 6.34261 34.1605 6.42683C34.1412 6.43331 34.122 6.43331 34.1091 6.45275C34.0834 6.45922 34.0577 6.47218 34.0192 6.49162C33.9357 6.53049 33.8329 6.5888 33.7173 6.66006C33.7109 6.66006 33.6981 6.66654 33.6917 6.6795C33.6852 6.6795 33.6852 6.6795 33.6852 6.6795C33.1458 7.00342 32.3686 7.58002 32.2595 8.07886C32.1182 8.79151 30.1015 12.6657 33.0815 17.5959C36.0615 22.5261 38.1102 22.0726 39.2727 23.1286C40.4287 24.1846 40.4608 24.1392 41.4756 25.2341C42.4775 26.329 44.8216 28.4669 44.8216 28.4669L43.3702 28.428C43.3702 28.428 40.281 28.5706 39.0029 28.1689C37.9304 27.8255 36.5881 27.3655 35.0917 26.8408C34.6807 26.7047 34.2568 26.5492 33.8329 26.4067C31.9897 25.7653 29.9731 25.0916 27.995 24.4631C27.5647 24.3401 27.1344 24.204 26.717 24.0809C25.6444 23.757 24.5847 23.4654 23.5828 23.2257C23.2682 23.1415 22.9535 23.0703 22.6516 23.0119C21.7011 22.7982 20.8084 22.6427 20.0056 22.552C19.7808 22.5261 19.5689 22.5066 19.3634 22.5001C19.1193 22.4807 18.9009 22.4742 18.6826 22.4742C18.3037 22.4742 17.9569 22.4937 17.6422 22.5455C17.4752 22.5714 17.3018 22.6103 17.1348 22.6427C16.9935 22.6686 16.8458 22.7075 16.6981 22.7398C16.1522 22.8694 15.5806 23.0379 14.9961 23.2257C14.7007 23.3229 14.3989 23.4331 14.0906 23.5432C11.7464 24.4113 9.33804 25.6358 7.44987 26.6788H7.44344C7.28288 26.7695 7.10948 26.8602 6.96177 26.9509C6.78194 27.0481 6.60211 27.1518 6.43513 27.2489C5.07359 28.0328 4.12308 28.6289 3.91756 28.7584C3.27533 29.1536 2.10003 30.8704 1.3422 31.4665C0.590779 32.056 0.166903 33.125 0.083412 33.2999C-7.87424e-05 33.4683 -0.128526 34.2587 0.423797 35.3342C0.976121 36.4096 1.99085 37.4203 2.26702 37.5628C2.28628 37.5693 2.31197 37.5758 2.35051 37.5822C2.38904 37.5887 2.434 37.6017 2.47895 37.6081C2.56887 37.6276 2.67805 37.6341 2.80007 37.647C3.28175 37.6859 3.96252 37.6729 4.4442 37.6924C5.16993 37.7312 5.16993 37.7312 5.16993 37.7312C5.16993 37.7312 4.21942 37.8414 4.10381 38.2366C3.99463 38.6318 2.99274 41.9747 3.12761 42.5448C3.26891 43.1149 3.80196 44.5013 5.19562 45.4861C5.38186 45.6157 5.55527 45.7387 5.71583 45.8359C6.76909 46.5421 7.27004 46.7559 7.27004 46.7559C7.27004 46.7559 7.24435 46.7624 7.19939 46.7753C7.1737 46.7818 7.14801 46.7947 7.10948 46.8012C7.0581 46.8077 6.99388 46.8401 6.92323 46.8531C6.58285 46.9632 6.05621 47.1575 5.69014 47.4426C5.6516 47.4685 5.60665 47.4944 5.58096 47.5333C5.44609 47.6434 5.33691 47.7665 5.28553 47.9155C4.9901 48.6476 4.69467 50.7078 4.78458 51.5241C4.86807 52.3339 5.4204 53.6361 6.3388 54.2321C7.27004 54.8217 8.72149 55.3335 10.5968 55.4955C12.4657 55.6639 13.6153 55.5862 14.1163 55.8129C14.6236 56.0397 17.6679 56.6616 17.6679 56.6616C17.6679 56.6616 14.1163 57.2188 13.4419 57.4714C12.7676 57.7241 11.5473 58.346 11.0978 59.2789C10.6482 60.2118 10.8088 62.4923 10.9822 63.0624C11.1491 63.6196 12.4657 64.7533 13.8915 65.0319C14.3924 65.1291 14.7842 65.2003 15.1439 65.2586C15.2274 65.2651 15.3044 65.2781 15.3879 65.2846C15.4521 65.291 15.5035 65.304 15.5613 65.304C15.6255 65.304 15.6962 65.3105 15.7604 65.3105C16.1779 65.3493 16.5953 65.3299 17.1219 65.2651C18.2972 65.1226 19.1964 65.1679 20.6093 65.2457C22.0222 65.3299 23.4223 64.7922 24.1801 64.9995C24.9315 65.2133 28.0207 65.6797 30.3199 65.8223C32.6127 65.9648 34.0063 65.9648 36.8065 66.671C39.6002 67.3771 42.3747 67.1569 44.2179 66.8783C46.0611 66.5997 51.5715 67.1374 51.5715 67.1374C51.5715 67.1374 51.7513 67.1763 52.0917 67.2476C52.2587 67.2864 52.4578 67.3318 52.7019 67.3836C52.811 67.4095 52.9138 67.429 53.0358 67.4549C53.19 67.4937 53.3505 67.5261 53.5175 67.5715C53.5175 67.5715 53.5368 67.5715 53.5817 67.5715C53.6074 67.578 53.6459 67.578 53.6781 67.578C54.3524 67.578 57.0626 67.1957 59.7793 61.4557C62.6694 55.3464 65.0007 47.9674 64.6539 44.0737C64.6539 44.0737 64.6539 44.0737 64.6539 44.0673Z" fill="#EDB58C"/>
<path d="M64.5126 43.1473C64.5061 43.1085 64.4933 43.0825 64.4933 43.0501C64.4869 43.0113 64.474 42.9659 64.4676 42.9206C64.4227 42.7197 64.3841 42.493 64.352 42.2403C64.3135 42.0589 64.2814 41.871 64.2236 41.6508C64.1979 41.5147 64.1593 41.3722 64.1272 41.2297C64.063 40.977 63.9924 40.7049 63.9153 40.4263C63.8511 40.2384 63.7933 40.0441 63.729 39.8497C63.6391 39.6035 63.5492 39.3638 63.44 39.1177C62.6501 37.2777 59.0728 28.4669 57.7306 26.2059C56.3883 23.9513 53.1514 22.2799 52.1367 21.1785C51.1348 20.0772 48.2254 17.9716 46.8832 17.0322C45.5409 16.0928 43.672 14.1687 42.7729 13.7994C42.2077 13.5532 41.27 13.035 40.6599 12.6916C40.3002 12.4778 40.0498 12.3288 40.0498 12.3288C40.0498 12.3288 39.6002 10.6379 37.3267 8.38336C35.0532 6.12882 34.3852 6.34261 34.1605 6.42683C34.1412 6.43331 34.1219 6.43331 34.1091 6.45275C34.0834 6.45922 34.0577 6.47218 34.0192 6.49162C33.9357 6.53049 33.8329 6.5888 33.7173 6.66006C33.7109 6.66006 33.698 6.66654 33.6916 6.6795C33.6852 6.6795 33.6852 6.6795 33.6852 6.6795C33.4861 6.79611 33.2549 6.95159 33.0301 7.12004C32.664 7.41805 32.3301 7.76142 32.2594 8.07886C32.1181 8.79151 30.1015 12.6657 33.0815 17.5959C36.0615 22.5261 38.1102 22.0726 39.2727 23.1286C40.4287 24.1846 40.4608 24.1392 41.4755 25.2341C42.4774 26.329 44.8216 28.4669 44.8216 28.4669C44.8216 28.4669 46.4529 30.3327 46.4529 31.9718C46.4529 33.6044 44.7702 36.6558 47.6795 45.512C50.5889 54.3682 60.1004 57.588 63.9024 47.1446C63.9667 46.9826 64.0181 46.8077 64.0694 46.6393C64.3199 45.8554 64.5061 44.9872 64.6539 44.0673C64.6474 43.9247 64.6282 43.7757 64.6089 43.6462C64.5832 43.4648 64.5575 43.2963 64.5126 43.1473Z" fill="#F7C199"/>
<path d="M63.9088 40.4263C63.8446 40.2384 63.7868 40.0441 63.7226 39.8497C63.6327 39.6035 63.5428 39.3638 63.4336 39.1177C62.6436 37.2777 59.0664 28.4669 57.7241 26.2059C56.3818 23.9513 53.145 22.2799 52.1302 21.1785C51.1283 20.0772 48.219 17.9716 46.8767 17.0322C45.5345 16.0928 43.6655 14.1687 42.7664 13.7994C42.2012 13.5532 41.2636 13.035 40.6535 12.6916C40.2938 12.4778 40.0433 12.3288 40.0433 12.3288C40.0433 12.3288 39.5938 10.6379 37.3202 8.38336C35.0467 6.12882 34.3788 6.34261 34.154 6.42683C34.1348 6.43331 34.1155 6.43331 34.1026 6.45275C34.0769 6.45922 34.0513 6.47218 34.0127 6.49162C33.9292 6.53049 33.8265 6.5888 33.7109 6.66006C33.7045 6.66006 33.6916 6.66654 33.6852 6.6795C33.6788 6.6795 33.6788 6.6795 33.6788 6.6795C33.4797 6.79611 33.2485 6.95159 33.0237 7.12004C33.12 7.94281 33.3127 8.74616 33.7045 9.46528C34.366 10.6962 35.5477 11.5514 36.7358 12.2705C37.6927 12.8406 38.6882 13.3524 39.7158 13.8059C41.2828 14.4991 42.6893 15.1794 43.9867 16.3002C45.3739 17.5117 46.6776 18.7037 48.3025 19.5977C49.5292 20.265 50.8329 20.8092 51.9247 21.6838C53.1835 22.6945 54.0634 24.0939 54.8983 25.4932C56.4204 28.0588 57.8397 30.689 59.1627 33.3712C60.004 34.3041 60.7426 35.9885 61.0894 36.5521C61.3078 36.9085 61.5326 37.2777 61.7509 37.66C62.4702 38.7549 63.1446 39.8757 63.7997 41.0159C63.9345 41.2167 64.0694 41.4046 64.2107 41.5925C64.185 41.4759 64.1593 41.3528 64.1272 41.2361C64.063 40.977 63.9923 40.7114 63.9088 40.4263Z" fill="#EDB58C"/>
<path d="M37.3332 8.38958C35.0597 6.13504 34.3917 6.34884 34.167 6.43306C34.1477 6.43954 34.1284 6.43954 34.1156 6.45897C34.0899 6.46545 34.0642 6.47841 34.0257 6.49784C33.9422 6.53671 33.8394 6.59502 33.7238 6.66629C33.7174 6.66629 33.7045 6.67276 33.6981 6.68572C33.6981 6.68572 33.6981 6.68572 33.7045 6.68572C33.8651 6.68572 35.4514 6.71163 35.7725 7.63159C36.1129 8.60985 36.068 9.36785 37.1148 10.0805C38.1617 10.7931 39.5746 12.3739 40.281 12.8274C40.4095 12.9116 40.5315 12.8468 40.6664 12.7043C40.3067 12.4905 40.0563 12.3415 40.0563 12.3415C40.0563 12.3415 39.6067 10.6441 37.3332 8.38958Z" fill="#FCDCC2"/>
<path d="M46.3245 27.8641C46.241 27.5855 46.1575 27.307 45.9648 27.0997C45.785 26.8923 45.5153 26.7822 45.2776 26.6656C43.8069 25.927 42.7537 24.4175 42.5481 22.7849C42.5225 22.5128 42.5032 22.2278 42.394 21.9816C42.1371 21.405 41.4692 21.1718 40.9169 20.8867C38.5021 19.6752 37.3653 16.9024 35.6248 14.8293C35.0597 14.1684 34.4238 13.5659 33.9357 12.8403C33.088 11.6094 32.7027 10.061 32.8439 8.57745C32.8825 8.14986 33.1394 7.54088 33.3834 6.88007C32.8889 7.20399 32.343 7.66397 32.2531 8.0786C32.1118 8.79124 30.0952 12.6654 33.0752 17.5956C36.0551 22.5258 38.1167 22.0723 39.2663 23.1283C40.4223 24.1843 40.4545 24.139 41.4692 25.2338C42.4711 26.3287 44.8152 28.4666 44.8152 28.4666L43.3638 28.4278C43.3638 28.4278 40.2746 28.5703 38.9966 28.1686C37.5708 27.7151 35.6955 27.0608 33.6146 26.3352C33.666 26.387 33.7238 26.4518 33.7752 26.5036C34.3596 27.1256 34.9633 27.7475 35.7276 28.1297C37.5323 29.0173 39.7801 28.2917 41.6619 29.0238C42.5096 29.3477 43.2161 29.9632 43.8968 30.5786C44.7125 31.3107 45.4896 32.0687 46.2474 32.8526C46.1126 32.5935 46.2924 32.2825 46.5172 32.0946C46.7419 31.9068 47.0117 31.7513 47.1337 31.4921C47.2622 31.2135 47.1722 30.8896 47.0888 30.5981C46.8447 29.6846 46.5878 28.7711 46.3245 27.8641Z" fill="#EDB58C"/>
<path d="M55.2515 63.5935C54.0634 64.3062 52.8239 64.9994 51.4559 65.2715C50.0944 65.5306 48.5723 65.3103 47.5511 64.358C46.1189 63.0428 46.0804 60.6911 46.8832 58.8966C47.6796 57.1085 49.1182 55.7221 50.4091 54.245C51.1091 53.4611 51.777 52.6188 52.1303 51.6276C53.0615 48.9909 51.533 46.1662 50.0559 43.7886C49.0026 42.0847 47.9365 40.3679 46.8768 38.6575C46.7548 38.4567 46.607 38.2494 46.3951 38.1781C46.1189 38.1069 45.8492 38.2753 45.618 38.4502C41.6104 41.3397 37.59 44.2356 33.5825 47.138C32.6256 47.8312 31.6494 48.5438 30.9365 49.4962C30.0695 50.6688 29.6584 52.1135 29.029 53.4416C26.7106 58.3524 21.6305 61.19 16.9293 63.8527C16.5953 64.0405 16.2485 64.2414 16.0366 64.5653C15.8824 64.7791 15.8118 65.0447 15.7668 65.3039C16.1843 65.3427 16.6018 65.3233 17.1284 65.2585C18.3037 65.116 19.2028 65.1613 20.6157 65.2391C22.0287 65.3233 23.4287 64.7856 24.1866 64.9929C24.938 65.2067 28.0271 65.6731 30.3263 65.8157C32.6191 65.9582 34.0128 65.9582 36.8129 66.6644C39.6067 67.3705 42.3811 67.1503 44.2243 66.8717C46.0676 66.5931 51.5779 67.1308 51.5779 67.1308C51.5779 67.1308 55.4185 67.8629 60.1068 69.4501C60.0876 68.9837 60.0362 68.5043 59.9912 68.0443C59.8628 66.6449 59.9013 65.0382 60.216 63.6583C60.4729 62.5181 60.7812 61.2742 61.1473 60.121C61.3464 59.4861 61.6996 58.8383 61.8345 58.1904C61.9436 57.7239 61.7959 57.2769 62.0785 56.8169C61.6482 57.5296 61.2115 58.2358 60.7748 58.9484C59.471 61.0539 57.3131 62.3496 55.2515 63.5935Z" fill="#E8AD82"/>
<path d="M98.0438 89.5143C89.1488 84.2861 80.6905 78.2221 72.4378 72.0027C68.8605 69.3012 65.2255 66.47 62.9134 62.6153C62.4639 61.8832 61.706 61.4945 60.7812 61.3455C60.4858 61.3001 60.1839 61.2742 59.8564 61.2742C59.471 61.2548 59.06 61.2807 58.649 61.3261C56.8507 61.5075 54.9112 62.11 53.5496 62.5959C53.5304 62.5959 53.5239 62.6023 53.5111 62.6153C53.357 62.6606 53.2092 62.7125 53.0744 62.7708H53.0679C53.0294 62.7902 52.9973 62.7967 52.9716 62.8096C52.9267 62.8291 52.8817 62.8485 52.8367 62.8615C51.2954 63.4381 49.42 63.4057 47.9686 64.3127C47.8787 64.3645 47.7888 64.4293 47.6988 64.4941C46.9025 65.0707 46.3566 65.887 46.0098 66.8069C46.1703 66.8069 46.3309 66.8134 46.4914 66.8134C46.697 66.8199 46.9089 66.8328 47.1273 66.8393C47.2172 66.8393 47.3071 66.8393 47.397 66.8458H47.4034C47.6154 66.8523 47.8337 66.8652 48.0392 66.8717H48.0457C48.2447 66.8782 48.4246 66.8976 48.6108 66.9106C48.7329 66.9171 48.8549 66.93 48.9705 66.9365C48.9769 66.9365 48.9897 66.9365 48.9897 66.9365H49.0797C49.1631 66.943 49.2338 66.9559 49.3109 66.9559C49.51 66.9754 49.6898 66.9818 49.8632 67.0013C49.9595 67.0078 50.0623 67.0078 50.1522 67.0207H50.1907C50.5696 67.0596 50.8908 67.0855 51.122 67.1049C51.2055 67.1114 51.2761 67.1244 51.3275 67.1244C51.4816 67.1438 51.5715 67.1503 51.5715 67.1503C51.5715 67.1503 51.7578 67.1892 52.0917 67.2604C52.2587 67.2993 52.4707 67.3446 52.7019 67.3965C52.8817 67.4353 53.0872 67.4807 53.2991 67.5325C53.3826 67.552 53.4661 67.5714 53.556 67.5843C53.5625 67.5843 53.5753 67.5843 53.5753 67.5843C55.1424 67.9731 57.493 68.5885 60.1004 69.4696C64.5126 70.9597 69.6698 73.2077 73.1314 76.3239C80.2924 82.7636 93.2141 93.1488 102.173 96.7379C102.372 96.8221 102.565 96.8934 102.758 96.9646C103.355 97.2108 103.939 97.4246 104.505 97.6319C104.511 97.6319 104.511 97.6319 104.524 97.6319C105.314 97.7939 106.155 97.8133 107.022 97.6578C108.242 97.444 109.437 96.9193 110.587 96.1224C106.303 94.1464 102.128 91.9243 98.0566 89.5337C98.0438 89.5208 98.0566 89.5143 98.0438 89.5143Z" fill="#E8AD82"/>
<path d="M35.1174 6.46548C35.2201 6.74405 35.0403 6.83475 34.6742 6.7894L53.1642 58.5596C54.3909 61.9932 53.3376 65.1677 50.3962 66.8975L35.9395 75.3844C35.8303 75.4557 34.4623 76.0193 32.876 76.097C32.876 76.097 30.2428 76.4145 28.162 75.0669C27.7317 74.7884 27.2436 74.6005 26.8903 74.2701C26.0683 73.4927 25.6894 72.8578 25.6894 72.8578C25.3554 72.469 25.1049 72.0415 24.9379 71.575L24.9187 71.5232L6.05619 18.697L5.68369 17.6475C4.66254 14.7904 5.53598 12.1342 7.98932 10.7025L24.4627 0.965179C24.7966 0.764344 25.06 0.582944 25.4646 0.51168C25.5224 0.498723 25.7022 0.414502 26.0747 0.343238C26.1132 0.336759 26.1518 0.33028 26.1839 0.323802C26.3573 0.291409 26.5628 0.265495 26.8261 0.246059C26.9417 0.239581 27.0766 0.233102 27.2179 0.233102C27.295 0.226624 27.372 0.226624 27.4619 0.226624C27.6418 0.226624 28.284 0.278452 28.4895 0.343238L29.5877 0.790258L32.2851 3.63435C33.6017 4.44417 34.7577 5.44186 35.1174 6.46548Z" fill="url(#paint0_linear)"/>
<path d="M27.6867 0C27.5968 0 27.5198 0 27.4427 0.00647856C27.3014 0.00647856 27.1665 0.0129571 27.0509 0.0194357C26.7876 0.0323928 26.5821 0.0583071 26.4087 0.0971784C26.3701 0.103657 26.3316 0.110136 26.2995 0.116614C26.0105 0.1814 25.8564 0.252664 25.6894 0.285057C25.2848 0.362799 25.0279 0.537721 24.6875 0.738556L7.98291 10.7026C5.53599 12.1343 4.66255 14.7906 5.67728 17.6476L6.04978 18.6971L24.9251 71.5168L24.9444 71.5687C25.1114 72.0351 25.3683 72.4562 25.6958 72.8514C25.6958 72.8514 26.0555 73.4539 26.839 74.2054C27.2243 74.5812 27.7188 74.8792 28.2455 75.093L28.7978 75.3198C27.4748 74.2897 26.8775 73.2984 26.8775 73.2984C26.5564 72.9097 26.2931 72.4822 26.1261 72.0157L26.1068 71.9639L7.23792 19.1377L6.86542 18.0881C5.84426 15.2311 6.71128 12.5749 9.17105 11.1431L25.8756 1.18558C26.2032 0.984741 26.5821 0.861649 26.9739 0.790385C26.9739 0.790385 29.5235 1.25684 30.9686 1.25684C31.1034 1.25684 31.2319 1.26332 31.3668 1.27628L28.7207 0.116614C28.5088 0.0518285 27.873 0 27.6867 0Z" fill="#E7E7E6"/>
<path d="M53.4083 57.6072L53.2092 57.0436L34.5394 4.8134C34.4752 4.62552 34.3981 4.4506 34.3082 4.26272C32.8439 1.34737 28.3097 -0.375931 25.6637 1.17244L11.2648 9.63992C8.70225 11.143 7.78385 13.9028 8.85638 16.9024L28.2262 71.115C29.2667 74.0627 33.743 75.8832 36.2799 74.4061L46.3823 68.4653L50.6403 65.9581C53.2991 64.4032 54.4166 61.6628 53.6845 58.6049C53.6267 58.268 53.5368 57.9376 53.4083 57.6072Z" fill="#DFE5E7"/>
<path d="M33.8521 4.37944C32.9145 1.77506 28.9647 0.155415 26.7362 1.47056L12.7611 9.68538L11.9583 10.1583C10.0701 11.2661 9.11962 13.0866 9.24807 15.1727C9.28018 15.8011 9.41505 16.4425 9.65268 17.1033L28.9198 71.0309C29.851 73.6352 33.8008 75.2549 36.0358 73.9397L46.8831 67.5648L50.82 65.252C53.2605 63.8138 54.134 61.1575 53.1128 58.307L33.8521 4.37944Z" fill="#303435"/>
<path d="M13.23 9.87982L12.4272 10.3528C10.539 11.4606 9.58208 13.2875 9.71053 15.3607C9.74264 15.9891 9.87751 16.637 10.1151 17.2978L29.1253 70.4868C30.3713 73.9787 34.0063 74.7108 36.2349 73.3956L44.3592 68.6209L19.4725 6.21295L13.23 9.87982Z" fill="#667276"/>
<path d="M33.9549 6.9126L11.9005 19.8244L29.3758 68.744L51.4623 55.8063L34.1733 7.39849C34.109 7.23005 34.0448 7.06808 33.9549 6.9126Z" fill="#121213"/>
<path d="M33.8457 5.49377L11.1362 18.7943L29.0418 68.9124L51.7834 55.586L34.0705 5.9991C34.0063 5.82418 33.9356 5.65574 33.8457 5.49377Z" fill="#121213"/>
<path d="M33.8394 6.56915L11.7786 19.4874L29.2538 68.407L51.3403 55.4693L34.0513 7.06152C33.9871 6.89308 33.9229 6.73112 33.8394 6.56915Z" fill="#DBDDDF"/>
<path d="M11.7849 19.481L29.2666 68.4006L41.4241 61.2807L22.3112 13.3199L11.7849 19.481Z" fill="#F0F1F2"/>
<path d="M20.6414 7.35312C20.1726 7.15876 19.6331 7.47621 19.4405 8.0528C19.2478 8.62939 19.4726 9.25134 19.9414 9.44569C20.4102 9.64005 20.9497 9.32908 21.1424 8.74601C21.3415 8.16942 21.1103 7.54747 20.6414 7.35312Z" fill="#E2E3E3"/>
<path d="M20.6158 7.4372C20.5387 7.4048 20.4617 7.39185 20.3846 7.39185C20.0378 7.39185 19.6974 7.68338 19.5625 8.09801C19.4726 8.35715 19.4726 8.63573 19.5561 8.87544C19.6396 9.10866 19.7873 9.27711 19.98 9.36133C20.057 9.39372 20.1341 9.40668 20.2112 9.40668C20.558 9.40668 20.8984 9.11514 21.0332 8.70051C21.2067 8.17575 21.0204 7.60564 20.6158 7.4372Z" fill="#404646"/>
<path d="M20.2817 7.69017C20.2303 7.67073 20.179 7.65778 20.1276 7.65778C19.8964 7.65778 19.6716 7.85213 19.5817 8.12423C19.5239 8.29915 19.5239 8.48055 19.5817 8.64252C19.6331 8.798 19.7358 8.90814 19.8643 8.95997C19.9156 8.9794 19.967 8.99236 20.0184 8.99236C20.2496 8.99236 20.4744 8.798 20.5643 8.5259C20.6735 8.17606 20.5515 7.8003 20.2817 7.69017Z" fill="#6E7A79"/>
<path d="M20.3909 8.05288C20.3588 8.03993 20.3267 8.03345 20.2946 8.03345C20.1533 8.03345 20.012 8.15654 19.9542 8.32498C19.9157 8.43512 19.9157 8.54525 19.9542 8.64891C19.9863 8.74609 20.0505 8.81735 20.1276 8.84975C20.1597 8.8627 20.1918 8.86918 20.2239 8.86918C20.3652 8.86918 20.5065 8.74609 20.5643 8.57765C20.635 8.35738 20.5579 8.12415 20.3909 8.05288Z" fill="#909D9D"/>
<path d="M23.8975 9.04388C23.8462 8.90135 23.5507 8.72643 23.4287 8.79769L19.2092 11.4021C19.0294 11.5122 18.9652 11.7066 19.0358 11.9204L19.0551 11.9722C19.1064 12.1147 19.3248 12.2054 19.4468 12.1342L23.7434 9.61399C23.9232 9.51033 23.9874 9.3095 23.9168 9.09571L23.8975 9.04388Z" fill="#3A4849"/>
<path d="M23.7498 8.97933C23.6984 8.83681 23.4865 8.75258 23.3644 8.82385L19.1578 11.2922C18.978 11.3958 18.9137 11.5902 18.9908 11.7975L19.0101 11.8429C19.0615 11.9854 19.3055 11.9789 19.4275 11.9076L23.6342 9.43931C23.814 9.33566 23.8461 9.232 23.769 9.02468L23.7498 8.97933Z" fill="#121213"/>
<path d="M23.6085 9.07028C23.5828 9.00549 23.4801 8.96014 23.4223 8.99254L19.2092 11.4544C19.1257 11.5062 19.0936 11.5969 19.1321 11.6941L19.1386 11.72C19.1643 11.7848 19.2799 11.7848 19.3377 11.7524L23.5507 9.29055C23.6342 9.23872 23.6535 9.19337 23.615 9.09619L23.6085 9.07028Z" fill="#575A5B"/>
<path d="M46.0675 64.1575C45.9262 63.7687 45.3225 63.1274 44.8601 63.1338C44.7124 63.1338 44.5839 63.1662 44.4748 63.231L39.6195 66.0881C39.157 66.3602 39.1057 67.1894 39.2983 67.7271L39.3754 67.9409C39.5167 68.3296 40.1718 69.12 40.6406 69.12C40.7883 69.12 40.9168 69.0876 41.0259 69.0229L45.8813 66.1658C46.3437 65.8937 46.3372 64.9154 46.1446 64.3777L46.0675 64.1575Z" fill="#121213"/>
<path d="M44.6097 63.2764L39.7672 66.127C39.2855 66.4121 39.2277 67.2543 39.4268 67.8179C39.6066 68.3168 40.5315 69.1007 40.9553 68.848L45.7978 65.9974C46.2795 65.7124 46.2795 64.7147 46.0804 64.1575C45.907 63.6587 45.04 63.0302 44.6097 63.2764Z" fill="url(#paint1_linear)"/>
<path d="M46.0289 64.1768C46.2152 64.6951 46.2216 65.6475 45.7849 65.9131L40.9296 68.7831L40.9167 68.7896C40.8782 68.809 40.8268 68.822 40.7883 68.822C40.3451 68.822 39.6579 68.2065 39.5102 67.7984C39.324 67.2801 39.3689 66.4767 39.8121 66.2176L42.8177 64.4489L44.6674 63.3476C44.7059 63.3281 44.7509 63.3087 44.8022 63.3087C45.239 63.3087 45.8812 63.7687 46.0289 64.1768Z" fill="url(#paint2_linear)"/>
<path d="M39.8122 66.2113C39.3754 66.4769 39.3305 67.2738 39.5103 67.7921C39.658 68.2002 40.3452 68.8157 40.7884 68.8157C40.8333 68.8157 40.8847 68.8027 40.9168 68.7833L40.9297 68.7768L43.2995 67.3775L42.349 64.7148L39.8122 66.2113Z" fill="#5B6568"/>
<path d="M11.7786 19.4876L13.6282 24.6639L35.734 11.7198L33.8843 6.5434L11.7786 19.4876Z" fill="#1961A0"/>
<path d="M17.6871 28.46L18.3679 30.4036L36.1129 20.0055L35.4321 18.0555L17.6871 28.46Z" fill="#BEBEBE"/>
<path d="M18.9459 31.881L19.6267 33.8246L37.3717 23.4265L36.6909 21.4764L18.9459 31.881Z" fill="#BEBEBE"/>
<path d="M13.2235 20.0575L13.3648 20.4591L15.6319 19.131L15.4842 18.7294L13.2235 20.0575Z" fill="#F0F1F2"/>
<path d="M13.6282 21.1979L13.7759 21.606L16.0366 20.2779L15.8953 19.8698L13.6282 21.1979Z" fill="#F0F1F2"/>
<path d="M14.0392 22.338L14.1805 22.7461L16.4476 21.4116L16.2999 21.0099L14.0392 22.338Z" fill="#F0F1F2"/>
<path d="M39.6965 29.9959C39.2726 28.8039 37.4615 28.0653 36.4532 28.6678L30.3777 32.2375L22.78 36.7013C21.6946 37.3426 21.3029 38.5153 21.7588 39.785L23.9489 45.9267C24.3727 47.1123 26.171 47.8509 27.1922 47.2548L34.6228 42.8818L40.8654 39.2149C41.9508 38.58 42.3425 37.4074 41.893 36.1376L39.6965 29.9959Z" fill="#FFA809"/>
<path d="M26.5757 38.2881C26.3317 38.4371 26.1197 38.6055 25.9527 38.8128C25.7858 39.0201 25.6637 39.2534 25.5867 39.5125C25.5032 39.7716 25.4711 40.0567 25.4775 40.3547C25.4903 40.6657 25.5481 40.9896 25.6573 41.333L25.9206 42.1622C26.0298 42.5056 26.1647 42.7842 26.3188 43.0044C26.4729 43.2247 26.6464 43.3802 26.8326 43.4774C27.0253 43.5746 27.2308 43.6134 27.4556 43.5875C27.6804 43.5616 27.9116 43.4709 28.162 43.3219C28.6437 43.0368 28.9712 42.674 29.1447 42.227C29.3181 41.78 29.3245 41.2747 29.1703 40.6981L28.2584 41.2358C28.3097 41.4107 28.3419 41.5727 28.3483 41.7023C28.3611 41.8318 28.3483 41.942 28.3162 42.0391C28.2841 42.1363 28.2327 42.2205 28.162 42.2918C28.0914 42.3695 27.995 42.4343 27.8859 42.4991C27.7574 42.5769 27.6418 42.6157 27.5455 42.6157C27.4427 42.6222 27.3528 42.5898 27.2693 42.5121C27.1858 42.4408 27.1023 42.3307 27.0317 42.1817C26.961 42.0327 26.8904 41.8448 26.8133 41.6116L26.5436 40.7693C26.4665 40.5296 26.4151 40.3288 26.3895 40.1539C26.3638 39.9725 26.3638 39.817 26.383 39.6874C26.4023 39.5514 26.4473 39.4412 26.5243 39.3441C26.595 39.2469 26.6913 39.1627 26.8133 39.0849C26.9289 39.0137 27.0317 38.9748 27.1216 38.9553C27.2115 38.9359 27.2886 38.9489 27.3592 38.9877C27.4299 39.0331 27.5005 39.1044 27.5583 39.208C27.6226 39.3052 27.6804 39.4477 27.7382 39.6162L28.6501 39.0784C28.4382 38.5407 28.1556 38.1974 27.8088 38.0483C27.4813 37.9317 27.0638 38.003 26.5757 38.2881Z" fill="white"/>
<path d="M30.7759 39.5325L30.6346 37.5371L31.6108 39.0401L30.7759 39.5325ZM30.6346 35.9628L29.8062 36.4551L29.9667 42.1951L30.9236 41.625L30.8466 40.4783L32.0797 39.7462L32.6384 40.6079L33.6082 40.0313L30.6346 35.9628Z" fill="white"/>
<path d="M33.3706 34.3363L32.4651 34.874L34.0257 39.7783L36.524 38.2947L36.2607 37.4719L34.668 38.4178L33.3706 34.3363Z" fill="white"/>
<path d="M36.3891 32.5418L35.4835 33.0795L37.0442 37.9838L39.5425 36.5067L39.2791 35.6839L37.6928 36.6233L36.3891 32.5418Z" fill="white"/>
<path d="M32.6447 47.7148L25.9847 51.6149L28.8042 59.5058L35.477 55.5992L32.709 47.8638C32.6897 47.812 32.6704 47.7601 32.6447 47.7148Z" fill="#BEBEBE"/>
<path d="M43.7041 41.2681L37.0441 45.1682L39.8635 53.0591L46.5363 49.1525L43.7683 41.4171C43.749 41.3653 43.7297 41.32 43.7041 41.2681Z" fill="#BEBEBE"/>
<path d="M51.0127 64.7142L47.0822 67.0336L44.3527 68.6338L36.2284 73.4085C33.9999 74.7236 30.3584 73.9786 29.1189 70.4996L10.1087 17.3106C9.87104 16.6498 9.73617 16.0019 9.70406 15.3735C9.57561 13.2939 10.5325 11.467 12.4207 10.3656L13.2235 9.89267L19.4725 6.2258L27.205 1.67785C28.2775 1.04943 29.7483 1.10126 31.0841 1.60659C29.6262 0.919859 27.9307 0.770852 26.7362 1.47701L12.7611 9.68535L11.9583 10.1583C10.0701 11.2661 9.11962 13.0866 9.24807 15.1727C9.28018 15.8011 9.41505 16.4425 9.65268 17.1033L28.9198 71.0308C29.851 73.6352 33.8008 75.2549 36.0358 73.9397L46.8831 67.5648L50.82 65.252C52.0917 64.5069 52.9266 63.4315 53.3055 62.1746C52.8559 63.1983 52.0981 64.0793 51.0127 64.7142Z" fill="#2A2D2E"/>
<path d="M64.1529 41.8254C64.4419 45.0906 63.5235 48.4595 61.6289 51.1222C62.6501 50.3707 63.1446 49.1203 63.5685 47.9282C64.0501 46.6131 64.5061 45.2526 64.6217 43.8597C64.6281 43.6977 64.641 43.5423 64.641 43.3933L64.2621 41.8773L64.1529 41.8254Z" fill="#E3A87D"/>
<path opacity="0.41" d="M49.3815 53.7073C48.0457 52.1265 44.2051 47.4166 42.2912 45.3629C41.9958 45.0325 41.6683 44.6891 41.315 44.3587C41.1416 44.1838 40.9747 44.0283 40.7884 43.8728C40.3196 43.4647 39.8122 43.0889 39.2984 42.8038C39.1892 42.7391 39.0801 42.6807 38.958 42.616C38.836 42.5706 38.7268 42.5058 38.5984 42.4605C38.5213 42.4475 38.4443 42.4151 38.3672 42.3957C38.2708 42.3503 38.1938 42.3309 38.1039 42.3179C38.0589 42.2856 38.0075 42.2855 37.9818 42.2855C37.8855 42.2532 37.7956 42.2402 37.7185 42.2208C37.5323 42.1884 37.3268 42.1754 37.1405 42.1754C36.9671 42.1754 36.8001 42.1884 36.6267 42.2078C36.5047 42.2208 36.4084 42.2532 36.2863 42.2726C36.2414 42.2856 36.19 42.305 36.145 42.3179C35.9909 42.3633 35.8368 42.4151 35.6762 42.4929C35.49 42.5576 35.3037 42.6484 35.0982 42.7779C34.8991 42.901 34.6807 43.0435 34.4752 43.2185C33.4477 44.0672 33.2935 45.2722 33.6339 46.6391C34.3018 49.3342 36.8965 52.567 38.2066 54.1996C40.1333 56.6485 43.3509 63.451 44.9244 66.036C45.1556 66.4441 45.4703 66.9429 45.8107 67.5131C45.8878 67.6362 45.952 67.7463 46.0291 67.8759C46.1382 68.0637 46.2603 68.2711 46.3887 68.4719L50.6467 65.9647C53.3056 64.4098 54.4231 61.6694 53.6909 58.6115C51.9826 56.5125 50.3963 54.8993 49.3815 53.7073Z" fill="#808080"/>
<path d="M17.1926 48.3302L6.95536 45.2334L5.71584 45.8359C6.76911 46.5421 7.27005 46.7559 7.27005 46.7559C7.27005 46.7559 7.24436 46.7623 7.19941 46.7753C6.86544 46.866 5.53601 47.2612 5.28554 47.9155C4.99011 48.6476 4.69468 50.7078 4.7846 51.5241C4.86809 52.3339 5.42041 53.6361 6.33881 54.2321C7.27005 54.8217 8.72151 55.3335 10.5968 55.4954C12.4657 55.6639 13.6153 55.5861 14.1163 55.8129C14.6237 56.0396 17.6679 56.6616 17.6679 56.6616C17.6679 56.6616 20.4937 57.303 21.6176 55.9489C22.7351 54.5949 24.5783 52.5607 22.4525 50.481C20.3267 48.3885 17.1926 48.3302 17.1926 48.3302Z" fill="#F0BB94"/>
<path d="M18.2459 48.6476C18.2652 48.6217 18.278 48.5958 18.2973 48.5699C18.1624 48.5699 18.034 48.5699 17.9248 48.5375C18.034 48.5699 18.1367 48.6152 18.2459 48.6476Z" fill="#E8AD82"/>
<path d="M20.8726 49.2825C20.2111 49.0428 19.5303 48.7642 18.8367 48.6152C18.6698 48.5763 18.4771 48.5763 18.2973 48.5763C18.278 48.6023 18.2651 48.6282 18.2459 48.6541C18.5606 48.7577 18.8688 48.8808 19.1579 49.0428C19.9799 49.5092 21.1552 49.6518 21.6497 50.5782C21.9837 51.2002 22.3048 52.0424 22.2342 52.7744C22.1764 53.3705 21.5984 54.122 21.2002 54.5496C20.9625 54.8087 20.6478 54.8994 20.346 55.0743C19.5882 55.5084 18.8624 55.4501 18.0275 55.3464C16.1393 55.1067 14.2447 54.867 12.3566 54.6273C11.117 54.4718 9.87753 54.2775 8.63802 54.0831C8.11138 53.9989 7.4563 54.0313 7.00673 53.7203C6.13329 53.1243 3.77628 49.1724 6.33239 49.5416C8.83069 49.9044 11.3611 50.4486 13.8466 50.941C14.3282 51.0382 14.8163 51.1354 15.298 51.0576C16.3834 50.8892 16.6018 49.8137 17.3853 49.2501C17.6679 49.0493 18.0275 48.9003 18.233 48.6476C18.1239 48.6152 18.0211 48.5699 17.9119 48.5439C18.0211 48.5699 18.156 48.5699 18.2844 48.5763C18.3037 48.5439 18.3358 48.5116 18.3551 48.4727C17.655 48.3431 17.1862 48.3302 17.1862 48.3302L6.94893 45.2334L5.71584 45.8359C6.76911 46.5421 7.27005 46.7559 7.27005 46.7559C7.27005 46.7559 7.24436 46.7623 7.19941 46.7753C6.86544 46.866 5.53601 47.2612 5.28554 47.9155C4.99011 48.6476 4.69468 50.7078 4.7846 51.5241C4.86809 52.3339 5.42041 53.6361 6.33881 54.2321C7.27005 54.8217 8.72151 55.3335 10.5968 55.4954C12.4657 55.6639 13.6153 55.5861 14.1163 55.8129C14.6237 56.0396 17.6679 56.6616 17.6679 56.6616C17.6679 56.6616 20.4937 57.303 21.6176 55.9489C22.7351 54.5949 24.5783 52.5607 22.4525 50.481C22.003 50.0405 21.4571 49.4963 20.8726 49.2825Z" fill="#E8AD82"/>
<path d="M18.9074 42.6875C18.2973 41.8906 16.9679 40.7892 15.632 40.3228C14.0136 39.7527 13.0438 38.5153 11.7144 38.6319C10.3914 38.742 12.6713 36.7272 12.6713 36.7272L10.9501 36.5199L3.99468 35.6906L2.7937 37.6471C3.27538 37.686 3.95615 37.6731 4.43783 37.6925C5.16355 37.7314 5.16355 37.7314 5.16355 37.7314C5.16355 37.7314 4.21304 37.8415 4.09744 38.2367C3.98826 38.6319 2.98637 41.9748 3.12124 42.5449C3.26253 43.115 3.79559 44.5015 5.18924 45.4862C6.59574 46.4709 7.26367 46.756 7.26367 46.756C7.26367 46.756 9.26102 47.0735 11.7015 47.8768C14.1549 48.6866 16.5697 49.8009 17.9119 47.8768C19.2542 45.9656 19.5432 43.8795 19.2028 43.1474C19.145 43.0114 19.0487 42.8559 18.9074 42.6875Z" fill="#F2BD96"/>
<path d="M18.9074 42.6875C18.2973 41.8906 16.9679 40.7893 15.632 40.3228C14.0136 39.7527 13.0438 38.5153 11.7144 38.6319C10.3914 38.742 12.6713 36.7272 12.6713 36.7272L10.9501 36.5199L10.5905 36.4745C10.173 37.3362 9.89045 38.3339 9.56933 39.202C9.47299 39.4676 9.37024 39.7657 9.46015 40.0378C9.57575 40.3811 9.94183 40.556 10.2758 40.6921C11.3419 41.1326 12.4144 41.5732 13.5448 41.7999C14.8036 42.0526 16.2743 42.1109 17.0707 43.128C17.4817 43.6528 17.623 44.346 17.7514 45.0068C17.8349 45.4344 17.9184 45.862 17.9955 46.2831C18.4643 45.5705 18.8561 44.8125 19.1708 44.0221C19.2221 43.8925 19.2671 43.7565 19.3121 43.6204C19.2928 43.4325 19.2607 43.2641 19.2029 43.1475C19.1451 43.0114 19.0487 42.8559 18.9074 42.6875Z" fill="#59361C"/>
<path d="M18.9074 42.6875C18.9074 42.6939 18.9074 42.6939 18.9074 42.7069C18.8817 44.0609 17.8156 48.0258 15.8761 47.5917C14.5145 47.2872 13.0952 47.3391 11.7144 47.1058C9.2546 46.6783 7.04531 45.3437 4.89381 44.048C4.71399 43.9313 4.51489 43.8147 4.4314 43.6139C4.36076 43.4584 4.36718 43.2705 4.38645 43.1086C4.51489 42.1109 5.13786 41.2622 5.88928 40.6208C6.6407 39.9794 7.52056 39.513 8.34905 38.9688C9.30598 38.3468 10.4813 37.6601 10.9437 36.5199L3.99468 35.6906L2.7937 37.6471C3.27538 37.686 3.95615 37.6731 4.43783 37.6925C5.16355 37.7314 5.16355 37.7314 5.16355 37.7314C5.16355 37.7314 4.21304 37.8415 4.09744 38.2367C3.98826 38.6319 2.98637 41.9748 3.12124 42.5449C3.26253 43.115 3.79559 44.5015 5.18924 45.4862C6.59574 46.4709 7.26367 46.756 7.26367 46.756C7.26367 46.756 9.26102 47.0735 11.7015 47.8768C14.1549 48.6866 16.5697 49.8009 17.9119 47.8768C19.2542 45.9656 19.5432 43.8795 19.2028 43.1474C19.145 43.0114 19.0487 42.8559 18.9074 42.6875Z" fill="#EDB48A"/>
<path d="M9.20326 27.5988C8.70874 27.2748 8.1821 27.0157 7.66832 26.8278C7.31509 26.7047 7.27013 26.776 6.89121 26.9898C6.57651 27.1647 6.26824 27.3461 5.95354 27.521C5.26635 27.9227 4.58558 28.3373 3.91123 28.7519C3.269 29.1471 2.0937 30.8639 1.33586 31.46C0.584448 32.0495 0.160572 33.1185 0.0770808 33.2934C0.0128571 33.4295 -0.0834783 33.9542 0.160572 34.6993C0.224795 34.8871 0.301864 35.1074 0.417466 35.3212C0.96979 36.3966 1.98452 37.4073 2.26068 37.5498C2.54969 37.6859 3.71856 37.66 4.44429 37.6859C5.17002 37.7247 5.17002 37.7247 5.17002 37.7247C5.17002 37.7247 7.46922 37.5563 9.37024 36.9732C10.3272 36.6817 10.9373 36.0727 11.2327 35.075C11.2456 35.0297 11.2584 34.9908 11.2713 34.9454C11.4061 34.4207 11.4061 33.9153 11.4382 33.3776C11.4832 32.4901 11.5217 31.5053 11.3933 30.6242C11.2006 29.3609 10.2886 28.3179 9.20326 27.5988Z" fill="#F7C199"/>
<path d="M9.2032 27.5987C8.72794 27.2812 8.21415 27.0286 7.71321 26.8472C6.51865 27.7736 5.43327 28.8426 4.4956 30.0346C4.05246 30.5918 3.62858 31.2137 3.57078 31.9264C3.51298 32.639 3.96255 33.4359 4.66901 33.5071C5.11215 33.5525 5.52318 33.3128 5.92137 33.1055C7.45631 32.3021 9.17751 31.8616 10.9115 31.8357C11.0914 31.8357 11.284 31.8292 11.4574 31.7968C11.451 31.4016 11.4318 31.0129 11.374 30.6371C11.2006 29.3609 10.2886 28.3178 9.2032 27.5987Z" fill="#59361C"/>
<path d="M9.22248 34.7965C8.90778 34.7771 8.58667 34.7577 8.28481 34.8613C7.93801 34.9715 7.649 35.2112 7.35357 35.4314C5.2085 36.9474 1.97805 36.617 0.160522 34.7123C0.224746 34.9002 0.301814 35.1205 0.417417 35.3343C0.96974 36.4097 1.98447 37.4204 2.26064 37.5629C2.54964 37.6989 3.71851 37.673 4.44424 37.6989C5.16997 37.7378 5.16997 37.7378 5.16997 37.7378C5.16997 37.7378 5.2085 37.7378 5.27272 37.7313C5.67091 37.6989 7.15448 37.5499 8.61235 37.1936C8.61878 37.1936 8.63162 37.1871 8.63804 37.1871C8.88209 37.1288 9.12614 37.064 9.36377 36.9863C10.9629 36.5004 11.4896 35.1464 11.3226 33.611C10.9116 34.5439 10.1601 34.8743 9.22248 34.7965Z" fill="#EDB48A"/>
<path d="M26.4216 58.5466C25.606 58.0348 24.4435 57.9247 23.6022 57.9117C22.3627 57.8988 21.0461 58.2421 19.8451 57.7627C19.5753 57.6526 19.3249 57.5101 19.0616 57.374C18.5542 57.1149 17.867 56.7326 17.2954 56.7197C16.878 56.7132 16.3963 56.8687 15.9852 56.9399C15.1503 57.0825 14.2384 57.1732 13.442 57.4712C12.7676 57.7239 11.5474 58.3458 11.0978 59.2787C11.0079 59.4601 10.9437 59.6933 10.8987 59.959C10.7574 60.7688 10.8024 61.8637 10.8923 62.5504C10.918 62.7771 10.9437 62.9585 10.9822 63.0622C11.1492 63.6193 12.4658 64.7531 13.8916 65.0317C15.3237 65.3232 15.9339 65.401 17.1156 65.2649C18.2909 65.1224 19.19 65.1677 20.6029 65.2455C22.0159 65.3297 23.4159 64.792 24.1738 64.9993C24.1738 64.9993 26.7042 64.5199 27.7061 62.4338C28.0978 61.624 28.1685 60.9631 28.04 60.4189C27.8474 59.5767 27.1537 59.0066 26.4216 58.5466Z" fill="#EDB992"/>
<path d="M23.7178 64.2547C22.9278 64.462 22.1058 64.4426 21.2901 64.3907C20.1084 64.3195 18.9267 64.0862 17.7578 64.0927C16.6917 64.0927 15.7733 64.0214 14.7329 63.7105C13.5897 63.3736 12.1704 63.7753 11.2327 63.0173C11.0786 62.8877 10.9758 62.7387 10.8923 62.5573C10.918 62.7711 10.9437 62.9525 10.9822 63.0626C11.1492 63.6198 12.4658 64.7535 13.8916 65.0321C15.3238 65.3236 15.9339 65.4014 17.1156 65.2653C18.2909 65.1228 19.19 65.1682 20.603 65.2459C22.0159 65.3301 23.4159 64.7924 24.1738 64.9997C24.1738 64.9997 26.7042 64.5203 27.7061 62.4342C28.0979 61.6244 28.1685 60.9636 28.0401 60.4194C26.9033 62.052 25.6188 63.7494 23.7178 64.2547Z" fill="#E0A175"/>
<path d="M26.9482 58.7994C26.4793 58.4366 25.8756 58.3005 25.2976 58.1904C24.7132 58.0738 24.0902 57.873 23.4994 57.8211C23.0113 57.7823 22.5103 57.8665 22.0094 57.8406C21.4314 57.8082 20.8533 57.7175 20.3074 57.5361C19.7615 57.3547 19.2542 56.8623 18.6826 56.8623C18.233 56.8623 17.9312 56.6615 17.5266 56.6744C17.122 56.6874 16.6981 56.8105 16.2999 56.8753C15.3686 57.0372 14.3346 57.1279 13.4419 57.4583C12.7676 57.711 11.5473 58.3329 11.0978 59.2659C11.0079 59.4473 10.9436 59.6805 10.8987 59.9461C10.995 59.6222 11.1427 59.3306 11.3804 59.0974C11.6373 58.8447 11.9776 58.7476 12.2345 58.5079C12.5878 58.1839 12.9089 58.0479 13.3906 57.9701C13.8594 57.8924 14.3282 57.8211 14.7906 57.7434C15.7733 57.5814 16.7751 57.4259 17.7513 57.6203C18.5863 57.7823 19.3312 58.3135 20.1533 58.4496C21.1167 58.6115 22.2213 58.4042 23.2039 58.3524C23.6663 58.3329 24.1288 58.307 24.5783 58.3977C25.0279 58.4884 25.4775 58.6957 25.7536 59.065C26.1004 59.5185 26.1518 60.121 26.1903 60.6911C26.2224 61.1317 26.2802 61.5593 26.1903 61.9868C26.094 62.4403 25.9912 62.855 25.7472 63.2631C26.2096 62.8679 26.672 62.4792 27.1344 62.084C27.6097 61.6824 28.0207 61.0799 27.9822 60.419C27.9565 59.7647 27.4555 59.1946 26.9482 58.7994Z" fill="#E8AD82"/>
<path d="M14.5851 44.0089C14.6943 43.0695 15.2788 42.6548 14.5851 42.318C13.8915 41.9811 12.0098 42.6548 12.0098 42.6548C8.90135 45.1944 12.1639 46.8076 13.4612 47.2417C14.765 47.6757 15.4265 47.7923 15.176 47.2417C14.9255 46.6845 14.476 44.9483 14.5851 44.0089Z" fill="#FCDCC2"/>
<path d="M15.9275 51.6405C15.2595 52.7678 15.1439 54.1218 16.5248 54.802C17.9056 55.4758 19.6203 56.1172 18.5028 54.9899C17.3854 53.8626 18.5414 50.8501 19.0231 50.4355C19.0231 50.4355 16.5954 50.5132 15.9275 51.6405Z" fill="#FCDCC2"/>
<path d="M24.3535 59.389C20.1019 59.6546 20.1019 62.6995 22.1185 63.2632C24.1352 63.8268 24.6939 63.4122 24.6939 63.4122C24.6939 63.4122 24.4306 62.4728 24.1737 61.5658C23.9104 60.6717 24.3535 59.389 24.3535 59.389Z" fill="#FCDCC2"/>
<path d="M98.2429 135.583C94.017 124.635 87.7552 108.529 86.1817 105.069C84.7881 102.005 84.1651 99.3811 83.7605 96.7573C83.4651 94.8008 83.2852 92.8507 83.0027 90.7323C82.3347 85.7438 81.1402 82.4786 79.2392 78.3517C77.3381 74.2249 76.0793 73.2725 75.2316 71.6335C74.3838 69.9814 73.5297 68.3423 72.8104 67.3706C72.0911 66.3988 69.8882 62.6347 69.8882 62.6347C69.8882 62.6347 69.3937 59.1493 69.1239 57.3612C69.0147 56.6097 68.6936 56.2598 68.3725 56.0979C68.1092 55.9748 67.8459 55.9683 67.6725 55.9877C67.5761 56.0007 67.5183 56.0136 67.4862 56.0266L67.467 56.0331C67.467 56.0331 67.1202 55.9942 66.5807 56.1043C66.0219 56.2145 65.2641 56.4931 64.4806 57.1474C64.442 57.1733 64.4035 57.2122 64.365 57.2575C64.3264 57.2964 64.2879 57.3418 64.2558 57.3871C64.1466 57.5232 64.0438 57.7045 63.9539 57.9054C63.8704 58.1062 63.7869 58.333 63.7163 58.5662C63.6328 58.8513 63.5557 59.1622 63.4979 59.4862C63.4787 59.5833 63.4658 59.687 63.4466 59.7842C63.3823 60.1794 63.3245 60.5875 63.286 60.9957C63.2475 61.4038 63.2154 61.8184 63.1961 62.2071L63.1897 62.259C63.1832 62.4469 63.1704 62.6347 63.164 62.8161C63.1511 63.1141 63.1447 63.3992 63.1383 63.6519C63.1319 63.7685 63.1383 63.8721 63.1319 63.9693C63.1319 63.9693 63.1319 63.9693 63.1319 63.9758C63.1319 63.9823 63.1319 63.9952 63.1383 64.0017C63.1383 64.0859 63.1383 64.1702 63.1319 64.2479C63.1319 64.2738 63.1254 64.2868 63.1319 64.3127C63.1319 64.3775 63.1319 64.4423 63.1254 64.4876C63.1254 64.6042 63.1319 64.7144 63.1319 64.7986C63.1319 64.8245 63.1319 64.8504 63.1319 64.8634C63.1383 64.8958 63.1319 64.9281 63.1383 64.9541C63.1383 65.0448 63.1383 65.0901 63.1383 65.0901C62.8236 64.8051 62.5089 64.3904 62.1942 63.8916C62.1878 63.8851 62.1814 63.8721 62.1814 63.8657C61.6611 63.0429 61.1409 61.9804 60.6207 60.8337C60.5051 60.594 60.4024 60.3543 60.2932 60.1146C60.1776 59.8749 60.0748 59.6352 59.9721 59.3825C59.8436 59.0974 59.7216 58.8124 59.5867 58.5273C59.4711 58.2876 59.3684 58.035 59.2528 57.7952C58.9573 57.1344 58.6555 56.4931 58.3472 55.9035C58.2059 55.6249 58.0582 55.3528 57.9105 55.0872C56.1058 51.8415 54.1791 49.412 53.113 47.8118C52.0469 46.2116 49.0155 41.4628 47.4934 39.3508C47.2494 39.0204 46.9796 38.6641 46.697 38.3207C46.5557 38.1523 46.408 37.9838 46.2539 37.8154C45.8685 37.3878 45.4511 36.9926 45.0015 36.6751C44.9116 36.6039 44.8089 36.5326 44.7061 36.4743C44.7061 36.4743 44.7061 36.4743 44.6997 36.4743C44.5969 36.4095 44.4942 36.3512 44.3978 36.2929C44.3272 36.2605 44.263 36.2281 44.1923 36.2022C44.1152 36.1569 44.0318 36.1309 43.9547 36.0985C43.9162 36.0791 43.8776 36.0662 43.8455 36.0597C43.7684 36.0273 43.6849 36.0014 43.6015 35.9819C43.2868 35.8848 42.9592 35.8394 42.6124 35.8459C42.606 35.8459 42.606 35.8459 42.606 35.8459C42.4968 35.8524 42.394 35.8524 42.2849 35.8653C42.2399 35.8783 42.2014 35.8783 42.1564 35.8848C42.0023 35.9171 41.8546 35.9495 41.7069 35.9884C41.5206 36.0338 41.3344 36.105 41.1417 36.1892C40.9362 36.2799 40.7242 36.3901 40.5187 36.5261C39.4783 37.1869 39.215 38.2883 39.3755 39.5711C39.7031 42.1366 41.7454 45.3888 42.7665 47.0344C44.2822 49.4962 46.4979 56.1108 47.6604 58.6634C47.8402 59.0651 48.0714 59.5639 48.3219 60.1211C48.3733 60.2377 48.4311 60.3543 48.4825 60.4709C48.5852 60.7106 48.7008 60.9503 48.8164 61.203C48.8742 61.3261 48.932 61.4492 48.9898 61.5852C49.0476 61.7083 49.1118 61.8379 49.1632 61.9674C49.221 62.0905 49.2852 62.2266 49.3431 62.3562C50.5954 65.1031 51.9377 68.0508 51.9377 68.0508C51.9377 68.0508 50.3963 66.645 49.6963 66.3923C49.6963 66.3923 49.6963 66.3923 49.6963 66.3858C49.6706 66.3729 49.6577 66.3729 49.6321 66.3599C49.6064 66.347 49.5871 66.3405 49.5678 66.334C49.3559 66.2886 48.8935 66.1915 48.3026 66.1461C48.1613 66.1267 48.0136 66.1202 47.8531 66.1072C47.821 66.1137 47.7888 66.1072 47.7439 66.1008C47.4549 66.0943 47.153 66.0943 46.8319 66.1267C46.7677 66.1267 46.6906 66.1332 46.6135 66.1526C46.5301 66.1591 46.4337 66.172 46.3502 66.1915C46.1961 66.2174 46.042 66.2498 45.8878 66.2886C45.374 66.4117 44.8667 66.6191 44.4171 66.9559C44.1345 67.1632 43.8905 67.3835 43.6657 67.6038C42.4454 68.8218 42.0087 70.26 42.0023 71.329C42.0023 71.4909 42.0216 71.6853 42.0537 71.9056C42.0729 72.0286 42.0922 72.1453 42.1179 72.2684C42.2528 72.968 42.484 73.8167 42.7087 74.5812C42.7537 74.7237 42.7922 74.8533 42.8308 74.9829C43.0363 75.6502 43.2097 76.1814 43.2739 76.3822C43.2868 76.4146 43.2996 76.447 43.2996 76.46C43.306 76.4665 43.306 76.4665 43.306 76.4665C43.306 76.4665 42.7601 76.5183 42.1115 76.6349C41.5784 76.7386 41.0004 76.8811 40.5958 77.0884C40.0242 77.3799 39.382 78.2481 38.8618 79.4596C38.5727 80.1333 38.3159 80.9043 38.136 81.7465C38.0975 81.9344 38.0718 82.1352 38.0654 82.3425C38.059 82.4073 38.059 82.4786 38.0654 82.5434C38.0654 82.6017 38.0654 82.6729 38.0782 82.7377C38.0782 82.8543 38.0975 82.9774 38.1103 83.094C38.1296 83.2171 38.1489 83.3337 38.1681 83.4568C38.1746 83.4633 38.1746 83.4763 38.1746 83.4827C38.2259 83.7354 38.2902 83.9881 38.3544 84.2148C38.4507 84.5323 38.5599 84.8109 38.6498 85.0506C38.6948 85.1542 38.7333 85.2514 38.7654 85.3356C38.8489 85.5365 38.9196 85.6725 38.9452 85.7178C38.9517 85.7243 38.9517 85.7373 38.9517 85.7373C38.9517 85.7373 38.9517 85.7373 38.6948 85.8669C38.5727 85.9252 38.3865 86.0223 38.1039 86.1584C38.0525 86.1843 37.9883 86.2102 37.9241 86.2491C36.8901 86.7544 35.7983 89.5078 35.5735 90.2204C35.3873 90.8294 35.3423 94.127 35.6441 96.8027C35.6891 97.2303 35.7469 97.6384 35.8111 98.0271C35.9396 98.824 36.0937 99.433 36.3699 99.9966C37.0378 101.415 38.4379 102.517 42.0922 105.503C47.2044 109.676 57.204 120.171 62.4254 128.645C64.8081 132.525 67.133 139.095 68.9505 145.081C69.2395 146.007 69.5093 146.934 69.7662 147.821C69.9845 148.184 70.2414 148.534 70.5433 148.864C71.9755 150.452 74.2169 151.443 76.85 151.819C80.2089 152.305 84.2229 151.799 88.0442 150.283C88.9433 149.933 89.8361 149.519 90.7095 149.052C91.8527 148.437 92.8867 147.763 93.8115 147.05C96.3548 145.081 98.0374 142.781 98.6925 140.552C99.0393 139.38 99.0971 138.227 98.8531 137.145C98.654 136.646 98.4613 136.115 98.2429 135.583Z" fill="#F1BC95"/>
<path d="M63.954 57.9053C62.9906 60.0691 63.1512 65.103 63.1512 65.103C61.4492 63.5417 59.7409 58.3458 57.9234 55.0936C56.1187 51.8479 54.192 49.4184 53.1258 47.8182C52.0597 46.218 49.0284 41.4692 47.5063 39.3572C46.3374 37.7505 44.7126 35.8005 42.6253 35.8458C42.6189 35.8458 42.6189 35.8458 42.6189 35.8458C42.5739 35.8134 42.5482 35.8069 42.5482 35.8069C41.9509 35.347 40.538 35.1526 39.6646 35.9689C38.8682 36.7139 38.3287 37.757 39.3884 39.5839C39.716 42.1494 41.7583 45.4017 42.7794 47.0472C44.2951 49.5091 46.5108 56.1237 47.6733 58.6763C47.8531 59.0779 48.0843 59.5768 48.3348 60.1339C48.3861 60.2505 48.4439 60.3672 48.4953 60.4838C48.5981 60.7235 48.7137 60.9632 48.8293 61.2158C48.8871 61.3389 48.9449 61.462 49.0027 61.5981C49.0605 61.7212 49.1247 61.8507 49.1761 61.9803C49.2339 62.1034 49.2981 62.2395 49.3559 62.369C50.6083 65.1159 51.9506 68.0637 51.9506 68.0637C51.9506 68.0637 50.2037 66.4635 49.5807 66.3469C49.3688 66.3015 48.9064 66.2043 48.3155 66.159L53.0424 72.4173C53.0424 72.4173 57.3389 74.1276 59.0473 78.5266C60.762 82.919 82.9128 91.8076 79.4961 84.2342C78.0639 81.0532 68.6744 66.6967 63.954 57.9053Z" fill="#F2BF9A"/>
<path d="M69.034 71.5104C68.6744 70.9144 68.2634 70.3896 67.8459 69.8325C66.7413 68.2258 65.6174 66.6256 64.4677 65.0578C64.031 64.4618 63.5879 63.8722 63.1512 63.2762C63.1255 64.3387 63.1447 65.1096 63.1447 65.1096C61.4428 63.5483 59.7345 58.3525 57.9169 55.1002C56.1123 51.8545 54.1855 49.425 53.1194 47.8248C52.0533 46.2246 49.022 41.4758 47.4999 39.3638C46.5237 38.0227 45.2263 36.442 43.6079 35.982C43.6657 37.4332 44.8988 39.7266 45.252 40.5364C45.7787 41.7674 46.3117 42.9983 46.8384 44.2292C47.2109 45.1038 47.5898 45.9784 48.11 46.7753C48.9513 48.058 50.133 49.0687 51.1478 50.2154C54.269 53.7138 55.7911 58.2618 57.5637 62.5311C58.0133 63.6066 58.4564 64.7079 59.0023 65.738C59.4712 66.6321 60.3125 67.2994 60.9611 68.0833C62.5924 70.0592 64.2558 72.0093 66.0798 73.8038C67.133 74.8404 68.334 76.2009 69.7534 76.7127C69.9011 76.7645 70.0616 76.8034 70.2093 76.7645C70.4149 76.7062 70.5562 76.4989 70.6268 76.2981C70.9608 75.3587 70.3635 74.4971 69.9332 73.7131C69.5478 72.9875 69.4579 72.2101 69.034 71.5104Z" fill="#F0BA92"/>
<path d="M71.8727 140.144C71.6801 139.742 71.5002 139.334 71.3525 138.913C70.3763 136.296 70.0038 133.329 67.9037 131.301C66.2146 129.668 64.365 129.292 63.1833 127.2C62.5988 126.163 61.9373 125.166 61.43 124.084C60.9547 123.073 60.3446 122.393 59.6253 121.525C58.0004 119.529 56.3499 117.547 54.6993 115.564C53.903 114.612 52.8818 113.919 52.124 112.921C51.4047 111.988 50.8716 110.919 50.1009 110.019C48.855 108.555 47.6091 107.421 45.9778 106.378C44.3401 105.328 42.651 104.337 41.116 103.145C40.0242 102.296 38.9967 101.35 37.7893 100.677C37.4425 100.476 37.0764 100.262 36.7039 100.106C36.5947 100.061 36.4791 100.029 36.3763 100.003C37.0443 101.422 38.4443 102.523 42.0987 105.51C47.2109 109.682 57.2105 120.177 62.4319 128.651C64.8146 132.532 67.1395 139.101 68.957 145.087C69.246 146.014 69.5157 146.94 69.7726 147.828C69.991 148.19 70.2479 148.54 70.5497 148.871C71.9819 150.458 74.2233 151.449 76.8565 151.825C76.728 151.449 76.5932 151.08 76.4519 150.704C75.1032 147.108 73.5811 143.584 71.8727 140.144Z" fill="#E3A77D"/>
<path d="M49.5807 66.3343C49.3688 66.2889 48.9063 66.1917 48.3155 66.1464C47.7118 66.0881 46.9861 66.0816 46.2539 66.2177C46.4723 66.2241 46.6842 66.2371 46.8769 66.2565C47.4613 66.3019 47.9301 66.3991 48.1421 66.4444C48.7651 66.561 50.5119 68.1612 50.5119 68.1612C50.5119 68.1612 50.1844 67.4421 49.7027 66.3861C49.6642 66.3731 49.6192 66.3407 49.5807 66.3343Z" fill="#E3A77D"/>
<path d="M63.4594 66.1202C62.4704 64.371 61.4685 62.6736 60.6272 60.8467C59.7409 58.9225 58.9509 56.9466 57.9169 55.1002C56.1122 51.8544 54.1855 49.425 53.1194 47.8248C52.0533 46.2246 49.022 41.4758 47.4999 39.3638C46.331 37.7571 44.7061 35.807 42.6124 35.8459C42.3234 35.8459 42.028 35.9042 41.7197 35.9949C43.5501 36.2541 44.9951 38.0097 46.0612 39.4739C47.5833 41.5859 50.6147 46.3347 51.6808 47.9349C52.7469 49.5351 54.6736 51.9646 56.4783 55.2103C58.2188 58.333 59.3555 61.7278 61.263 64.7662C62.4254 66.6191 63.954 68.2905 65.3155 70.0203C66.722 71.8084 68.0707 73.6418 69.49 75.417C68.0707 73.6418 67.4028 71.3679 66.0733 69.515C65.2513 68.3489 64.1659 67.3641 63.4594 66.1202Z" fill="#E3A77D"/>
<path d="M38.9645 85.7436C38.9645 85.7436 38.7141 84.3831 38.181 83.4696C38.4187 84.6746 38.9645 85.7436 38.9645 85.7436Z" fill="#F1BC95"/>
<path d="M38.7076 85.8732C38.5856 85.9315 38.3993 86.0287 38.1167 86.1648C38.0654 86.1907 38.0011 86.2166 37.9369 86.2555C36.9029 86.7608 35.8111 89.5142 35.5863 90.2268C35.4001 90.8358 35.3551 94.1334 35.657 96.809C35.7661 96.5693 35.8817 96.2972 35.9973 95.9927C36.0102 95.8826 36.3249 93.4078 38.6434 93.2134C38.6434 93.2134 39.7544 93.3365 40.5315 93.4402C41.2958 93.5374 41.2958 93.5374 41.2958 93.5374L38.9709 85.7501C38.9645 85.7437 38.9645 85.7437 38.7076 85.8732Z" fill="#EDB992"/>
<path d="M42.1179 76.648C41.5849 76.7516 41.0069 76.8942 40.6023 77.1015C40.0307 77.393 39.3884 78.2611 38.8682 79.4726C38.5792 80.1464 38.3223 80.9173 38.1425 81.7596C37.77 83.4181 38.9581 85.7504 38.9581 85.7504C38.9581 85.7504 38.9581 85.7504 38.7012 85.8799L39.3049 86.91C39.3049 86.91 39.3884 87.1886 40.8656 84.7138C42.3427 82.239 43.5951 82.6083 43.5951 82.6083L44.5905 81.792L44.7768 80.1788L43.3061 76.486C43.3125 76.4795 42.7666 76.5314 42.1179 76.648Z" fill="#EDB992"/>
<path d="M49.5807 66.3339C49.1183 66.2432 47.4613 65.8933 45.9071 66.2885C45.3933 66.4116 44.886 66.6189 44.4364 66.9558C44.1538 67.1631 43.9098 67.3834 43.685 67.6037C42.4647 68.8217 42.028 70.2599 42.0216 71.3289C42.0023 72.5468 43.2418 76.2331 43.3125 76.4599L43.3189 76.4664L44.6355 79.7704C44.6355 79.7704 46.9218 75.1771 49.6706 74.309C52.4194 73.4409 52.8304 71.737 52.8304 71.737L51.9634 68.0377C51.9506 68.0507 50.2037 66.4505 49.5807 66.3339Z" fill="#EDB992"/>
<path d="M79.2456 78.3451C77.3446 74.2182 76.0858 73.2659 75.2381 71.6268C74.3903 69.9748 73.5361 68.3357 72.8168 67.3639C72.0975 66.3921 69.8947 62.6281 69.8947 62.6281C69.8947 62.6281 69.4001 59.1426 69.1304 57.3545C68.8671 55.6895 67.6468 55.9811 67.4927 56.0199L67.4734 56.0264C67.4734 56.0264 66.0348 55.8515 64.487 57.1407C62.9521 58.43 63.1576 65.1029 63.1576 65.1029C63.1576 65.1029 66.7862 71.4972 68.379 73.1881C69.9653 74.879 74.0114 77.315 74.583 78.358C75.161 79.4011 76.24 81.4548 76.362 83.9425C76.484 86.4303 78.6098 93.2458 82.0586 95.8566C82.6045 96.2648 83.1825 96.5693 83.7734 96.7507C83.478 94.7941 83.2981 92.8441 83.0156 90.7256C82.3412 85.7436 81.1467 82.4719 79.2456 78.3451Z" fill="#EDB992"/>
<path d="M67.4798 56.02L67.4605 56.0265C67.4605 56.0265 66.0219 55.8515 64.4741 57.1408C62.9392 58.43 63.1447 65.1029 63.1447 65.1029C63.1447 65.1029 63.8511 66.3533 64.7824 67.8887C64.153 65.2001 64.4805 62.5309 64.9429 59.6156C65.0393 59.0131 65.1356 58.4041 65.4053 57.8599C65.9577 56.7391 67.4284 56.6419 68.3661 56.0977C67.9743 55.9034 67.5697 56.0005 67.4798 56.02Z" fill="#E3A87D"/>
<path d="M52.5864 67.053C51.8414 65.6601 51.1028 64.2543 50.3578 62.8614C49.3046 60.8854 48.2449 58.8965 47.4357 56.8039C46.4595 54.2449 45.8686 51.5239 44.5777 49.1009C43.6465 47.3582 42.3748 45.8163 41.3986 44.0865C40.827 43.0694 40.3582 41.9356 40.1655 40.776C40.0307 39.9856 40.0371 39.1887 40.2169 38.3983C40.4032 37.6209 40.75 36.8953 41.1546 36.1956C40.9491 36.2863 40.7371 36.3965 40.5316 36.5325C39.4912 37.1933 39.2279 38.2947 39.3884 39.5774C39.716 42.1429 41.7583 45.3952 42.7794 47.0407C44.2951 49.5026 46.5108 56.1172 47.6733 58.6698C47.8531 59.0714 48.0843 59.5703 48.3348 60.1274C48.3862 60.244 48.444 60.3607 48.4953 60.4773C48.5981 60.717 48.7137 60.9567 48.8293 61.2094C48.8871 61.3324 48.9449 61.4555 49.0027 61.5916C49.0605 61.7147 49.1247 61.8443 49.1761 61.9738C49.2339 62.0969 49.2981 62.233 49.3559 62.3625C50.6083 65.1094 51.9506 68.0572 51.9506 68.0572C51.9506 68.0572 50.2037 66.457 49.5807 66.3404C49.3688 66.295 48.9064 66.1978 48.3155 66.1525C47.6155 66.0877 46.7485 66.0748 45.9007 66.295C46.3695 66.4959 46.8512 66.6708 47.3136 66.9105C48.2641 67.3964 49.1247 68.3422 49.8248 69.1326C50.5377 69.9425 51.1992 70.8041 51.8093 71.6852C52.1304 72.1387 52.6827 72.7995 53.036 72.4108C53.1323 72.3136 53.2094 72.1387 53.2672 71.8731C53.4277 71.141 53.4085 70.4478 53.28 69.7157C53.1323 68.8735 52.991 67.8045 52.5864 67.053Z" fill="#E3A87D"/>
<path d="M42.6316 35.8458C42.6252 35.8458 42.6252 35.8458 42.6252 35.8458C42.5803 35.8134 42.5546 35.8069 42.5546 35.8069C41.9573 35.347 40.5444 35.1526 39.6709 35.9689C38.8745 36.7139 38.3351 37.757 39.3948 39.5839C39.4783 39.7459 39.581 39.9079 39.703 40.0828C39.8829 40.3484 40.037 40.5752 40.1719 40.776C41.1802 42.2337 41.315 42.2207 43.184 41.2878C45.3226 40.2188 44.7253 39.3054 44.2629 37.9125C43.8711 36.7269 42.9078 36.0337 42.6316 35.8458Z" fill="#FCDCC2"/>
<path d="M44.9437 75.0021C44.1923 74.2311 43.7684 73.1881 43.5821 72.1191C43.4537 71.387 43.3638 70.6355 43.3959 69.8905C43.4152 69.2167 43.7298 68.517 43.7106 67.8627C43.7042 67.772 43.6977 67.6813 43.6913 67.61C42.4711 68.828 42.0343 70.2663 42.0279 71.3352C42.0151 72.5985 43.3252 76.4792 43.3252 76.4792C43.3252 76.4792 42.7793 76.531 42.1307 76.6476C42.3876 77.1594 42.6573 77.6518 42.8949 78.1701C43.2803 78.9929 44.2758 80.2238 44.2051 81.1502C44.173 81.6491 43.8133 81.7916 43.6528 82.1544C43.4858 82.5107 43.6142 82.7893 44.0767 82.5107C44.3207 82.3682 44.5776 82.2451 44.8602 82.2581C45.0978 82.271 45.3226 82.3876 45.5602 82.4265C46.0804 82.4978 46.4016 81.8953 46.4722 81.4677C46.7676 79.6666 47.6475 77.7879 46.2538 76.2136C45.8428 75.7601 45.3483 75.4297 44.9437 75.0021Z" fill="#E3A87D"/>
<path d="M39.9985 88.5683C39.793 87.5576 39.9214 86.4303 40.5572 85.614C40.7628 85.3419 41.0389 85.0051 40.8719 84.707C40.8077 84.5969 40.6985 84.5256 40.6022 84.4608C39.7609 83.8972 38.926 83.1846 38.637 82.2063C38.3801 81.2734 38.6305 80.3664 38.8746 79.4659C38.5856 80.1397 38.3287 80.9106 38.1489 81.7528C37.7764 83.4113 38.9645 85.7436 38.9645 85.7436C38.9645 85.7436 38.9645 85.7436 38.1167 86.1647C38.3672 87.0717 38.4957 88.0694 38.6562 88.957C38.7461 89.4753 38.8361 90 38.7461 90.5183C38.6048 91.3411 38.0525 92.0213 37.4938 92.6433C37.8277 92.3388 38.3672 92.2934 38.8104 92.4295C39.3113 92.585 39.7288 92.9089 40.1526 93.2134C40.4866 93.4466 40.8976 93.6734 41.283 93.5308C41.6683 93.3818 41.8417 92.9089 41.7903 92.4943C41.7261 92.0926 41.4949 91.7233 41.2765 91.38C40.7242 90.5054 40.2104 89.5854 39.9985 88.5683Z" fill="#E0A175"/>
<path d="M47.731 75.0279C47.4356 75.3389 47.1594 75.6823 47.0181 76.0904C46.7869 76.7512 46.941 77.4704 46.9988 78.1636C47.0695 79.0122 46.9924 79.8739 46.7741 80.6967C46.6777 81.0595 46.5685 81.4871 46.819 81.7656C46.9282 81.8887 47.0888 81.9535 47.2429 81.9859C48.4118 82.2451 49.4715 81.3381 49.9596 80.3533C50.4541 79.3556 50.8266 78.5652 51.7 77.8267C53.0102 76.7188 54.4937 75.8118 56.0736 75.151C55.9324 70.6096 49.4329 73.2398 47.731 75.0279Z" fill="#F7C39D"/>
<path d="M45.6823 82.3102C45.1749 81.4291 42.9913 82.524 42.3619 82.9192C41.238 83.6253 40.1398 85.1349 39.9856 86.4694C39.8765 87.4023 39.9407 88.3547 40.1783 89.2617C40.371 89.9873 40.8205 90.6287 40.9683 91.3478C41.1481 92.2353 42.2913 92.8897 42.7344 91.7559C42.8821 91.3802 42.8564 90.9591 42.8629 90.5509C42.8821 89.0997 43.4088 87.7522 44.1602 86.5342C44.5198 85.9512 44.9052 85.3292 45.3933 84.8498C45.9327 84.325 45.8621 83.7225 45.8364 82.9905C45.83 82.7572 45.7979 82.511 45.6823 82.3102Z" fill="#F7C39D"/>
<path d="M39.5233 92.4553C39.0545 92.1508 38.3223 92.0471 37.8149 92.3063C37.4489 92.4941 37.192 92.8375 36.98 93.1873C36.1901 94.496 35.8625 96.0573 35.8882 97.5863C35.9011 98.2406 35.9781 98.9144 36.3057 99.4845C36.6332 100.048 37.2626 100.482 37.9049 100.404C38.4572 100.34 38.9132 99.925 39.2086 99.4456C39.4976 98.9662 39.6582 98.422 39.8637 97.9037C40.3068 96.8024 40.9876 95.7723 41.1225 94.5932C41.1674 94.1786 41.1353 93.7315 40.8977 93.3947C40.5894 92.9541 39.96 92.7274 39.5233 92.4553Z" fill="#F7C39D"/>
<path d="M89.5021 138.026C88.8085 136.769 88.4553 135.357 88.0314 133.977C87.7616 133.083 87.4662 132.202 87.1515 131.32C85.7193 127.388 83.8633 123.592 82.2898 119.698C81.2237 117.055 79.8814 114.308 80.4016 111.354C80.8576 108.756 79.7786 105.62 79.3548 103.009C79.085 101.383 78.8089 99.7505 78.3208 98.1762C77.5758 95.8374 76.7216 93.6153 76.2078 91.1923C75.9124 89.7864 75.6748 88.3547 75.3344 86.9618C75.1096 86.0353 74.8463 85.1283 74.5059 84.2343C74.371 83.8974 74.2233 83.58 74.0692 83.2755C72.9838 81.2282 71.9369 79.3171 70.1194 77.7946C69.2588 77.0884 68.5909 76.2398 67.8074 75.4558C67.8074 75.4558 67.8009 75.4494 67.7945 75.4429C67.6532 75.3004 67.5119 75.1578 67.3578 75.0218C67.2229 74.8987 67.0816 74.7691 66.9339 74.6395C66.9275 74.6331 66.9082 74.6201 66.9018 74.6136C65.6559 73.5188 64.3136 72.534 63.1511 71.342C62.0401 70.2082 61.1666 68.8931 60.4409 67.4807C59.5996 65.8805 58.9381 64.1508 58.2958 62.4599C58.1802 62.1489 57.5894 61.6241 57.7885 61.365C56.1957 59.1558 55.6241 56.3894 54.7122 53.811C54.1534 52.2432 53.4598 50.7337 52.6442 49.2954C52.6442 49.2889 52.6377 49.2889 52.6377 49.2889C51.9377 48.0256 51.1221 46.8206 50.2229 45.6804C50.2229 45.661 50.2165 45.6545 50.1908 45.6415C49.2467 44.4365 48.1935 43.2963 47.0567 42.2532C46.5236 41.7673 45.9649 41.2879 45.3933 40.8474C45.3355 40.7891 45.2649 40.7372 45.1942 40.6919C45.7337 43.4453 47.2429 45.8747 48.5916 48.3236C50.8587 52.4505 52.7469 56.8041 54.1277 61.3196C55.0269 64.2544 55.7654 67.3512 57.6536 69.7612C58.405 70.733 59.3363 71.5622 60.0234 72.5858C60.7106 73.6095 61.1409 74.9181 60.7363 76.0907C60.3831 77.1338 59.3876 78.1768 59.8886 79.1616C60.0427 79.4661 60.3317 79.6799 60.595 79.8872C61.4364 80.535 62.2135 81.2542 62.9392 82.0316C65.6302 84.8433 67.5697 88.3611 69.1111 91.9503C71.0506 96.4853 73.1187 100.988 74.3196 105.788C74.7885 107.648 75.3472 109.598 75.1096 111.522C74.782 114.146 74.3903 116.718 74.7564 119.368C74.9876 121.039 75.6555 122.4 76.2399 123.915C76.8629 125.555 77.2803 127.213 78.0382 128.813C78.6933 130.2 79.4318 131.534 80.1768 132.869C81.1851 134.676 82.2063 136.464 83.0733 138.337C83.5743 139.419 84.0302 140.52 84.4734 141.628C85.6551 144.563 87.2157 147.271 88.0378 150.29C88.9369 149.94 89.8296 149.525 90.7031 149.059C91.8463 148.443 92.8803 147.77 93.8051 147.057C93.1179 144.673 92.3857 142.373 90.9664 140.235C90.4911 139.49 89.9388 138.803 89.5021 138.026Z" fill="#F7C39D"/>
<path d="M98.243 135.583C94.017 124.635 87.7552 108.529 86.1818 105.069C84.7881 102.005 84.1651 99.3811 83.7605 96.7573C83.4651 94.8008 83.2853 92.8508 83.0027 90.7323C82.3348 85.7438 81.1402 82.4786 79.2392 78.3517C77.3382 74.2249 76.0794 73.2725 75.2316 71.6335C74.3839 69.9814 73.5297 68.3424 72.8104 67.3706C72.0911 66.3988 69.8882 62.6347 69.8882 62.6347C69.8882 62.6347 69.3937 59.1493 69.1239 57.3612C69.0148 56.6097 68.6936 56.2598 68.3725 56.0979C68.1092 55.9748 67.8459 55.9683 67.6725 55.9877C67.5762 56.0007 67.5184 56.0137 67.4862 56.0266L67.467 56.0331C67.467 56.0331 67.1202 55.9942 66.5807 56.1044C66.7477 56.1238 66.9211 56.1756 67.0881 56.3117C67.1715 56.37 67.255 56.4477 67.3257 56.5514C67.4927 56.7457 67.6211 57.0437 67.6853 57.4713C67.8395 58.4949 68.0707 60.0628 68.2377 61.2289C68.3597 62.1035 68.4496 62.7449 68.4496 62.7449C68.4496 62.7449 70.6525 66.5089 71.3718 67.4807C72.0911 68.4525 72.9453 70.0916 73.793 71.7436C74.6408 73.3892 75.8995 74.335 77.8006 78.4619C79.7016 82.5887 80.8961 85.8539 81.5641 90.8424C81.8017 92.637 81.9751 94.3214 82.2063 95.9799C82.2384 96.2779 82.277 96.5695 82.3283 96.8675C82.7265 99.4913 83.3559 102.122 84.7496 105.179C86.201 108.367 91.6472 122.348 95.8025 133.096C96.8878 135.875 97.8705 138.447 98.6797 140.559C99.0265 139.386 99.0843 138.233 98.8402 137.151C98.654 136.646 98.4613 136.115 98.243 135.583Z" fill="#E3A77D"/>
<path d="M67.4798 56.0198L67.4605 56.0263C67.4605 56.0263 66.2339 56.6482 66.2981 58.1771C66.3495 59.7061 66.6963 60.7491 67.4284 60.9629C68.1542 61.1832 69.0019 61.3775 69.4451 61.993C69.8818 62.6149 69.8818 62.6149 69.8818 62.6149C69.8818 62.6149 69.3873 59.1295 69.1175 57.3414C68.8542 55.6894 67.6404 55.9809 67.4798 56.0198Z" fill="#FCDCC2"/>
<defs>
<linearGradient id="paint0_linear" x1="42.6804" y1="2.4227" x2="15.5529" y2="73.6163" gradientUnits="userSpaceOnUse">
<stop offset="0.0592" stop-color="#FAFFFF"/>
<stop offset="0.0614" stop-color="white"/>
<stop offset="0.2942" stop-color="white"/>
<stop offset="0.2943" stop-color="#F7FFFF"/>
<stop offset="0.3538" stop-color="#F7FFFF"/>
<stop offset="0.3542" stop-color="#EBF8FA"/>
</linearGradient>
<linearGradient id="paint1_linear" x1="43.6402" y1="66.8841" x2="42.6268" y2="64.3846" gradientUnits="userSpaceOnUse">
<stop offset="0.0353" stop-color="#353536"/>
<stop offset="1" stop-color="#C0C0C1"/>
</linearGradient>
<linearGradient id="paint2_linear" x1="45.5906" y1="64.5806" x2="40.351" y2="70.605" gradientUnits="userSpaceOnUse">
<stop offset="0.051" stop-color="#3A4042"/>
<stop offset="1" stop-color="#667276"/>
</linearGradient>
</defs>
</svg>
