<svg width="19" height="18" viewBox="0 0 19 18" fill="none" xmlns="http://www.w3.org/2000/svg">
<path d="M9.01316 0C4.03519 0 0 4.03519 0 9.01316C0 13.5116 3.29611 17.2404 7.6053 17.9173V11.618H5.31596V9.01316H7.6053V7.02756C7.6053 4.76886 8.95007 3.52144 11.0096 3.52144C11.9956 3.52144 13.0267 3.6972 13.0267 3.6972V5.91443H11.8911C10.7707 5.91443 10.4219 6.60935 10.4219 7.32229V9.01316H12.9213L12.522 11.618H10.4219V17.9173C14.7302 17.2413 18.0263 13.5107 18.0263 9.01316C18.0263 4.03519 13.9911 0 9.01316 0Z" fill="url(#paint0_linear)"/>
<defs>
<linearGradient id="paint0_linear" x1="0" y1="8.95863" x2="18.0263" y2="8.95863" gradientUnits="userSpaceOnUse">
<stop stop-color="#EECE21"/>
<stop offset="1" stop-color="#EECE21"/>
</linearGradient>
</defs>
</svg>
