<svg width="21" height="22" viewBox="0 0 21 22" fill="none" xmlns="http://www.w3.org/2000/svg">
<path d="M0.9375 0.224121H11.2534C11.4576 0.22423 11.6577 0.281169 11.8313 0.388561C12.0049 0.495953 12.1452 0.649557 12.2364 0.83217L13.0325 2.42321H19.6298C19.9214 2.42321 20.2011 2.53906 20.4073 2.74526C20.6135 2.95147 20.7293 3.23114 20.7293 3.52276V15.6178C20.7293 15.9094 20.6135 16.1891 20.4073 16.3953C20.2011 16.6015 19.9214 16.7173 19.6298 16.7173H12.6125C12.4083 16.7172 12.2083 16.6603 12.0346 16.5529C11.861 16.4455 11.7207 16.2919 11.6295 16.1093L10.8334 14.5182H3.13659V21.1155H0.9375V0.224121Z" fill="url(#paint0_linear)"/>
<defs>
<linearGradient id="paint0_linear" x1="0.9375" y1="10.6698" x2="20.7293" y2="10.6698" gradientUnits="userSpaceOnUse">
<stop stop-color="#283745"/>
<stop offset="1" stop-color="#152331"/>
</linearGradient>
</defs>
</svg>
