<svg width="90" height="223" viewBox="0 0 90 223" fill="none" xmlns="http://www.w3.org/2000/svg">
<path d="M39.5948 101.524C39.5948 101.524 39.8909 106.106 41.9633 106.993C44.0357 107.88 47.7365 103.446 47.7365 103.446L39.5948 101.524Z" fill="#FED8A7"/>
<path d="M57.2102 190.954C57.2102 190.954 61.207 196.571 59.2827 201.448C58.8386 202.631 54.5457 205.44 53.5095 205.44C52.4733 205.44 52.0292 205.587 50.993 206.474C49.9568 207.509 50.2529 207.805 48.6245 209.135C46.9962 210.317 39.7428 213.569 34.2657 209.726C34.2657 209.726 33.9696 207.361 34.2657 206.622C34.5618 205.883 38.4105 202.631 40.1869 201.596C41.9632 200.709 46.8482 195.24 47.2923 194.206C47.7364 193.023 49.5127 192.432 49.5127 192.432C49.5127 192.432 53.0654 188.293 57.2102 190.954Z" fill="#1E160D"/>
<path d="M76.7502 201.741C76.7502 201.741 80.747 207.358 78.8226 212.236C78.3785 213.418 74.0856 216.227 73.0494 216.227C72.0132 216.227 71.5691 216.375 70.5329 217.261C69.4967 218.296 69.7928 218.592 68.1645 219.922C66.5361 221.105 59.2827 224.357 53.8056 220.513C53.8056 220.513 53.5096 218.148 53.8056 217.409C54.1017 216.67 57.9504 213.418 59.7268 212.384C61.5031 211.497 66.3881 206.028 66.8322 204.993C67.2763 203.81 69.0526 203.219 69.0526 203.219C69.0526 203.219 72.6053 198.932 76.7502 201.741Z" fill="#1E160D"/>
<path d="M67.2763 114.533C65.796 120.15 65.796 126.063 64.6118 131.68C63.2795 138.479 63.8716 146.609 60.1709 152.817C58.9866 154.591 55.73 157.548 51.8812 156.956C49.6608 156.513 45.664 155.478 45.368 154C44.9239 151.487 44.7758 149.418 45.0719 148.087C45.368 145.279 46.7002 129.463 46.9963 124.289C47.1443 120.002 47.4404 117.49 47.8845 112.907C47.8845 112.907 46.9963 107.734 56.9142 109.951C66.9802 112.168 67.5723 113.794 67.2763 114.533Z" fill="#5A6369"/>
<path d="M61.5033 156.218C60.9112 152.522 61.3553 149.566 61.2073 145.427C61.0592 142.323 45.0721 145.871 44.924 153.261C44.924 153.261 48.1807 181.938 46.2563 190.954L45.9602 192.433C45.9602 192.433 45.5161 193.763 46.5523 194.798C46.7004 194.798 48.1807 196.128 50.2531 196.571C53.0656 197.163 56.7664 196.867 58.8388 194.798C63.5757 189.476 63.5757 168.634 61.5033 156.218Z" fill="#5A6369"/>
<path d="M78.3784 115.274C77.7863 121.039 80.0067 129.169 79.7107 135.081C79.5627 142.028 79.2666 153.41 80.3028 161.244C80.5989 163.314 75.4178 161.983 71.5691 161.983C69.3486 161.983 65.7959 161.392 64.7597 160.21C64.4637 159.766 63.7235 159.175 63.4275 157.992C62.5393 154.149 62.0952 138.185 61.059 130.795C60.6149 126.508 60.1708 122.812 58.5425 118.674C58.5425 118.674 58.0984 113.205 68.1644 113.057C76.7501 112.909 78.3784 115.274 78.3784 115.274Z" fill="#687178"/>
<path d="M80.3029 161.24C76.8982 144.389 65.2039 152.223 63.8716 159.466C63.8716 159.466 69.3487 191.394 66.0921 200.115L65.648 201.593C65.648 201.593 65.0559 202.924 65.9441 203.959C66.0921 203.959 67.4243 205.437 69.3487 206.176C72.0133 207.21 75.862 207.358 78.0825 205.584C83.5595 201.002 82.8194 173.509 80.3029 161.24Z" fill="#687178"/>
<path d="M55.4339 49.201C53.2134 60.435 48.4765 79.2075 44.4797 78.4684C42.9994 78.1728 40.0388 73.7383 40.779 70.1908C42.8514 61.7653 41.5191 52.0095 42.9994 45.0622C45.2199 33.8283 47.4403 32.3501 51.4371 33.237C55.4339 33.9761 57.6543 37.9671 55.4339 49.201Z" fill="black"/>
<path d="M45.6638 78.1676C36.1899 82.7498 25.0878 81.4195 19.9067 83.7845C18.7225 84.3758 16.6501 78.4632 19.1666 76.246C23.1634 72.8462 35.8939 71.9593 44.7756 65.8989C44.7756 65.8989 44.3316 65.6033 46.1079 68.7074C48.0323 71.6637 50.1047 76.0982 45.6638 78.1676Z" fill="black"/>
<path d="M68.4605 36.7817C69.3487 36.9295 79.1186 41.8074 83.4115 46.6853C86.5201 50.3807 84.1516 58.8061 84.0036 59.8408C83.8556 63.3884 78.9706 85.4129 78.0824 90.2908C77.4903 95.1686 79.4147 98.7162 79.7107 104.185C79.8588 107.733 80.1548 116.011 79.8588 117.489C78.9706 122.367 64.9078 121.628 62.3913 121.48C54.5458 120.888 44.4798 114.976 45.3679 110.985C47.2923 102.116 46.9963 79.3524 46.4041 68.7097C46.2561 66.1969 46.1081 64.2753 45.812 63.5362C44.7758 59.5452 39.8909 39.2945 45.9601 33.8254C47.5884 32.495 50.697 31.6082 52.6214 31.6082C59.2827 31.9038 67.2763 36.6339 68.4605 36.7817Z" fill="#B2EF0D"/>
<path d="M49.3647 80.2382C46.7002 77.2819 46.7002 74.769 46.7002 74.769C46.7002 77.5775 46.8482 80.6816 46.8482 83.9336C48.4765 86.2986 51.1411 87.9246 54.3977 89.6984C62.8354 94.2806 74.6777 92.2112 78.0824 90.7331C78.0824 90.5853 78.0824 90.2896 78.0824 90.1418C78.3785 88.8115 78.8226 86.5943 79.4147 83.9336C77.7864 84.9683 76.3061 85.8552 72.9014 86.4464C63.8716 88.2202 52.7694 83.7858 49.3647 80.2382Z" fill="#7C7C7C"/>
<path d="M79.1185 99.6009C78.8225 97.975 78.3784 96.349 78.2304 94.723C77.0461 95.4621 75.5658 96.0534 73.0493 96.6446C63.8715 98.4184 52.0292 94.2796 48.6245 90.732C47.8843 89.9929 47.2922 89.2539 46.9962 88.6626C46.9962 90.732 46.9962 92.8014 46.8481 94.723C48.4765 96.9403 51.437 98.4184 54.5457 100.192C63.8715 105.07 77.0461 100.783 79.1185 99.6009Z" fill="#7C7C7C"/>
<path d="M62.3915 32.7905C62.2434 32.9383 56.1742 32.6426 52.6215 36.7815C48.9208 40.9203 49.957 40.329 49.957 40.329L52.4735 39.4421C52.4735 39.4421 53.3617 50.0848 54.5459 51.563L64.908 44.7635L65.6481 49.4936C65.6481 49.4936 73.4937 40.7725 72.4575 38.5552C70.089 33.0861 63.7237 31.0167 62.3915 32.7905Z" fill="#0A0C11"/>
<path d="M59.2827 34.1194C59.2827 34.1194 54.8418 35.5975 54.2497 41.5101C53.6576 47.4227 54.6938 51.5616 54.6938 51.5616C54.6938 51.1181 60.763 45.7968 65.796 42.1014C66.3881 41.658 71.8652 37.6669 65.796 34.8585L59.2827 34.1194Z" fill="#FCCB95"/>
<path d="M68.9047 25.5454C68.9047 28.7973 68.3126 30.2755 68.7567 34.1187C68.9047 35.3012 69.4968 36.9272 69.4968 38.5531C69.4968 41.5094 66.3882 42.692 64.7599 43.5788C63.2796 44.3179 57.2104 42.2485 57.6545 40.3269C57.9505 38.701 57.6545 36.1881 58.0986 34.5621C58.6907 32.9362 60.467 31.9015 60.467 29.9799L68.9047 25.5454Z" fill="#FCCB95"/>
<path d="M51.4371 12.2467C51.4371 14.0205 51.4371 15.6465 50.993 17.2724C50.697 18.455 51.1411 21.5591 50.697 24.811C50.4009 26.8804 51.1411 28.9498 51.7332 30.8714C52.1773 32.4974 52.3253 34.2712 53.8056 35.1581C57.2103 37.5231 61.2071 35.1581 64.7598 33.9755C68.3125 32.793 67.7204 27.7673 68.9046 24.811C70.829 19.6375 69.4967 12.2467 63.7236 9.88168C61.2071 8.84698 56.9142 8.25572 54.2497 9.29042C53.3615 9.58605 51.2891 10.3251 51.4371 12.2467Z" fill="#FED8A7"/>
<path d="M69.9409 5.88861C66.6842 2.93231 60.0229 3.8192 54.5458 6.33205C51.8813 7.51457 51.1412 11.3578 51.1412 11.3578C50.5491 12.3925 53.5096 14.6097 54.2498 14.9053C55.7301 15.7922 57.3584 15.94 59.1348 16.0878C60.171 16.0878 61.3552 16.0878 62.3914 16.0878C62.9835 16.0878 64.1678 15.7922 64.7599 15.7922C66.3882 15.94 66.3882 18.1573 66.6843 19.4876C66.8323 20.5223 67.2764 21.4092 67.2764 22.5917C67.2764 23.183 66.3882 28.9478 67.1283 29.0956C68.3126 29.2434 72.9015 23.922 73.3456 20.9657C73.4936 18.8963 75.714 11.2099 69.9409 5.88861Z" fill="url(#paint0_linear)"/>
<path d="M69.9409 25.5464C69.2007 27.468 67.8684 28.6505 67.1283 28.3549C66.2401 28.0592 65.5 26.1376 66.2401 24.3639C66.9803 22.4423 69.0527 21.2597 69.9409 21.5554C70.681 21.851 70.829 23.6248 69.9409 25.5464Z" fill="#FED8A7"/>
<path d="M88.4444 60.7285C90.0727 72.1103 90.9609 93.1 86.9641 93.5435C85.4838 93.6913 78.5264 90.4393 78.2304 86.8918C77.3422 78.3185 75.4178 68.4149 74.3816 61.172C72.7533 49.7902 75.2698 47.4252 79.4146 46.8339C83.4114 46.2426 86.8161 49.3468 88.4444 60.7285Z" fill="#0A0C11"/>
<path d="M81.043 97.6826C71.8652 102.708 53.6576 109.064 51.8812 105.812C51.2891 104.63 49.0686 100.935 51.7332 99.0129C56.026 95.761 68.7566 92.2134 78.2304 86.8921C80.3028 85.7096 86.224 85.4139 87.8523 88.5181C89.4807 91.77 87.7043 94.135 81.043 97.6826Z" fill="#0A0C11"/>
<path d="M51.2891 11.2119C51.2891 11.2119 44.7758 11.5075 45.664 12.9857C46.5522 14.4638 54.6938 19.7852 58.9866 19.933C63.4275 20.0808 69.4967 18.6027 69.4967 18.6027L51.2891 11.2119Z" fill="#FFDA3E"/>
<path d="M57.0622 16.973C52.4733 15.347 50.1048 14.0167 48.3285 11.6516C50.1048 4.26088 57.6543 -0.617015 65.2038 1.00895C73.0494 2.63492 77.9343 10.3213 76.306 18.0077C75.8619 19.9293 75.1218 21.7031 74.0856 23.1812C71.125 23.1812 60.7629 18.3033 57.0622 16.973Z" fill="#FFBC00"/>
<path d="M1.40317 83.7839L28.0485 99.1567L57.3583 106.695L30.861 91.3225L1.40317 83.7839Z" fill="#002368"/>
<path d="M7.76839 86L31.8972 98.8599L54.1016 105.068L30.5649 91.617L7.76839 86Z" fill="white"/>
<path d="M50.5489 13.867C54.1016 2.63302 62.3913 3.51991 62.3913 3.51991L65.944 3.96336C56.026 6.18058 54.2497 13.2757 53.9536 15.6407C52.6213 15.0495 51.4371 14.4582 50.5489 13.867Z" fill="#FFDA3E"/>
<path d="M19.4627 76.6895C19.0186 76.5417 18.7225 76.0982 18.2784 75.9504C16.7982 75.3592 16.5021 77.5764 15.91 78.4633C15.6139 79.0545 15.1698 79.6458 14.7257 80.237C14.2816 80.6805 18.2784 83.3412 19.0186 83.1933C19.7587 83.1933 20.6469 82.1586 20.943 81.5674C21.3871 80.9761 21.8312 77.872 19.4627 76.6895Z" fill="#FED8A7"/>
<path d="M15.0218 74.3263C14.7258 74.0307 13.9856 74.1785 13.6896 74.1785C12.9494 74.1785 12.3573 74.0307 11.6171 73.8829C10.4329 73.5872 9.84079 73.2916 8.80458 73.8829C8.06444 74.0307 7.62035 74.1785 6.8802 74.3263C6.14005 74.4741 5.84399 74.6219 5.10385 75.2132C4.3637 75.9523 3.62355 76.5435 2.73537 77.2826C2.43931 77.4304 1.55114 78.0217 1.40311 78.4651C1.10705 79.7955 3.91961 78.7608 4.3637 78.613C5.10384 78.1695 5.84399 77.5783 6.58414 77.4304C7.9164 76.8392 9.54472 77.1348 10.729 77.2826C11.4691 77.4304 12.0612 77.7261 12.8014 77.5783C13.6896 77.4304 14.8738 76.8392 15.762 76.5435L15.0218 74.3263Z" fill="#FCCB95"/>
<path d="M18.1305 71.0735L0.811073 80.9771L18.1305 71.0735Z" fill="#FCCB95"/>
<path d="M2.14334 82.8969C1.99531 82.8969 1.69925 82.8969 1.55122 82.6013C1.40319 82.4535 1.40319 82.01 1.69925 81.8622L17.5384 69.7414C17.8345 69.5936 18.2785 69.5936 18.4266 69.8892C18.5746 70.1848 18.5746 70.4805 18.2785 70.7761L2.43939 82.7491C2.29136 82.8969 2.29136 82.8969 2.14334 82.8969Z" fill="#231F20"/>
<path d="M19.6108 80.9753C19.9069 82.01 12.0613 76.6887 11.9133 76.8365L6.58421 78.019C5.9921 78.6103 4.80786 79.4972 5.39998 80.2363C5.69604 80.8275 6.28816 80.8275 6.88027 80.9753C6.58421 81.5666 6.28815 82.3057 6.73224 82.7491C7.17633 83.0448 7.76845 82.8969 8.36057 82.8969C8.21254 83.4882 8.06451 83.9316 8.5086 84.2273C9.10072 84.6707 10.433 84.2273 11.0251 83.9316C12.6534 83.4882 21.9793 84.8185 19.6108 80.9753Z" fill="#FCCB95"/>
<path d="M19.9069 80.5291C19.4628 81.416 11.1731 78.3119 11.3212 77.2772C11.6172 75.6512 13.2455 74.6165 14.4298 74.173C15.9101 73.5818 17.9825 75.2078 19.1667 76.2425C19.7588 76.6859 20.0549 77.8684 19.9069 78.9031C19.7588 80.5291 19.9069 80.5291 19.9069 80.5291Z" fill="#FED8A7"/>
<path d="M11.3211 75.8046C10.729 76.3959 7.91644 76.6915 7.1763 76.6915C5.99206 76.6915 4.06768 78.3175 5.84403 79.0566C7.02826 79.6478 8.36053 78.7609 9.6928 78.6131C10.729 78.3175 10.877 78.4653 11.4691 79.2044C12.0613 79.7956 12.6534 80.3869 13.3935 80.9781C14.7258 82.0129 16.3541 82.3085 18.1305 81.7172C18.7226 81.4216 19.9068 80.9781 20.2029 80.3869C21.0911 78.3175 18.7226 77.4306 17.2423 76.9871C16.2061 76.6915 15.614 76.3959 14.7258 75.8046C13.5416 75.2134 12.3573 74.9177 11.3211 75.8046Z" fill="#FED8A7"/>
<path d="M54.1016 101.524C52.7693 100.194 49.8087 99.7506 49.0686 99.7506C47.7363 99.6027 46.256 98.568 44.9238 99.4549C44.3316 100.046 43.8876 100.342 42.9994 100.342C42.1112 100.49 42.4073 100.785 42.9994 101.229C43.5915 101.672 44.0356 101.968 44.7757 101.82C45.5159 101.377 46.8481 101.229 47.1442 102.559C47.2922 103.889 46.108 103.742 45.2198 104.185C43.7395 104.924 42.8513 105.072 41.9632 106.402C41.5191 107.141 42.5553 108.324 43.8876 107.88C43.8876 108.176 43.4435 108.176 43.5915 108.619C44.3316 109.506 45.5159 109.654 46.256 109.063C45.2198 110.393 47.5883 110.984 48.4765 109.95C48.4765 111.132 50.8449 110.689 51.437 110.393C52.6213 109.654 54.3976 108.176 55.1378 107.289C55.7299 106.402 56.026 104.185 55.4338 103.298C55.1378 102.855 54.5457 101.82 54.1016 101.524Z" fill="#FED8A7"/>
<defs>
<linearGradient id="paint0_linear" x1="74.028" y1="19.1351" x2="51.1385" y2="11.1186" gradientUnits="userSpaceOnUse">
<stop stop-color="#231F20"/>
<stop offset="0.0896" stop-color="#231F20"/>
<stop offset="1" stop-color="#231F20"/>
</linearGradient>
</defs>
</svg>
