<svg width="191" height="251" viewBox="0 0 191 251" fill="none" xmlns="http://www.w3.org/2000/svg">
<path d="M82.0183 241.972C82.0183 241.83 82.0183 241.688 82.0183 241.688C82.0183 241.546 82.0183 241.405 82.0183 241.263C82.0183 241.121 82.0183 241.121 82.0183 240.979C82.0183 240.837 82.0183 240.837 82.0183 240.695C82.0183 240.554 82.0183 240.412 82.1601 240.412V240.27C82.1601 240.128 82.302 239.986 82.302 239.844V239.703C82.302 239.561 82.4438 239.277 82.5856 239.135C82.5856 238.993 82.7275 238.852 82.8693 238.71C82.8693 238.71 82.8693 238.568 83.0111 238.568C83.153 238.426 83.153 238.284 83.2948 238.142C83.2948 238.142 83.2948 238.142 83.2948 238.001C83.4366 237.859 83.4366 237.717 83.5785 237.575C83.5785 237.575 83.5785 237.433 83.7203 237.433C83.8621 237.291 83.8621 237.15 84.004 237.15L84.1458 237.008C84.2877 236.866 84.2877 236.866 84.4295 236.724C84.4295 236.582 84.5713 236.582 84.5713 236.44L84.7132 236.299C84.855 236.157 84.9968 236.015 84.9968 236.015L85.1387 235.873L85.2805 235.731C85.4223 235.589 85.4223 235.589 85.5642 235.448L85.706 235.306C85.8478 235.164 85.8478 235.164 85.9897 235.022L86.1315 234.88C86.2733 234.738 86.4152 234.738 86.557 234.597C86.9825 234.171 87.2662 234.029 87.408 234.029C87.408 234.029 87.5499 234.029 87.5499 233.887C87.6917 233.887 87.8335 233.745 87.8335 233.745C87.9754 233.745 87.9754 233.745 88.1172 233.745H88.259C88.4009 233.745 88.4009 233.745 88.5427 233.745H88.6846C88.8264 233.745 88.8264 233.745 88.9682 233.745C89.1101 233.745 89.2519 233.745 89.3937 233.745C89.5356 233.745 89.5356 233.745 89.6774 233.887C89.6774 233.887 89.6774 233.887 89.8192 233.887C89.9611 233.887 90.1029 234.029 90.1029 234.029L86.8407 232.185C86.6989 232.185 86.6989 232.043 86.557 232.043C86.557 232.043 86.557 232.043 86.4152 232.043H86.2734H86.1315H85.9897C85.8478 232.043 85.8478 232.043 85.706 232.043H85.5642H85.2805C85.2805 232.043 85.2805 232.043 85.1387 232.043H84.9968H84.855H84.7132H84.5713H84.4295H84.2877C84.1458 232.043 84.004 232.185 84.004 232.185H83.8621C83.7203 232.327 83.4366 232.327 83.2948 232.469C83.153 232.611 83.0111 232.611 82.8693 232.753C82.8693 232.753 82.7275 232.753 82.7275 232.894C82.5856 233.036 82.5856 233.036 82.4438 233.178L82.302 233.32C82.1601 233.462 82.1601 233.462 82.0183 233.604L81.8765 233.745C81.8765 233.745 81.8765 233.745 81.7346 233.887C81.7346 233.887 81.7346 234.029 81.5928 234.029C81.4509 234.171 81.3091 234.313 81.3091 234.313C81.3091 234.313 81.3091 234.455 81.1673 234.455C81.1673 234.455 81.1673 234.455 81.0254 234.597C81.0254 234.738 80.8836 234.738 80.8836 234.88L80.7418 235.022C80.7418 235.022 80.7418 235.164 80.5999 235.164L80.4581 235.306C80.4581 235.306 80.4581 235.448 80.3163 235.448C80.3163 235.589 80.1744 235.589 80.1744 235.731C80.1744 235.731 80.1744 235.873 80.0326 235.873C79.8908 236.015 79.8908 236.157 79.7489 236.299C79.7489 236.299 79.7489 236.299 79.7489 236.44C79.7489 236.582 79.6071 236.582 79.6071 236.724C79.6071 236.724 79.6071 236.866 79.4653 236.866C79.4653 236.866 79.4653 237.008 79.3234 237.008V237.15C79.3234 237.291 79.1816 237.433 79.1816 237.433C79.1816 237.575 79.0397 237.717 79.0397 237.859C79.0397 237.859 79.0397 237.859 79.0397 238.001V238.142C79.0397 238.284 79.0397 238.284 78.8979 238.426V238.568V238.71V238.852C78.8979 238.993 78.8979 238.993 78.8979 239.135C78.8979 239.277 78.8979 239.277 78.8979 239.419C78.8979 239.419 78.8979 239.419 78.8979 239.561V239.703C78.8979 239.844 78.8979 239.986 78.8979 240.128V240.27C78.8979 240.412 78.8979 240.412 78.8979 240.554V240.695C78.8979 240.837 78.8979 241.121 78.8979 241.263C78.8979 242.539 79.3234 243.532 80.0326 244.099C80.1744 244.241 80.1744 244.241 80.3163 244.383L83.5785 246.227C82.7275 245.66 82.1601 244.667 82.1601 243.107C82.1601 242.965 82.1601 242.681 82.1601 242.539C82.0183 242.114 82.0183 241.972 82.0183 241.972Z" fill="#231F20"/>
<path d="M86.8407 234.315C89.5356 232.755 91.6631 234.032 91.6631 237.152C91.6631 240.272 89.5356 243.96 86.8407 245.52C84.1458 247.08 82.0183 245.804 82.0183 242.684C82.0183 239.563 84.1458 235.875 86.8407 234.315Z" fill="#2B2B2B"/>
<path d="M88.4009 245.8C88.4009 245.658 88.4009 245.516 88.4009 245.516C88.4009 245.375 88.4009 245.233 88.4009 245.091C88.4009 244.949 88.4009 244.949 88.4009 244.807C88.4009 244.665 88.4009 244.665 88.4009 244.524C88.4009 244.382 88.4009 244.24 88.5427 244.24V244.098C88.5427 243.956 88.6845 243.814 88.6845 243.673V243.531C88.6845 243.389 88.8264 243.105 88.9682 242.963C88.9682 242.822 89.11 242.68 89.2519 242.538C89.2519 242.538 89.2519 242.396 89.3937 242.396C89.5355 242.254 89.5355 242.112 89.6774 241.971C89.6774 241.971 89.6774 241.97 89.6774 241.829C89.8192 241.687 89.8192 241.545 89.961 241.261C89.961 241.261 89.9611 241.12 90.1029 241.12C90.2447 240.978 90.2447 240.836 90.3866 240.836L90.5284 240.694C90.6702 240.552 90.6702 240.552 90.8121 240.41C90.8121 240.269 90.9539 240.268 90.9539 240.127C90.9539 239.985 91.0957 239.985 91.0957 239.985C91.2376 239.843 91.3794 239.701 91.3794 239.701L91.5212 239.559L91.6631 239.417C91.8049 239.276 91.8049 239.276 91.9467 239.134L92.0886 238.992C92.2304 238.85 92.2304 238.85 92.3722 238.708L92.5141 238.566C92.6559 238.425 92.7978 238.425 92.9396 238.283C93.0814 238.141 93.3651 237.999 93.5069 237.999C93.5069 237.999 93.6488 237.999 93.6488 237.857C93.7906 237.857 93.9324 237.715 93.9324 237.715C94.0743 237.715 94.0743 237.715 94.2161 237.715H94.3579C94.4998 237.715 94.6416 237.715 94.6416 237.715C94.7834 237.715 94.7835 237.715 94.7835 237.715H95.209C95.209 237.715 95.4926 237.715 95.6345 237.715H95.7763C95.9181 237.715 95.9181 237.715 96.06 237.857H96.2018C96.3436 237.857 96.4855 237.999 96.4855 237.999L93.2233 236.155C93.0814 236.155 93.0814 236.013 92.9396 236.013C92.9396 236.013 92.9396 236.013 92.7978 236.013H92.6559C92.5141 236.013 92.5141 236.013 92.5141 236.013C92.5141 236.013 92.5141 236.013 92.3722 236.013C92.2304 236.013 92.2304 236.013 92.0886 236.013H91.9467C91.8049 236.013 91.8049 236.013 91.6631 236.013H91.5212H91.3794H91.2376H91.0957H90.9539H90.8121H90.6702C90.5284 236.013 90.3866 236.155 90.3866 236.155H90.2447C90.1029 236.297 89.8192 236.297 89.6774 236.439C89.5355 236.581 89.3937 236.581 89.2519 236.723L89.11 236.864C88.9682 237.006 88.9682 237.006 88.8264 237.148L88.6845 237.29C88.5427 237.432 88.5427 237.432 88.4009 237.574L88.259 237.715C88.259 237.715 88.259 237.715 88.1172 237.857C88.1172 237.857 88.1172 237.999 87.9754 237.999C87.8335 238.141 87.6917 238.283 87.6917 238.283L87.5498 238.425C87.5498 238.425 87.5498 238.425 87.408 238.566C87.408 238.708 87.2662 238.708 87.2662 238.85L87.1243 238.992C87.1243 238.992 87.1243 239.134 86.9825 239.134L86.8407 239.276C86.8407 239.276 86.8407 239.417 86.6988 239.417C86.6988 239.559 86.557 239.559 86.557 239.701C86.557 239.701 86.557 239.843 86.4152 239.843C86.2733 239.985 86.2733 240.127 86.1315 240.268C86.1315 240.268 86.1315 240.269 86.1315 240.41C86.1315 240.552 85.9897 240.552 85.9897 240.694C85.9897 240.694 85.9897 240.836 85.8478 240.836C85.8478 240.836 85.8478 240.978 85.706 240.978V241.12C85.706 241.261 85.5642 241.403 85.5642 241.403C85.5642 241.545 85.4223 241.687 85.4223 241.829C85.4223 241.829 85.4223 241.829 85.4223 241.971V242.112C85.4223 242.254 85.4223 242.254 85.2805 242.396V242.538V242.68V242.822C85.2805 242.963 85.2805 242.963 85.2805 243.105C85.2805 243.247 85.2805 243.247 85.2805 243.389C85.2805 243.389 85.2805 243.389 85.2805 243.531V243.673C85.2805 243.814 85.2805 243.956 85.2805 244.098C85.2805 244.098 85.2805 244.098 85.2805 244.24C85.2805 244.382 85.2805 244.382 85.2805 244.524V244.665C85.2805 244.807 85.2805 245.091 85.2805 245.233C85.2805 246.509 85.706 247.502 86.4152 248.069C86.557 248.211 86.557 248.211 86.6988 248.353L89.8192 249.63C88.9682 249.062 88.4009 248.069 88.4009 246.509C88.4009 246.367 88.4009 246.084 88.4009 245.942V245.8Z" fill="#231F20"/>
<path d="M93.2232 238.14C95.9181 236.58 98.0457 237.856 98.0457 240.976C98.0457 244.097 95.9181 247.785 93.2232 249.345C90.5284 250.905 88.4008 249.628 88.4008 246.508C88.4008 243.388 90.5284 239.7 93.2232 238.14Z" fill="#2B2B2B"/>
<path d="M8.97311 199.847C8.97311 199.705 8.97311 199.563 8.97311 199.563C8.97311 199.421 8.97311 199.279 8.97311 199.138C8.97311 198.996 8.97311 198.996 8.97311 198.854C8.97311 198.712 8.97311 198.712 8.97311 198.57C8.97311 198.428 8.97311 198.287 9.11495 198.287V198.145C9.11495 198.003 9.25679 197.861 9.25679 197.719V197.577C9.25679 197.436 9.39862 197.152 9.54045 197.01C9.54045 196.868 9.68229 196.726 9.82413 196.584C9.82413 196.584 9.82413 196.443 9.96597 196.443C10.1078 196.301 10.1078 196.159 10.2496 196.017C10.2496 196.017 10.2496 196.017 10.2496 195.875C10.3915 195.733 10.3915 195.592 10.5333 195.308C10.5333 195.308 10.5333 195.166 10.6751 195.166C10.817 195.024 10.817 194.882 10.9588 194.882L11.1006 194.741C11.2425 194.599 11.2425 194.599 11.3843 194.457C11.3843 194.315 11.5261 194.315 11.5261 194.173C11.5261 194.031 11.668 194.031 11.668 194.031C11.8098 193.89 11.9517 193.748 11.9517 193.748L12.0935 193.606L12.2353 193.464C12.3772 193.322 12.3772 193.322 12.519 193.18L12.6608 193.039C12.8027 192.897 12.8027 192.897 12.9445 192.755L13.0863 192.613C13.2282 192.471 13.37 192.471 13.5118 192.329C13.6537 192.188 13.9374 192.046 14.0792 192.046C14.0792 192.046 14.221 192.046 14.221 191.904C14.3628 191.904 14.5047 191.762 14.5047 191.762C14.6465 191.762 14.6465 191.762 14.7884 191.762H14.9302C15.072 191.762 15.072 191.762 15.2139 191.762H15.3557H15.6394C15.7812 191.762 15.923 191.762 16.0649 191.762C16.2067 191.762 16.2067 191.762 16.3485 191.904C16.3485 191.904 16.3485 191.904 16.4904 191.904C16.6322 191.904 16.774 192.046 16.774 192.046L13.5118 190.202C13.37 190.202 13.37 190.06 13.2282 190.06H13.0863H12.9445H12.8027C12.6608 190.06 12.6608 190.06 12.6608 190.06H12.519C12.3772 190.06 12.3772 190.06 12.2353 190.06C12.2353 190.06 12.2353 190.06 12.0935 190.06C12.0935 190.06 11.9516 190.06 11.8098 190.06H11.668H11.5261H11.3843C11.2425 190.06 11.2425 190.06 11.2425 190.06C11.1006 190.06 11.1006 190.06 11.1006 190.06C10.9588 190.06 10.9588 190.06 10.9588 190.06H10.817C10.6751 190.06 10.5333 190.202 10.5333 190.202H10.3915C10.2496 190.344 9.96596 190.344 9.82413 190.486C9.68229 190.627 9.54045 190.627 9.39861 190.769C9.39861 190.769 9.25679 190.769 9.25679 190.911C9.11495 191.053 9.11495 191.053 8.97311 191.195L8.83127 191.337C8.68944 191.478 8.68944 191.478 8.54761 191.62L8.40577 191.762C8.40577 191.762 8.40577 191.762 8.26393 191.904C8.26393 191.904 8.26394 192.046 8.12211 192.046C7.98027 192.188 7.83843 192.329 7.83843 192.329C7.83843 192.329 7.83843 192.471 7.69659 192.471C7.69659 192.471 7.6966 192.471 7.55477 192.613C7.55477 192.755 7.41293 192.755 7.41293 192.897L7.27109 193.039C7.27109 193.039 7.27109 193.18 7.12925 193.18L6.98743 193.322C6.98743 193.322 6.98742 193.464 6.84559 193.464C6.84559 193.606 6.70375 193.606 6.70375 193.748C6.70375 193.748 6.70375 193.89 6.56191 193.89C6.42008 194.031 6.42008 194.173 6.27825 194.315C6.27825 194.315 6.27825 194.315 6.27825 194.457C6.27825 194.599 6.13641 194.599 6.13641 194.741C6.13641 194.741 6.13641 194.882 5.99457 194.882C5.99457 194.882 5.99457 195.024 5.85273 195.024V195.166C5.85273 195.308 5.71091 195.45 5.71091 195.45C5.71091 195.592 5.56907 195.733 5.56907 195.875C5.56907 195.875 5.56907 195.875 5.56907 196.017V196.159C5.56907 196.301 5.56907 196.301 5.42723 196.443V196.584V196.726V196.868C5.42723 197.01 5.42723 197.01 5.42723 197.152C5.42723 197.294 5.42723 197.294 5.42723 197.436C5.42723 197.436 5.42723 197.436 5.42723 197.577V197.719C5.42723 197.861 5.42723 198.003 5.42723 198.145V198.287C5.42723 198.428 5.42723 198.428 5.42723 198.57V198.712C5.42723 198.854 5.42723 199.138 5.42723 199.279C5.42723 200.556 5.85274 201.549 6.56191 202.116C6.70375 202.258 6.70375 202.258 6.84559 202.4L10.1078 204.244C9.25678 203.676 8.68945 202.683 8.68945 201.123C8.68945 200.981 8.68945 200.698 8.68945 200.556C8.97312 199.989 8.97311 199.847 8.97311 199.847Z" fill="#231F20"/>
<path d="M13.7955 192.186C16.4904 190.626 18.6179 191.903 18.6179 195.023C18.6179 198.143 16.4904 201.831 13.7955 203.391C11.1006 204.951 8.9731 203.675 8.9731 200.555C8.9731 197.434 11.1006 193.747 13.7955 192.186Z" fill="#2B2B2B"/>
<path d="M15.4975 203.677C15.4975 203.535 15.4975 203.393 15.4975 203.393C15.4975 203.251 15.4975 203.109 15.4975 202.967C15.4975 202.826 15.4975 202.826 15.4975 202.684C15.4975 202.542 15.4975 202.542 15.4975 202.4C15.4975 202.258 15.4975 202.116 15.6394 202.116V201.975C15.6394 201.833 15.7812 201.691 15.7812 201.549V201.407C15.7812 201.265 15.923 200.982 16.0649 200.84C16.0649 200.698 16.2067 200.556 16.3485 200.414C16.3485 200.414 16.3485 200.273 16.4904 200.273C16.6322 200.131 16.6322 199.989 16.774 199.847C16.774 199.847 16.774 199.847 16.774 199.705C16.9159 199.563 16.9159 199.421 17.0577 199.138C17.0577 199.138 17.0577 198.996 17.1995 198.996C17.3414 198.854 17.3414 198.712 17.4832 198.712L17.6251 198.57C17.6251 198.429 17.7669 198.429 17.9087 198.287C17.9087 198.145 18.0506 198.145 18.0506 198.003C18.0506 197.861 18.1924 197.861 18.1924 197.861C18.3342 197.719 18.4761 197.578 18.4761 197.578L18.6179 197.436L18.7597 197.294C18.9016 197.152 18.9016 197.152 19.0434 197.01L19.1853 196.868C19.3271 196.727 19.3271 196.727 19.4689 196.585L19.6108 196.443C19.7526 196.301 19.8944 196.301 20.0363 196.159C20.1781 196.017 20.4618 195.876 20.6036 195.876C20.6036 195.876 20.7454 195.876 20.7454 195.734C20.8873 195.734 21.0291 195.592 21.0291 195.592C21.171 195.592 21.1709 195.592 21.3128 195.592H21.4546C21.5965 195.592 21.7383 195.592 21.7383 195.592H21.8801C22.022 195.592 22.1638 195.592 22.3056 195.592C22.4475 195.592 22.5893 195.592 22.7311 195.592C22.7311 195.592 22.7311 195.592 22.873 195.592C23.0148 195.592 23.0148 195.592 23.1566 195.734H23.2985C23.4403 195.734 23.5822 195.876 23.5822 195.876L20.3199 194.032C20.1781 194.032 20.1781 193.89 20.0363 193.89H19.8944H19.7526H19.6108C19.6108 193.89 19.6108 193.89 19.4689 193.89C19.3271 193.89 19.3271 193.89 19.3271 193.89H19.1853H19.0434H18.7597H18.6179H18.4761H18.3342H18.1924H18.0506H17.9087H17.7669C17.6251 193.89 17.4832 194.032 17.4832 194.032H17.3414C17.1995 194.174 16.9159 194.174 16.774 194.315C16.6322 194.457 16.4904 194.457 16.3485 194.599L16.2067 194.741C16.0649 194.883 16.0649 194.883 15.923 195.025L15.7812 195.166C15.6394 195.308 15.6394 195.308 15.4975 195.45L15.3557 195.592C15.3557 195.592 15.3557 195.592 15.2139 195.734C15.2139 195.734 15.2138 195.876 15.072 195.876C14.9302 196.017 14.7883 196.159 14.7883 196.159C14.7883 196.159 14.7883 196.301 14.6465 196.301C14.6465 196.301 14.6465 196.301 14.5047 196.443C14.5047 196.585 14.3628 196.585 14.3628 196.727L14.221 196.868C14.221 196.868 14.221 197.01 14.0792 197.01L13.9373 197.152C13.9373 197.152 13.9373 197.294 13.7955 197.294C13.7955 197.436 13.6536 197.436 13.6536 197.578C13.6536 197.578 13.6537 197.719 13.5118 197.719C13.37 197.861 13.37 198.003 13.2281 198.145C13.2281 198.145 13.2281 198.145 13.2281 198.287C13.2281 198.429 13.0863 198.429 13.0863 198.57V198.712C13.0863 198.712 13.0863 198.854 12.9445 198.854V198.996C12.9445 199.138 12.8026 199.28 12.8026 199.28C12.8026 199.422 12.6608 199.563 12.6608 199.705C12.6608 199.705 12.6608 199.705 12.6608 199.847V199.989C12.6608 200.131 12.6608 200.131 12.519 200.273V200.414V200.556V200.698C12.519 200.84 12.519 200.84 12.519 200.982C12.519 201.124 12.519 201.124 12.519 201.265C12.519 201.265 12.519 201.265 12.519 201.407V201.549C12.519 201.691 12.519 201.833 12.519 201.975V202.116C12.519 202.258 12.519 202.258 12.519 202.4V202.542C12.519 202.684 12.519 202.967 12.519 203.109C12.519 204.386 12.9445 205.379 13.6536 205.946C13.7955 206.088 13.7955 206.088 13.9373 206.23L17.1995 208.074C16.3485 207.506 15.7812 206.513 15.7812 204.953C15.7812 204.811 15.7812 204.528 15.7812 204.386C15.4975 203.677 15.4975 203.677 15.4975 203.677Z" fill="#231F20"/>
<path d="M20.3199 195.877C23.0148 194.317 25.1423 195.593 25.1423 198.714C25.1423 201.834 23.0148 205.522 20.3199 207.082C17.6251 208.642 15.4975 207.366 15.4975 204.245C15.4975 201.267 17.6251 197.437 20.3199 195.877Z" fill="#2B2B2B"/>
<path d="M163.999 139.003V161.555L155.205 166.661L155.347 143.967L163.999 139.003Z" fill="#939598"/>
<path d="M155.347 143.963L155.205 166.656L132.512 153.466V130.914L155.347 143.963Z" fill="#808285"/>
<path d="M163.999 139L155.347 143.964L132.512 130.915L141.305 125.809L163.999 139Z" fill="#E6E7E8"/>
<path d="M157.333 39.9971L157.049 139.14L153.645 141.126L153.929 41.9828L157.333 39.9971Z" fill="#A7A9AC"/>
<path d="M153.929 41.9843L153.645 141.127L139.036 132.759L139.32 33.616L153.929 41.9843Z" fill="#D5D7E3"/>
<path d="M157.333 39.9979L153.929 41.9836L139.32 33.6153L142.724 31.6296L157.333 39.9979Z" fill="#909294"/>
<path d="M188.395 189.636L188.253 193.607L95.7762 247.363V243.392L188.395 189.636Z" fill="#6D6E71"/>
<path d="M95.7762 243.392V247.363L2.73228 193.607V189.636L95.7762 243.392Z" fill="#6D6E71"/>
<path d="M188.395 189.634L95.7762 243.39L2.73219 189.634L95.2088 135.879L188.395 189.634Z" fill="#1E1B1C"/>
<path d="M190.522 169.49V189.205L95.7763 244.237L95.9181 224.38L190.522 169.49Z" fill="#BCBEC0"/>
<path d="M95.9181 224.38L95.7763 244.237L0.462921 189.205L0.604744 169.49L95.9181 224.38Z" fill="#BCBEC0"/>
<path d="M190.522 169.491L95.918 224.381L0.604691 169.491L95.2089 114.458L190.522 169.491Z" fill="#D1D3D4"/>
<path d="M188.395 165.238L188.253 169.21L95.7762 222.965V218.994L188.395 165.238Z" fill="#D1D3D4"/>
<path d="M95.7762 218.994V222.965L2.73228 169.21V165.238L95.7762 218.994Z" fill="#D1D3D4"/>
<path d="M188.395 165.237L95.7762 218.993L2.73219 165.237L95.2088 111.482L188.395 165.237Z" fill="#F1F2F2"/>
<path d="M121.448 34.8914L125.562 35.175L127.122 36.1679L123.009 35.7424L121.448 34.8914Z" fill="#161314"/>
<path d="M123.009 35.7419L127.122 36.1675L126.98 36.593L122.867 36.3093L123.009 35.7419Z" fill="#121011"/>
<path d="M130.668 10.7778L134.923 11.0615L125.562 35.1735L121.448 34.8898L130.668 10.7778Z" fill="#121011"/>
<path d="M124.711 31.4888L128.824 31.7724L127.122 36.1693L123.009 35.7438L124.711 31.4888Z" fill="#121011"/>
<path d="M127.973 4.25415L132.086 4.67966L119.747 36.5926L115.633 36.3089L127.973 4.25415Z" fill="#616263"/>
<path d="M122.867 36.3098L126.98 36.5935L132.228 39.572L127.973 39.2884L122.867 36.3098Z" fill="#161314"/>
<path d="M128.257 38.7212L132.37 39.1467L132.228 39.5722L127.973 39.2885L128.257 38.7212Z" fill="#793224"/>
<path d="M130.668 10.7778L134.923 11.0615L128.682 27.0889L124.569 26.6634L130.668 10.7778Z" fill="#121011"/>
<path d="M124.711 31.4888L128.824 31.7724L134.072 34.8928L129.817 34.4673L124.711 31.4888Z" fill="#923C2B"/>
<path d="M129.817 34.4673L134.072 34.8928L132.37 39.1478L128.257 38.7223L129.817 34.4673Z" fill="#793224"/>
<path d="M129.817 34.4673L128.257 38.7224L127.973 39.2897L122.867 36.3112L123.009 35.7438L124.711 31.4888L129.817 34.4673Z" fill="#D7583F"/>
<path d="M128.257 38.7212L132.37 39.1467L135.49 40.8487L131.235 40.565L128.257 38.7212Z" fill="#161314"/>
<path d="M131.235 40.5637L135.49 40.8474L135.348 41.4147L131.093 40.9892L131.235 40.5637Z" fill="#121011"/>
<path d="M132.937 36.3098L137.192 36.5935L135.49 40.8485L131.235 40.5649L132.937 36.3098Z" fill="#121011"/>
<path d="M131.093 40.991L135.348 41.4165L140.454 44.395L136.341 43.9695L131.093 40.991Z" fill="#161314"/>
<path d="M136.483 43.5432L140.738 43.8269L140.454 44.3942L136.341 43.9687L136.483 43.5432Z" fill="#186A3B"/>
<path d="M138.185 39.2891L142.298 39.5727L140.738 43.8278L136.483 43.5441L138.185 39.2891Z" fill="#186A3B"/>
<path d="M132.937 36.3098L137.192 36.5935L142.298 39.572L138.185 39.2884L132.937 36.3098Z" fill="#1D7F47"/>
<path d="M139.603 45.3896L143.717 45.6733L143.575 46.0988L139.462 45.8152L139.603 45.3896Z" fill="#121011"/>
<path d="M136.483 43.5432L140.738 43.8269L143.717 45.6707L139.603 45.3871L136.483 43.5432Z" fill="#161314"/>
<path d="M141.164 40.991L145.419 41.4165L143.717 45.6715L139.603 45.3879L141.164 40.991Z" fill="#121011"/>
<path d="M139.462 45.813L143.575 46.0967L148.823 49.0752L144.568 48.7915L139.462 45.813Z" fill="#161314"/>
<path d="M144.709 48.3691L148.964 48.6528L148.823 49.0783L144.568 48.7947L144.709 48.3691Z" fill="#616263"/>
<path d="M146.411 44.1091L150.667 44.3928L148.964 48.6479L144.709 48.3642L146.411 44.1091Z" fill="#616263"/>
<path d="M141.164 40.991L145.419 41.4165L150.667 44.395L146.411 44.1113L141.164 40.991Z" fill="#757778"/>
<path d="M146.411 44.1113L144.709 48.3664L144.568 48.7919L139.462 45.8134L139.603 45.3879L141.164 40.991L146.411 44.1113Z" fill="#ADAFB1"/>
<path d="M147.83 50.0669L152.085 50.4924L151.801 50.9179L147.688 50.6342L147.83 50.0669Z" fill="#121011"/>
<path d="M144.709 48.3691L148.965 48.6528L152.085 50.4967L147.83 50.0712L144.709 48.3691Z" fill="#161314"/>
<path d="M149.532 45.813L153.645 46.2385L152.085 50.4936L147.83 50.0681L149.532 45.813Z" fill="#121011"/>
<path d="M147.688 50.6328L151.801 50.9165L157.049 53.895L152.936 53.6114L147.688 50.6328Z" fill="#161314"/>
<path d="M153.078 53.189L157.191 53.4726L157.049 53.8981L152.936 53.6145L153.078 53.189Z" fill="#616263"/>
<path d="M154.78 48.7922L158.893 49.2177L157.191 53.4728L153.078 53.1891L154.78 48.7922Z" fill="#616263"/>
<path d="M149.532 45.813L153.645 46.2385L158.893 49.217L154.78 48.7915L149.532 45.813Z" fill="#757778"/>
<path d="M153.078 53.189L157.191 53.4726L160.311 55.1747L156.198 54.891L153.078 53.189Z" fill="#161314"/>
<path d="M156.198 54.8918L160.311 55.1755L160.17 55.7429L155.914 55.3174L156.198 54.8918Z" fill="#121011"/>
<path d="M157.758 50.6328L162.013 50.9165L160.311 55.1715L156.198 54.8879L157.758 50.6328Z" fill="#121011"/>
<path d="M155.914 55.3159L160.169 55.7414L165.276 58.72L161.162 58.4363L155.914 55.3159Z" fill="#161314"/>
<path d="M161.304 57.8691L165.559 58.2947L165.276 58.7202L161.162 58.4365L161.304 57.8691Z" fill="#616263"/>
<path d="M157.758 50.6328L162.013 50.9165L167.119 53.895L163.006 53.6114L157.758 50.6328Z" fill="#757778"/>
<path d="M161.304 57.8691L165.559 58.2947L167.119 59.1457L162.864 58.862L161.304 57.8691Z" fill="#161314"/>
<path d="M163.006 53.6121L167.119 53.8957L165.559 58.2926L161.304 57.8671L163.006 53.6121Z" fill="#616263"/>
<path d="M165.985 50.6328L170.24 51.0583L167.119 59.1429L162.864 58.8593L165.985 50.6328Z" fill="#121011"/>
<path d="M163.006 53.6114L161.304 57.8664L161.162 58.4338L155.914 55.3134L156.198 54.8879L157.758 50.6328L163.006 53.6114Z" fill="#ADAFB1"/>
<path d="M115.633 36.3098L119.746 36.5935L169.956 65.5279L165.701 65.2442L115.633 36.3098Z" fill="#757778"/>
<path d="M172.226 34.748L165.985 50.6336L124.569 26.6634L130.668 10.7778L172.226 34.748Z" fill="#177FC0"/>
<path d="M172.226 34.7507L176.339 35.0344L170.24 51.0618L165.985 50.6363L172.226 34.7507Z" fill="#2E2E2F"/>
<path d="M130.668 10.7778L134.923 11.0615L176.339 35.0317L172.226 34.748L130.668 10.7778Z" fill="#373839"/>
<path d="M127.973 4.25415L132.086 4.67966L182.296 33.6141L178.041 33.1886L127.973 4.25415Z" fill="#161314"/>
<path d="M178.041 33.1887L182.296 33.6142L169.956 65.5272L165.701 65.2435L178.041 33.1887Z" fill="#121011"/>
<path d="M111.662 37.3029L167.545 69.6414L182.012 32.3387L126.129 0.000244141L111.662 37.3029ZM165.701 65.2445L115.633 36.3101L127.973 4.2553L178.041 33.1897L165.701 65.2445Z" fill="#E6E7E8"/>
<path d="M121.448 34.8903L123.009 35.7413L124.711 31.4862L129.817 34.4648L128.257 38.7198L131.235 40.5637L132.937 36.3086L138.185 39.2872L136.483 43.5422L139.603 45.3861L141.164 40.9892L146.411 44.1096L144.709 48.3646L147.83 50.0666L149.532 45.8116L154.78 48.7901L153.078 53.187L156.198 54.889L157.758 50.634L163.006 53.6125L161.304 57.8676L162.864 58.8604L165.985 50.634L124.569 26.6638L121.448 34.8903Z" fill="#201D1D"/>
<path d="M178.041 33.1886L165.701 65.2433L115.633 36.3089L127.973 4.25415L178.041 33.1886ZM162.864 58.8608L165.985 50.6343L172.226 34.7487L130.668 10.7786L121.307 34.8906L123.009 35.7416L122.867 36.1671L127.973 39.2875L128.257 38.7201L131.235 40.564L131.093 40.9895L136.341 43.968L136.483 43.5425L139.603 45.3864L139.462 45.8119L144.568 48.7904L144.709 48.3649L147.83 50.067L147.688 50.4925L152.936 53.6128L153.078 53.1873L156.198 54.8894L155.914 55.3149L161.162 58.4352L161.304 57.8679L162.864 58.8608Z" fill="#201D1D"/>
<path d="M131.235 40.5649L131.093 40.9904L136.341 43.9689L136.483 43.5434L138.185 39.2884L132.937 36.3098L131.235 40.5649Z" fill="#2ABC68"/>
<path d="M154.78 48.7915L153.078 53.1884L152.936 53.6139L147.688 50.6354L147.83 50.0681L149.532 45.813L154.78 48.7915Z" fill="#ADAFB1"/>
<path d="M126.129 0L130.242 0.283671L186.125 32.6221L182.012 32.3385L126.129 0Z" fill="#F1F2F2"/>
<path d="M182.012 32.3362L186.125 32.6199L171.8 69.9225L167.545 69.6389L182.012 32.3362Z" fill="#BCBEC0"/>
<path d="M136.908 136.444V172.47L93.365 198.001V161.974L136.908 136.444Z" fill="#F5BC6F"/>
<path d="M93.365 161.974V198L49.396 172.753V136.727L93.365 161.974Z" fill="#FFCF7A"/>
<path d="M136.908 136.444L93.365 161.975L49.396 136.728L92.9395 111.198L136.908 136.444Z" fill="#FCD495"/>
<path d="M119.463 174.881L100.173 186.086V165.946L119.463 154.741V174.881Z" fill="#F1F2F2"/>
<path d="M117.76 164.387L116.767 164.954V158.714L117.76 158.146V164.387Z" fill="#6D6E71"/>
<path d="M115.775 165.523L114.782 166.09V159.991L115.775 159.282V165.523Z" fill="#6D6E71"/>
<path d="M113.789 166.656L112.655 167.223V161.124L113.647 160.557L113.789 166.656Z" fill="#6D6E71"/>
<path d="M111.662 169.067L110.669 169.634V162.259L111.662 161.692V169.067Z" fill="#6D6E71"/>
<path d="M109.676 169.067L108.683 169.635L108.541 163.536L109.676 162.968V169.067Z" fill="#6D6E71"/>
<path d="M107.549 170.203L106.556 170.912V164.671L107.549 164.104V170.203Z" fill="#6D6E71"/>
<path d="M105.563 172.613L104.57 173.181V165.805L105.563 165.238V172.613Z" fill="#6D6E71"/>
<path d="M103.577 172.612L102.442 173.18V167.081L103.435 166.513L103.577 172.612Z" fill="#6D6E71"/>
<path d="M117.903 173.181L102.442 182.259V181.692L117.903 172.614V173.181Z" fill="#6D6E71"/>
<path d="M117.903 170.912L102.442 179.848V179.281L117.903 170.203V170.912Z" fill="#6D6E71"/>
<path d="M117.903 168.5L102.442 177.578V177.01L117.903 167.933V168.5Z" fill="#6D6E71"/>
<path d="M64.288 172.753C63.1533 172.044 62.1605 170.484 62.1605 169.207V166.37L66.4155 168.782V171.618C66.4155 172.895 65.4227 173.32 64.288 172.753Z" fill="#CF9975"/>
<path d="M64.4304 176.725C64.2886 176.725 64.2886 176.583 64.2886 176.441V171.193C64.2886 171.051 64.4304 171.051 64.4304 171.051C64.5723 171.051 64.5723 171.193 64.5723 171.335V176.583C64.5723 176.725 64.5723 176.725 64.4304 176.725Z" fill="#CF9975"/>
<path d="M66.4161 177.859L62.4448 175.59C62.3029 175.59 62.3029 175.448 62.3029 175.306C62.3029 175.165 62.4448 175.165 62.4448 175.165L66.4161 177.434C66.558 177.434 66.558 177.576 66.558 177.718C66.558 177.859 66.558 177.859 66.4161 177.859Z" fill="#CF9975"/>
<path d="M69.5366 173.888C69.1111 173.604 68.8274 173.604 68.5438 173.746C68.6856 171.477 70.2458 170.484 72.3733 171.76C74.5009 172.895 76.2029 175.874 76.2029 178.285C75.9192 177.859 75.4937 177.434 75.0682 177.15C74.5009 176.725 73.9335 176.867 73.6498 177.434C73.3662 176.725 72.9407 176.016 72.2315 175.59C71.6641 175.165 71.0968 175.306 70.8131 175.874C70.6713 175.023 70.104 174.313 69.5366 173.888Z" fill="#CF9975"/>
<path d="M71.0968 180.553L70.3876 180.127C70.2457 180.127 70.2458 179.985 70.2458 179.843C70.2458 179.702 70.3876 179.702 70.3876 179.702L71.0968 180.127C71.6641 180.411 72.2315 180.127 72.2315 179.56V174.879C72.2315 174.737 72.3733 174.737 72.3733 174.737C72.5151 174.737 72.5151 174.879 72.5151 175.021V179.702C72.5151 180.553 71.9478 180.978 71.0968 180.553Z" fill="#CF9975"/>
<path d="M55.2112 168.642L54.7857 166.089L52.8 165.663L53.2255 166.231L52.5163 167.224C52.5163 167.365 52.5163 167.507 52.5163 167.649L53.5092 170.202L54.7857 168.358L55.2112 168.642Z" fill="#CF9975"/>
<path d="M54.9276 168.642L53.7929 170.203L56.3459 171.621V169.493L54.9276 168.642Z" fill="#CF9975"/>
<path d="M58.6153 170.769V170.201L57.0551 170.91L58.6153 173.463V172.896L59.8918 173.605C60.0336 173.747 60.1755 173.605 60.1755 173.605L61.1683 172.187L58.6153 170.769Z" fill="#CF9975"/>
<path d="M61.1683 171.904L59.8918 168.642L58.3316 168.784L59.0408 170.77L61.1683 171.904Z" fill="#CF9975"/>
<path d="M58.7571 165.948L58.0479 164.245C58.0479 164.104 57.906 163.962 57.7642 163.82L55.7785 162.685L57.1969 166.089H56.7714L58.7571 167.933L59.1826 165.948H58.7571Z" fill="#CF9975"/>
<path d="M55.6367 162.684L54.3602 164.528L55.9204 166.514L56.6296 165.379L55.6367 162.684Z" fill="#CF9975"/>
<path d="M67.2672 147.65L73.3661 151.055L117.761 125.524L111.662 122.12L67.2672 147.65Z" fill="#CF9975"/>
<path d="M67.4091 161.549L73.3662 165.095V151.195L67.2673 147.649L67.4091 161.549Z" fill="#CF9975"/>
<path d="M137.618 98.0063V134.033L94.0742 159.563V123.537L137.618 98.0063Z" fill="#F5BC6F"/>
<path d="M94.0742 123.536V159.563L50.1053 134.316L49.9634 98.2898L94.0742 123.536Z" fill="#FFCF7A"/>
<path d="M137.618 98.0077L94.0742 123.538L49.9634 98.2913L93.6487 72.761L137.618 98.0077Z" fill="#FCD495"/>
<path d="M120.172 136.445L100.882 147.65V127.509L120.172 116.304V136.445Z" fill="#F1F2F2"/>
<path d="M118.469 125.95L117.476 126.518V120.277L118.469 119.71V125.95Z" fill="#6D6E71"/>
<path d="M116.484 127.084L115.491 127.651L115.35 121.552L116.484 120.985V127.084Z" fill="#6D6E71"/>
<path d="M114.357 128.219L113.364 128.928V122.687L114.357 122.12V128.219Z" fill="#6D6E71"/>
<path d="M112.371 130.63L111.378 131.197V123.822L112.371 123.255V130.63Z" fill="#6D6E71"/>
<path d="M110.385 130.631L109.251 131.198V125.099L110.243 124.532L110.385 130.631Z" fill="#6D6E71"/>
<path d="M108.258 131.766L107.265 132.476V126.235L108.258 125.667V131.766Z" fill="#6D6E71"/>
<path d="M106.272 134.177L105.279 134.744V127.511L106.272 126.802V134.177Z" fill="#6D6E71"/>
<path d="M104.144 134.175L103.152 134.743V128.644L104.144 128.076V134.175Z" fill="#6D6E71"/>
<path d="M118.612 134.745L103.152 143.822V143.255L118.612 134.177V134.745Z" fill="#6D6E71"/>
<path d="M118.612 132.476L103.01 141.411V140.844L118.612 131.767V132.476Z" fill="#6D6E71"/>
<path d="M118.612 130.064L103.01 139.142V138.574L118.612 129.497V130.064Z" fill="#6D6E71"/>
<path d="M64.998 134.317C63.8633 133.608 62.8704 132.048 62.8704 130.771V127.934L66.9836 130.346V133.182C67.1255 134.459 66.1326 135.026 64.998 134.317Z" fill="#CF9975"/>
<path d="M65.1398 138.288C64.998 138.288 64.998 138.146 64.998 138.004V132.756C64.998 132.614 65.1398 132.614 65.1398 132.614C65.2816 132.614 65.2816 132.756 65.2816 132.898V138.146C65.2816 138.288 65.2816 138.288 65.1398 138.288Z" fill="#CF9975"/>
<path d="M67.1254 139.422L63.154 137.153C63.0122 137.153 63.0122 137.011 63.0122 136.869C63.0122 136.727 63.154 136.727 63.154 136.727L67.1254 138.996C67.2673 138.996 67.2673 139.138 67.2673 139.28C67.2673 139.422 67.2673 139.422 67.1254 139.422Z" fill="#CF9975"/>
<path d="M70.2458 135.452C69.8203 135.168 69.5367 135.168 69.253 135.31C69.253 133.041 70.955 132.048 73.0826 133.324C75.0683 134.459 76.7703 137.437 76.9121 139.849C76.6284 139.423 76.2029 138.998 75.7774 138.714C75.2101 138.288 74.6428 138.43 74.3591 138.998C74.0754 138.288 73.6499 137.579 72.9407 137.154C72.3734 136.728 71.806 136.87 71.5224 137.437C71.3805 136.586 70.8132 135.877 70.2458 135.452Z" fill="#CF9975"/>
<path d="M71.806 142.116L71.0968 141.69C70.955 141.69 70.955 141.548 70.955 141.406C70.955 141.265 71.0968 141.265 71.0968 141.265L71.806 141.69C72.3734 141.974 72.9407 141.69 72.9407 141.123V136.442C72.9407 136.3 73.0825 136.3 73.0825 136.3C73.2244 136.3 73.2244 136.442 73.2244 136.584V141.265C73.2244 142.116 72.657 142.541 71.806 142.116Z" fill="#CF9975"/>
<path d="M55.9205 130.205L55.495 127.652L53.5093 127.227L53.9348 127.652L53.2256 128.645C53.2256 128.787 53.2256 128.929 53.2256 129.071L54.2185 131.482L55.495 129.638L55.9205 130.205Z" fill="#CF9975"/>
<path d="M55.6367 130.205L54.5021 131.765L57.0551 133.183V131.056L55.6367 130.205Z" fill="#CF9975"/>
<path d="M59.3245 132.332V131.765L57.7643 132.474L59.3245 135.027V134.46L60.601 135.169C60.7429 135.311 60.8847 135.169 60.8847 135.169L61.8776 133.751L59.3245 132.332Z" fill="#CF9975"/>
<path d="M61.8776 133.61L60.601 130.206L59.0408 130.348L59.75 132.334L61.8776 133.61Z" fill="#CF9975"/>
<path d="M59.4663 127.51L58.7572 125.808C58.7572 125.666 58.6153 125.524 58.4735 125.382L56.4878 124.248L57.9062 127.652H57.4807L59.4663 129.496L59.8918 127.51H59.4663Z" fill="#CF9975"/>
<path d="M56.346 124.248L55.0695 126.092L56.6297 128.077L57.3389 127.085L56.346 124.248Z" fill="#CF9975"/>
<path d="M67.9765 109.212L74.0754 112.757L118.328 87.227L112.229 83.823L67.9765 109.212Z" fill="#CF9975"/>
<path d="M67.9765 123.112L74.0754 126.658V112.758L67.9765 109.212V123.112Z" fill="#CF9975"/>
</svg>
