<svg width="122" height="238" viewBox="0 0 122 238" fill="none" xmlns="http://www.w3.org/2000/svg">
<path d="M117.025 144.2C117.025 143.523 117.16 142.981 117.16 142.304C117.295 141.627 117.295 140.949 117.43 140.408V140.272C118.24 137.97 117.7 134.177 117.835 132.281L112.702 131.333C111.756 132.281 110 133.636 109.054 135.125C108.514 135.803 107.703 136.344 107.703 137.157C107.568 138.376 107.433 138.918 107.298 140.001C107.298 140.949 106.758 141.762 106.758 142.71C106.758 143.523 106.893 144.742 108.109 144.2C108.784 143.929 108.919 142.168 109.054 141.491C109.189 140.949 109.46 140.408 109.73 139.866C109.865 140.001 110.135 140.137 110.27 140.272C110.405 140.679 110.27 141.22 110.27 141.627C110.27 142.033 110.27 142.575 110.27 142.981C110.27 143.523 110.405 144.2 110.135 144.742C109.46 145.825 108.649 146.773 108.244 147.992C108.109 148.534 108.379 149.482 109.189 149.076C109.595 148.94 109.73 148.534 110 148.263C110.27 147.992 110.54 147.722 110.811 147.315L110.946 147.18C110.811 147.451 110.675 147.857 110.405 148.128C110.135 148.67 109.46 149.482 109.595 150.159C109.73 151.108 110.54 151.108 111.216 150.566C111.351 150.43 111.486 150.295 111.621 150.024C111.621 150.159 111.621 150.159 111.621 150.295C111.621 150.566 111.891 150.972 112.161 150.972C112.432 150.972 112.702 150.566 112.837 150.43C113.107 150.024 113.512 149.618 113.782 149.347C114.188 148.94 114.323 148.67 114.593 148.263C114.593 148.67 114.593 149.211 114.998 149.211C115.133 149.211 115.404 148.94 115.539 148.805C115.809 148.534 115.809 148.399 115.944 148.128C116.349 147.315 116.754 146.638 117.025 145.69C117.025 145.148 117.025 144.742 117.025 144.2Z" fill="#FED8A7"/>
<path d="M108.92 215.308C109.46 216.391 110.271 224.112 109.73 225.06C109.055 226.279 107.839 227.633 105.542 227.362C103.246 227.091 101.49 224.518 99.8687 224.247C98.3827 223.976 93.2493 221.674 89.872 219.913C88.1159 218.965 85.8193 215.85 86.3597 213.953C86.765 212.599 89.4668 211.109 90.4124 211.38C93.6545 212.193 95.0054 212.057 97.1669 212.464C99.1932 212.87 98.788 212.87 100.814 213.005C101.625 213.005 105.407 212.734 105.407 214.089L108.92 215.308Z" fill="#1E160D"/>
<path d="M111.621 140.812C110.676 146.365 111.216 151.918 110.676 157.471C110 164.108 111.486 171.828 108.514 177.923C107.569 179.819 104.732 182.934 101.084 182.663C98.9228 182.528 94.3298 181.986 94.735 180.496C95.0052 179.006 93.7894 176.298 93.7894 174.808C93.9245 172.234 93.5192 156.929 93.249 152.053C92.9789 147.99 93.1139 145.552 92.9789 141.083C92.9789 141.083 92.1683 131.466 101.76 132.55C111.351 133.769 111.756 140.134 111.621 140.812Z" fill="#08273A"/>
<path d="M109.73 178.874C109.19 175.353 109.46 172.508 109.325 168.581C109.19 165.736 93.9244 169.122 93.7893 176.165C93.7893 176.165 97.1665 203.525 95.2753 212.193L95.1402 213.683C95.1402 213.683 95.4104 216.933 99.5982 219.371C102.435 220.997 108.379 221.809 109.595 219.371C112.567 213.683 111.756 190.793 109.73 178.874Z" fill="#08273A"/>
<path d="M91.2226 225.598C91.6279 226.817 93.9244 230.881 92.7086 234.944C92.3034 236.298 90.6823 237.517 88.3857 236.975C87.5752 236.705 84.4681 233.996 82.712 233.589C81.226 233.319 75.4171 230.745 74.0662 229.932C72.8504 229.255 71.3644 228.578 70.5539 227.359C69.4732 226.005 68.5275 223.702 69.203 221.806C69.7433 220.452 70.689 219.774 71.6346 220.045C74.8768 220.993 77.4435 220.722 79.6049 221.264C81.6313 221.67 82.3067 221.941 84.333 222.077C85.1436 222.212 88.9261 221.941 88.791 223.431L91.2226 225.598Z" fill="#1E160D"/>
<path d="M98.1119 147.992C96.8961 153.41 97.8417 159.369 97.0312 164.923C96.0856 171.424 97.1663 179.279 93.9241 185.239C92.9785 187 89.8714 189.979 86.224 189.573C84.0626 189.302 80.4152 188.49 79.8748 187.135C79.4695 185.645 79.0643 182.801 79.1993 181.447C79.4695 178.873 79.7397 163.568 79.7397 158.692C79.7397 154.629 79.7397 144.335 80.9555 138.511C80.9555 138.511 80.5502 133.906 90.2767 134.854C98.5172 135.803 98.247 147.315 98.1119 147.992Z" fill="#0B2F49"/>
<path d="M95.5455 190.655C95.1403 187.133 95.6806 184.289 95.6806 180.361C95.6806 177.517 80.1453 177.246 79.6049 184.289C79.6049 184.289 82.3067 213.138 80.0102 221.806L79.74 223.296C79.74 223.296 78.9295 225.057 80.0102 226.547C80.6857 227.901 82.1716 229.256 84.0629 229.798C86.7647 230.475 92.5736 230.881 93.1139 228.172C95.1403 219.233 97.0315 202.709 95.5455 190.655Z" fill="#0B2F49"/>
<path d="M36.2413 175.894C35.0255 176.165 34.35 177.79 33.8097 178.738C33.1342 179.957 32.8641 181.718 34.35 183.479C35.836 185.239 38.9431 185.239 40.1589 186.458C41.2396 187.542 45.9678 190.386 49.4801 192.282C51.2363 193.23 55.1539 193.366 56.2346 191.741C57.0451 190.657 56.7749 187.542 56.0995 186.865C53.5328 184.698 52.9924 183.479 51.3714 181.853C49.8854 180.363 50.1555 180.77 48.9397 179.144C48.3994 178.467 46.5081 175.217 45.4274 176.029L36.2413 175.894Z" fill="#1E160D"/>
<path d="M29.4868 104.11C30.5675 109.663 30.0272 115.216 30.7026 120.634C31.5132 127.27 30.2974 134.991 33.2693 141.085C34.215 142.982 37.1869 145.961 40.8344 145.69C42.9958 145.555 47.4538 144.878 47.1836 143.388C46.9134 141.898 48.1292 139.054 47.9941 137.699C47.859 135.126 47.9941 119.956 48.1292 114.945C48.2643 110.882 48.1292 108.444 48.1292 103.974C48.1292 103.974 49.0748 95.7124 39.4835 97.0668C29.757 98.4212 29.3517 103.297 29.4868 104.11Z" fill="#525563"/>
<path d="M32.0534 140.81C32.5938 137.288 32.1885 134.444 32.1885 130.516C32.1885 127.672 47.5888 130.787 47.8589 137.83C47.8589 137.83 45.022 165.189 47.0484 173.858L47.3186 175.347C47.3186 175.347 47.7238 176.702 46.7782 177.65C46.6431 177.65 45.2922 178.869 43.2659 179.411C40.5641 180.088 37.0517 179.817 35.1605 177.785C30.5674 172.639 30.2973 152.729 32.0534 140.81Z" fill="#525563"/>
<path d="M15.0319 186.594C13.8161 186.865 13.1407 188.49 12.6003 189.439C11.9249 190.657 11.5196 192.554 13.1407 194.179C13.8161 194.856 17.7337 195.94 18.9495 197.159C20.0303 198.242 25.2988 201.899 26.6496 202.576C27.8655 203.254 29.2164 204.066 30.7023 204.202C32.4585 204.337 34.8901 203.931 36.1059 202.441C36.9165 201.357 37.0516 200.138 36.241 199.461C33.6743 197.294 32.5936 194.992 30.9725 193.366C29.4865 191.876 28.9462 191.47 27.7304 189.845C27.19 189.168 25.2988 185.917 24.218 186.73L15.0319 186.594Z" fill="#1E160D"/>
<path d="M17.1936 110.07C17.869 115.623 16.2479 121.447 16.383 127C16.6532 133.637 14.7619 141.222 17.1936 147.587C18.0041 149.484 20.7059 152.734 24.3533 152.734C26.5147 152.734 31.1078 152.463 30.8376 150.973C30.7025 149.484 32.0534 146.775 32.1885 145.42C32.3236 142.847 33.6745 127.677 34.2149 122.801C34.6201 118.738 35.0254 115.081 36.5114 111.153C36.5114 111.153 37.5921 102.621 27.8656 102.485C19.7603 102.485 17.0585 109.257 17.1936 110.07Z" fill="#5F6272"/>
<path d="M15.0322 151.376C15.8427 147.855 15.7076 145.011 15.9778 141.083C16.248 138.239 31.7833 139.728 31.5132 146.636C31.5132 146.636 25.9745 176.704 27.1903 185.508L27.3254 186.998C27.3254 186.998 27.7306 188.352 26.5148 189.165C26.3797 189.165 24.8938 190.248 22.8674 190.655C20.3007 191.061 16.7884 190.519 15.0322 188.352C10.8444 183.07 12.1953 163.16 15.0322 151.376Z" fill="#5F6272"/>
<path d="M43.6708 45.1883C46.2375 55.7528 49.8849 69.5679 53.6674 68.6198C55.1534 68.2135 60.4219 66.1819 59.4763 62.7958C57.3149 54.9402 58.2605 47.22 56.6394 40.5833C54.0727 30.0188 50.8305 28.7998 47.048 29.7479C43.1304 30.696 41.1041 34.6238 43.6708 45.1883Z" fill="#525563"/>
<path d="M48.6694 64.9641C49.2098 72.4134 51.2361 85.2804 54.7485 85.5513C55.9643 85.6867 59.2064 85.8222 60.017 83.7905C61.2328 80.5399 60.6924 70.5172 59.6117 63.6097C59.3415 62.1198 58.2608 61.7135 54.7485 61.3072C51.2361 60.9008 48.2642 60.2236 48.6694 64.9641Z" fill="#525563"/>
<path d="M29.3516 29.4776C28.4059 29.7485 19.7602 38.5523 15.4373 43.2927C12.4653 46.8142 12.0601 55.2116 12.0601 56.2952C12.1951 59.8167 17.0584 81.352 17.8689 86.2279C18.6795 91.1038 15.9777 107.086 15.9777 110.337C15.9777 113.316 19.0847 117.65 27.8656 117.65C33.4042 117.65 47.9939 114.942 48.9396 106.002C49.615 98.824 48.5343 63.7445 49.4799 59.8167C50.5606 56.0243 58.1257 35.9789 52.1817 30.5612C50.5606 29.2068 47.4536 28.3941 45.6974 28.5296C39.078 28.8004 30.4323 29.3422 29.3516 29.4776Z" fill="#6D7086"/>
<path d="M35.8358 26.3628C35.1603 26.3628 28.1357 26.9046 23.8128 33.8121C20.8408 38.688 26.6497 52.6386 26.2444 52.774C25.7041 52.9095 29.7567 50.7424 31.1076 51.9614C31.1076 51.9614 30.7024 55.7537 29.8918 56.9727C28.9462 58.1917 42.5903 67.1309 42.185 70.7878C42.185 70.7878 50.2904 48.4399 50.0202 45.0538C50.0202 44.1057 46.3728 43.0222 46.3728 43.0222C46.7781 41.8032 49.3448 40.1779 49.3448 40.1779C49.6149 38.4172 43.8061 25.5502 35.8358 26.3628Z" fill="#777B95"/>
<path d="M44.6166 46.5441C45.292 50.7428 44.8867 55.0769 44.2113 59.2757C43.4007 63.4744 42.7253 65.7769 42.1849 70.7882C38.8077 56.7023 38.2673 56.1605 33.9445 49.1175C32.4585 46.9504 30.8374 44.5125 29.2163 42.6163C27.8654 40.991 27.7303 38.4176 28.1356 36.6568C29.0812 32.8645 32.1883 33.1353 34.755 33.1353C38.8077 33.1353 42.0498 34.8961 43.6709 39.772C43.5358 39.772 44.2113 44.2416 44.6166 46.5441Z" fill="#CED2E7"/>
<path d="M43.6709 61.9838C43.4007 58.1915 41.1041 48.4396 40.2936 47.0852L38.4023 47.8979C38.4023 47.8979 39.348 54.3991 38.8076 58.3269C38.9427 58.5978 42.1849 70.7876 42.1849 70.7876C42.7252 67.9433 43.2656 64.9636 43.6709 61.9838Z" fill="#030E16"/>
<path d="M36.2412 45.4615C36.2412 45.4615 38.4026 48.7121 39.2132 48.4412C40.1588 48.3058 41.1044 48.8476 41.3746 44.9197C41.6448 40.9919 37.7272 42.6172 36.2412 45.4615Z" fill="#030E16"/>
<path d="M39.3482 32.4585C41.3745 33.8129 42.1851 38.9597 42.3202 41.1268C42.4553 43.023 42.4553 45.0546 41.7798 47.0863C41.5096 46.0027 40.6991 44.3774 39.7535 43.7002C38.4026 43.023 38.5377 43.4293 37.8622 44.3774C36.9166 45.7318 36.3762 48.3052 35.0253 49.2533C34.485 47.628 34.0797 46.1382 32.7288 44.7837C31.6481 43.5648 30.4323 42.3458 29.0814 41.3977C25.7041 39.0952 24.7585 32.594 28.1357 30.2914C34.0797 26.0927 39.3482 32.4585 39.3482 32.4585Z" fill="white"/>
<path d="M0.982662 119.683C1.11775 119.005 1.25284 118.464 1.38793 117.787C1.52302 117.109 1.65811 116.432 1.7932 115.89V115.755C1.7932 113.317 3.54937 109.795 4.08973 108.035L9.35823 109.118C9.89859 110.337 11.1144 112.098 11.5197 113.859C11.7898 114.671 12.06 115.349 12.06 116.297C12.06 117.516 11.7898 118.057 11.3846 119.141C11.2495 119.818 11.3846 120.902 11.1144 121.714C10.8442 122.527 10.3039 123.611 9.35823 122.662C8.81787 122.121 9.22314 120.495 9.35823 119.818C9.35823 119.276 9.35823 118.735 9.22314 118.057C8.95296 118.193 8.68278 118.328 8.54769 118.328C8.27751 118.735 8.27751 119.141 8.14242 119.683C8.00733 120.089 7.87224 120.495 7.73715 120.902C7.60206 121.443 7.19679 121.985 7.33188 122.527C7.60206 123.881 8.00733 124.965 8.00733 126.319C8.00733 126.861 7.33188 127.674 6.79152 127.132C6.38625 126.861 6.38625 126.455 6.25116 126.048C6.11607 125.642 5.84589 125.236 5.7108 124.965C5.7108 124.829 5.7108 124.829 5.57571 124.694C5.57571 125.1 5.7108 125.371 5.7108 125.642C5.98098 126.319 6.25116 127.267 5.98098 127.809C5.57571 128.622 4.76518 128.351 4.35991 127.674C4.22482 127.403 4.22482 127.267 4.08973 126.997C4.08973 127.132 4.08973 127.132 3.95464 127.267C3.95464 127.538 3.54937 127.809 3.27919 127.674C3.1441 127.674 2.87392 127.132 2.87392 126.997C2.73883 126.59 2.60374 126.048 2.33356 125.642C2.06338 125.1 1.92829 124.829 1.92829 124.288C1.7932 124.694 1.65811 125.236 1.25284 125.1C1.11775 125.1 0.982662 124.694 0.847572 124.559C0.712482 124.152 0.847572 124.017 0.712482 123.746C0.712482 122.798 0.577393 121.985 0.577393 121.037C0.577393 120.631 0.847572 120.224 0.982662 119.683Z" fill="#FED8A7"/>
<path d="M8.68291 57.1088C4.36003 67.5379 0.172248 82.0302 3.95476 83.2492C5.44075 83.6555 12.0602 84.8745 13.0058 81.353C15.3023 73.091 20.0305 66.7252 22.1919 59.9531C25.5691 49.1178 23.5428 46.4089 19.7603 45.1899C15.8427 43.971 15.3023 40.9912 8.68291 57.1088Z" fill="#6D7086"/>
<path d="M2.19842 81.2166C0.442254 91.3748 0.172074 110.337 3.68441 110.878C5.03531 111.014 9.088 111.962 10.0336 108.847C11.6547 103.971 10.9793 91.1039 13.1407 80.5394C13.546 78.2369 12.3302 76.2053 8.81782 75.6635C5.30549 75.1217 3.41423 74.0382 2.19842 81.2166Z" fill="#6D7086"/>
<path d="M29.2161 22.0276C29.2161 25.1428 29.7565 26.7681 29.3512 30.5604C29.2161 31.7794 28.6758 33.2693 28.6758 35.03C28.6758 37.8743 32.8636 38.9578 33.8092 39.6351C35.025 40.7186 36.9163 41.1249 39.0777 43.1565C39.618 40.854 40.6988 38.5515 40.2935 36.6553C40.0233 35.03 40.2935 32.5921 39.7531 31.1022C39.0777 29.3415 37.4566 28.3934 37.4566 26.4972L29.2161 22.0276Z" fill="#E6C283"/>
<path d="M45.4272 10.3839C45.4272 12.1447 46.1026 13.77 46.5079 15.3953C46.7781 16.6143 46.9132 16.8852 46.3728 17.9687C45.6973 19.594 45.9675 21.0839 46.3728 22.7092C46.7781 24.6054 46.2377 26.637 45.6973 28.5332C45.2921 30.023 45.0219 31.7838 43.671 32.5964C40.2938 34.899 36.6463 32.461 33.2691 31.242C29.8918 30.023 30.4322 25.2826 29.3515 22.4383C27.4602 17.4269 28.8111 10.3839 34.3498 8.21686C36.9165 7.26877 40.9692 6.727 43.4008 7.6751C44.3464 8.08142 45.9675 9.97761 45.157 10.9257L45.4272 10.3839Z" fill="#FED8A7"/>
<path d="M27.0552 2.66169C30.2973 -0.182594 36.7816 0.765501 42.0501 3.3389C44.7519 4.55788 45.2923 8.21482 45.2923 8.21482C45.9677 9.29836 42.9957 11.33 42.3203 11.7363C40.6992 12.549 39.0781 12.8198 37.4571 12.8198C36.3763 12.8198 35.2956 12.8198 34.35 12.6844C33.6746 12.6844 32.7289 12.2781 32.0535 12.4135C30.4324 12.6844 30.4324 14.716 30.0271 16.0705C29.892 17.0186 29.4868 17.9667 29.3517 19.0502C29.3517 19.592 30.1622 25.2805 29.3517 25.416C28.271 25.6868 23.813 20.4046 23.5428 17.4249C23.4077 15.3932 21.2463 7.80849 27.0552 2.66169Z" fill="#603913"/>
<path d="M26.6498 22.0318C27.3252 23.928 28.6761 25.147 29.4866 24.8761C30.2972 24.4698 31.1077 22.7091 30.4323 20.8129C29.7568 18.9167 27.7305 17.6977 26.9199 18.104C26.1094 18.3749 25.9743 20.1357 26.6498 22.0318Z" fill="#FED8A7"/>
<path d="M117.43 80.2711C119.591 90.8356 122.158 104.922 118.24 105.599C116.754 106.005 110.811 106.411 110.27 102.89C108.919 94.7634 105.002 88.1267 103.786 81.4901C101.76 70.9256 104.056 68.4876 107.974 67.675C111.891 66.8623 115.404 69.5712 117.43 80.2711Z" fill="#08273A"/>
<path d="M120.807 105.731C121.753 115.89 120.807 134.581 117.16 134.852C115.809 134.987 111.756 135.529 110.946 132.414C109.595 127.538 111.216 114.806 109.865 104.377C109.595 102.075 110.946 100.178 114.593 99.9075C118.105 99.5011 120.132 98.553 120.807 105.731Z" fill="#08273A"/>
<path d="M90.0069 74.0389C89.1964 74.3098 84.1981 76.7478 80.5506 81.4883C77.8488 85.0098 77.9839 92.8654 78.119 93.9489C78.3892 97.1995 79.605 129.57 79.605 132.685C79.605 138.78 78.9296 144.604 79.1997 145.417C81.7664 152.46 93.3842 149.209 95.5456 148.938C102.84 147.99 113.377 142.166 112.837 138.645C111.756 131.873 111.486 102.482 112.162 98.6894C112.837 94.897 116.485 77.5604 111.621 70.6529C110.405 69.163 108.109 68.2149 106.353 68.4858C100.139 69.163 91.0876 73.7681 90.0069 74.0389Z" fill="#0D3659"/>
<path d="M86.8998 95.9791C81.7664 106.137 75.6874 119.817 72.04 117.921C70.8242 117.244 65.2855 113.451 66.9065 110.201C70.9592 102.751 72.1751 94.7601 75.2821 88.5298C80.4155 78.3717 83.7928 77.9653 87.3051 79.7261C90.9525 81.4868 92.0333 85.821 86.8998 95.9791Z" fill="#0D3659"/>
<path d="M85.4136 46.1397C85.4136 47.9004 84.1978 50.0675 83.7926 51.6928C83.5224 52.7763 83.3873 53.1827 83.9277 54.2662C84.6031 55.7561 84.3329 57.2459 83.9277 58.8712C83.5224 60.7674 84.0627 62.799 84.6031 64.6952C85.0084 66.1851 85.2785 67.9458 86.6294 68.7585C90.0067 71.061 93.7892 69.7066 97.1664 68.6231C100.544 67.4041 100.003 61.4446 100.949 58.7358C102.84 53.7244 101.489 46.6814 95.9506 44.5144C93.3839 43.4308 89.3312 43.0245 86.8996 43.9726C85.954 44.2435 85.4136 46.1397 85.4136 46.1397Z" fill="#FED8A7"/>
<path d="M90.0068 66.3184C90.0068 66.3184 92.3034 73.4968 90.9525 75.5285C90.4121 76.2057 93.249 77.9664 95.9508 77.9664C100.274 78.1019 105.137 75.7993 103.651 72.2779C102.975 70.2462 100.814 68.4855 102.165 60.6298C102.57 58.1919 90.0068 66.3184 90.0068 66.3184Z" fill="#FED8A7"/>
<path d="M102.57 41.264C97.4367 37.7425 90.412 38.1488 87.0348 42.0766C85.1435 44.3792 85.0084 47.2234 85.0084 47.2234C84.4681 48.1715 87.305 48.0361 87.9804 52.2348C91.4927 73.4992 101.354 65.779 101.76 65.1018C104.326 59.0069 105.947 60.4968 107.163 56.8398C108.919 51.2867 109.865 46.1399 102.57 41.264Z" fill="#60573A"/>
<path d="M91.3574 60.2279C90.5468 62.1241 90.1416 63.8849 89.331 63.4786C88.5205 63.2077 87.71 61.4469 88.3854 59.5507C89.0609 57.6545 89.4661 55.8938 90.4118 55.8938C92.0328 55.8938 92.0328 58.3318 91.3574 60.2279Z" fill="#FED8A7"/>
<path d="M57.0451 84.3325C56.2346 84.468 54.6135 86.7705 54.4784 87.4477C54.2082 88.6667 55.0188 90.1565 54.8837 91.511C54.8837 92.4591 54.7486 93.0008 55.5591 93.678C56.2346 94.2198 56.91 94.7616 57.7205 94.7616C59.0714 94.897 60.2873 93.2717 60.9627 92.1882C61.9083 90.5629 60.9627 87.854 60.4223 86.2287C60.0171 85.5515 59.3416 84.8743 58.396 84.7388C57.0451 84.468 55.9644 85.5515 55.9644 86.9059L57.0451 84.3325Z" fill="#FED8A7"/>
<path d="M59.4765 83.3853C59.4765 84.1979 59.7467 84.7397 60.0168 85.4169C60.287 85.8232 60.4221 86.2296 60.4221 86.6359C60.6923 87.9903 58.801 87.7194 57.8554 87.9903C57.3151 88.2612 56.7747 88.3966 56.2343 88.6675C55.694 88.9384 55.5589 89.0738 55.0185 88.6675C54.208 87.8549 54.8834 87.3131 54.8834 86.5004C54.8834 85.9587 54.4782 85.146 54.6133 84.6042C54.7484 84.0625 55.8291 83.5207 56.3694 83.2498C57.0449 82.9789 57.7203 82.8435 58.3958 82.8435C58.666 82.8435 59.7467 83.1144 59.3414 83.6562L59.4765 83.3853Z" fill="#FED8A7"/>
<path d="M56.3695 89.076C56.3695 89.076 56.2344 89.076 56.2344 88.9406L56.3695 88.6697C56.2344 88.8051 56.3695 88.9406 56.3695 89.076Z" fill="#E6C283"/>
<path d="M52.4519 90.2904C51.9116 89.884 51.9116 89.3423 52.0466 88.9359C52.1817 88.3942 52.587 88.3942 52.9923 88.5296C52.8572 88.1233 52.7221 87.8524 52.8572 87.3106C53.2625 85.6853 55.1537 86.7689 56.0993 88.9359C56.0993 88.9359 58.666 92.322 59.0713 91.9157C59.7468 91.2384 58.6661 88.2587 60.2871 87.717C60.8275 87.5815 60.8275 88.3942 61.0977 88.9359C61.638 89.884 61.0977 90.1549 61.0977 91.5093C61.0977 92.1865 61.3678 93.1346 61.3678 93.8118C61.7731 95.708 60.9626 97.1979 60.8275 97.6042C60.6924 98.0105 60.5573 98.2814 60.2871 98.6878C60.2871 98.8232 59.8819 99.6359 59.8819 99.5004C59.8819 99.5004 55.2888 100.99 55.4239 100.99C55.0186 100.719 53.2625 97.7397 53.1274 96.927C53.1274 96.3852 52.8572 95.708 52.8572 95.1663C52.587 94.8954 52.3168 94.4891 52.0466 94.0827C51.7765 93.6764 51.101 92.7283 51.3712 92.1865C51.5063 91.9157 51.6414 91.7802 51.9116 91.7802C51.6414 91.3739 51.3712 91.103 51.5063 90.6967C51.7765 90.2904 52.0466 90.1549 52.4519 90.2904Z" fill="#E6C283"/>
<path d="M66.5012 117.788C60.9625 113.454 52.722 103.431 54.8835 100.587C55.694 99.5035 58.1256 96.2528 60.2871 97.2009C63.5292 98.6908 68.6626 106.14 74.6066 110.339C75.9575 111.287 79.0646 112.1 76.9031 114.808C74.4715 117.653 70.5539 120.768 66.5012 117.788Z" fill="#0D3659"/>
<path d="M59.2066 92.4614C58.5311 92.8677 57.7206 95.0348 57.5855 95.712C57.3153 96.6601 55.6943 97.879 55.289 96.2537C55.1539 95.0348 56.0995 94.0867 56.5048 93.1386C56.9101 92.3259 56.9101 92.1905 56.3697 91.5133C55.9644 90.9715 55.6942 90.2943 55.4241 89.6171C54.8837 88.2627 55.0188 86.9082 55.8293 85.5538C56.0995 85.0121 56.775 84.1994 57.3153 84.064C59.0715 83.7931 59.3417 85.9601 59.4768 87.1791C59.4768 88.1272 59.6119 88.669 59.882 89.4816C60.1522 90.5652 60.0171 91.7842 59.2066 92.4614Z" fill="#FED8A7"/>
<path d="M51.9114 93.8118C52.1816 93.5409 52.857 94.0827 52.857 94.2181C52.9921 94.489 52.7219 94.8953 52.7219 95.1662C52.9921 95.3016 52.9921 95.3016 53.2623 95.4371C53.5325 95.8434 53.3974 96.1143 53.2623 96.5206C53.2623 96.6561 53.2623 96.7915 53.2623 96.9269C53.2623 97.0624 53.3974 97.0624 53.5325 97.1978C53.8026 97.4687 54.0728 97.7396 53.9377 98.1459C53.9377 98.2814 53.9377 98.5522 54.0728 98.6877C54.343 98.6877 54.6132 98.6877 54.7483 98.9586C55.1535 99.2294 55.0184 100.042 54.7483 100.313C54.4781 100.584 53.9377 100.584 53.6675 100.313C53.3974 100.178 53.3974 99.9067 53.2623 99.6358C53.2623 99.5003 53.2623 99.2294 53.1272 99.094C52.9921 98.8231 52.7219 98.6877 52.5868 98.4168C52.4517 98.0105 52.4517 97.6041 52.5868 97.1978C52.7219 96.9269 52.3166 96.7915 52.1816 96.5206C52.1816 96.3852 52.0465 96.2497 52.0465 96.1143C52.0465 95.9789 52.0465 95.8434 52.1816 95.5725C52.1816 95.3016 52.0465 95.1662 51.9114 95.0308C51.5061 94.7599 51.5061 94.489 51.5061 94.2181C51.5061 94.0827 51.5061 93.9472 51.6412 93.8118C51.7763 93.6763 51.9114 93.6763 52.0465 93.8118H51.9114Z" fill="#FED8A7"/>
<path d="M102.435 69.5724C102.705 69.4369 102.84 69.0306 102.705 68.6243C103.381 69.7078 104.461 70.6559 105.272 71.7394C105.947 72.5521 105.812 72.6875 105.542 73.7711C105.272 75.1255 104.867 76.3445 103.921 77.428C102.165 79.3242 100.409 79.3242 97.9769 79.5951C95.2751 80.0014 92.4382 79.3242 90.0066 78.1052C89.1961 77.6989 88.9259 77.2926 87.9803 77.1571C87.0346 77.0217 86.2241 77.2926 85.4136 77.428C86.8996 76.0736 87.9803 74.7192 89.6014 73.6356C89.8715 73.3647 90.4119 73.0939 90.8172 72.9584C91.3575 72.823 91.0873 72.6875 91.6277 73.2293C92.4382 73.9065 92.8435 74.4483 93.9242 74.7192C95.9506 75.3964 98.112 74.99 99.7331 73.6356C100.814 72.823 102.435 70.7913 102.3 69.3015C103.516 68.6243 104.191 69.4369 104.866 70.385L102.435 69.5724Z" fill="#084373"/>
</svg>
