<svg width="100" height="53" fill="none" xmlns="http://www.w3.org/2000/svg"><path d="M69.717 2.943l-8.03 17.534h-5.932l7.04-15.367C63.887 2.72 62.141 0 59.513 0H0a4.952 4.952 0 004.952 4.951h52.065c.033 0 .055.035.041.065l-9.35 20.413h17.484l9.353-20.42a.098.098 0 01.089-.058h20.415A4.952 4.952 0 00100 0H74.303a5.044 5.044 0 00-4.586 2.943z" fill="#EECE21"/><path d="M68.567 30.71H41.924a1.643 1.643 0 01-1.494-2.327l8.308-18.145H31.052l-9.31 20.334a.236.236 0 01-.214.137H17.52c-.83 0-1.38-.858-1.035-1.612l8.635-18.859H6.208a4.952 4.952 0 004.952 4.952h5.914l-5.59 12.207c-1.77 3.865 1.055 8.264 5.305 8.264h8.064a.515.515 0 00.469-.3l9.235-20.171h6.135l-5.048 11.025c-2.023 4.417 1.205 9.446 6.064 9.446h29.269c.754 0 1.44-.44 1.754-1.126l8.858-19.345h5.874a4.952 4.952 0 004.952-4.951H79.286c-.733 0-1.399.427-1.704 1.093L68.77 30.579a.223.223 0 01-.202.13zM9.748 44.194l-1.243 6.971a1.788 1.788 0 01-1.76 1.475H4.88l1.488-8.446H3.48a.507.507 0 01-.5-.596l.413-2.331h9.489c.451 0 .794.406.717.852l-.355 2.075H9.748zM16.588 46.953h1.304c.624 0 1.118-.17 1.48-.51.363-.34.544-.777.544-1.312 0-.77-.513-1.154-1.539-1.154h-1.17a.1.1 0 00-.099.082l-.52 2.894zm1.02 2.726H16.12l-.304 1.677a1.56 1.56 0 01-1.536 1.284h-2.057l1.784-10.197a1.47 1.47 0 011.404-1.213 143.95 143.95 0 013.652-.08c1.382 0 2.447.296 3.194.886.747.592 1.12 1.439 1.12 2.542 0 .893-.208 1.701-.626 2.426-.418.725-1.018 1.32-1.798 1.789l1.556 3.284a.394.394 0 01-.356.563h-3.308l-1.237-2.96zM33.916 41.267c.818 0 1.438.738 1.298 1.544l-.785 4.494c-.312 1.761-1.028 3.133-2.149 4.114-1.12.98-2.533 1.471-4.24 1.471-1.717 0-2.979-.49-3.787-1.47-.809-.982-1.057-2.354-.745-4.115l1.014-5.808a.278.278 0 01.274-.23h3.026c.088 0 .155.08.14.166l-1.025 5.872c-.145.769-.073 1.365.217 1.79.29.423.753.635 1.389.635a2.19 2.19 0 001.588-.636c.435-.424.724-1.02.87-1.79l.996-5.706a.4.4 0 01.393-.331h1.526zM73.258 41.267c.818 0 1.438.738 1.297 1.544l-.784 4.494c-.312 1.761-1.028 3.133-2.149 4.114-1.12.98-2.534 1.471-4.24 1.471-1.717 0-2.98-.49-3.788-1.47-.808-.982-1.056-2.354-.744-4.115l1.014-5.808a.278.278 0 01.274-.23h3.026c.088 0 .154.08.14.166l-1.026 5.872c-.144.769-.072 1.365.218 1.79.29.423.753.635 1.388.635a2.19 2.19 0 001.59-.636c.434-.424.723-1.02.869-1.79l.996-5.706a.4.4 0 01.393-.331h1.526zM46.667 41.866l-.607 1.724a1.229 1.229 0 01-1.359.805c-1.002-.167-1.791-.252-2.367-.252-1.182 0-2.097.305-2.743.912-.647.608-.97 1.403-.97 2.383 0 .68.242 1.23.727 1.648.485.418 1.118.627 1.899.627.63 0 1.717-.125 3.26-.374a.317.317 0 01.369.311v2.418c0 .1-.07.188-.167.212-1.626.396-3.059.594-4.299.594-1.65 0-2.976-.446-3.98-1.338-1.003-.892-1.505-2.068-1.505-3.529 0-2.096.694-3.782 2.082-5.059 1.388-1.276 3.22-1.915 5.494-1.915 1.236 0 2.572.18 4.009.54a.227.227 0 01.157.293zM49.316 49.078l-.414 2.322a1.504 1.504 0 01-1.48 1.24h-2.103l2.007-11.373h2.97c.204 0 .36.184.324.386l-.735 4.146h.267l3.838-4.244a.873.873 0 01.647-.288H57.8c.184 0 .28.219.156.355l-4.559 4.98 2.824 5.31a.495.495 0 01-.437.728h-2.637a.84.84 0 01-.752-.465l-1.557-3.097h-1.522zM60.123 52.38a1.916 1.916 0 01-1.362.527c-.536 0-.99-.175-1.364-.526a1.727 1.727 0 01-.56-1.313c0-.524.186-.962.56-1.313a1.916 1.916 0 011.364-.527c.534 0 .989.175 1.362.527.374.35.56.789.56 1.313 0 .524-.186.961-.56 1.313zM84.396 43.691l-5.813 6.022h5.045c.012 0 .02.01.019.022l-.432 2.438a.565.565 0 01-.557.467h-9.237a.303.303 0 01-.3-.352l.168-1.034a2.44 2.44 0 01.676-1.327l5.671-5.733H74.87l.423-2.468a.553.553 0 01.545-.459h8.986c.103 0 .182.093.165.194l-.273 1.599c-.04.238-.152.457-.32.631z" fill="#EECE21"/></svg>