<svg width="20" height="19" viewBox="0 0 20 19" fill="none" xmlns="http://www.w3.org/2000/svg">
<path d="M4.45312 7.5332H2.9866C3.23434 4.15625 6.06093 1.48438 9.5 1.48438C12.2214 1.48438 14.6839 3.19846 15.6277 5.74969C15.7699 6.13411 16.1968 6.33045 16.5813 6.18828C16.9657 6.04604 17.1621 5.61914 17.0199 5.23469C16.4574 3.71409 15.4581 2.41289 14.13 1.47172C12.7715 0.508918 11.1704 0 9.5 0C7.35897 0 5.34605 0.833773 3.8321 2.34772C2.33789 3.84193 1.50683 5.82224 1.48538 7.93202C0.598389 8.44598 0 9.40511 0 10.502V13.0254C0 14.6624 1.33178 15.9941 2.96875 15.9941H4.45312C4.86304 15.9941 5.19531 15.6619 5.19531 15.252V8.27539C5.19531 7.86548 4.86304 7.5332 4.45312 7.5332ZM3.71094 14.5098H2.96875C2.15027 14.5098 1.48438 13.8439 1.48438 13.0254V10.502C1.48438 9.68347 2.15027 9.01758 2.96875 9.01758H3.71094V14.5098Z" fill="#EECE21"/>
<path d="M16.0818 7.5332H14.5974C14.1875 7.5332 13.8552 7.86548 13.8552 8.27539V13.3594V15.252V16.0312C13.8552 16.4405 13.5223 16.7734 13.113 16.7734H10.8494V16.797C10.5962 16.3404 10.1096 16.0312 9.55054 16.0312C8.73075 16.0312 8.06616 16.6958 8.06616 17.5156C8.06616 18.3354 8.73075 19 9.55054 19C10.1096 19 10.5962 18.6908 10.8494 18.2343V18.2578H13.113C14.3408 18.2578 15.3396 17.259 15.3396 16.0312V15.9941H16.0818C17.7188 15.9941 19.0505 14.6624 19.0505 13.0254V10.502C19.0505 8.86498 17.7188 7.5332 16.0818 7.5332ZM17.5662 13.0254C17.5662 13.8439 16.9003 14.5098 16.0818 14.5098H15.3396V13.3594V9.01758H16.0818C16.9003 9.01758 17.5662 9.68347 17.5662 10.502V13.0254Z" fill="#EECE21"/>
</svg>
