<svg width="19" height="19" viewBox="0 0 19 19" fill="none" xmlns="http://www.w3.org/2000/svg">
<path d="M9.01316 0C11.462 0 11.7676 0.00901311 12.7284 0.0540789C13.6883 0.0991447 14.3417 0.249665 14.9168 0.473191C15.5116 0.702125 16.0128 1.01218 16.5139 1.51241C16.9722 1.96297 17.3269 2.50799 17.5531 3.10954C17.7758 3.68368 17.9272 4.33803 17.9722 5.29793C18.0146 6.25874 18.0263 6.56428 18.0263 9.01316C18.0263 11.462 18.0173 11.7676 17.9722 12.7284C17.9272 13.6883 17.7758 14.3417 17.5531 14.9168C17.3275 15.5187 16.9728 16.0638 16.5139 16.5139C16.0632 16.9721 15.5182 17.3267 14.9168 17.5531C14.3426 17.7758 13.6883 17.9272 12.7284 17.9722C11.7676 18.0146 11.462 18.0263 9.01316 18.0263C6.56428 18.0263 6.25874 18.0173 5.29793 17.9722C4.33803 17.9272 3.68458 17.7758 3.10954 17.5531C2.50775 17.3273 1.96264 16.9726 1.51241 16.5139C1.054 16.0634 0.699359 15.5184 0.473191 14.9168C0.249665 14.3426 0.0991447 13.6883 0.0540789 12.7284C0.0117171 11.7676 0 11.462 0 9.01316C0 6.56428 0.00901311 6.25874 0.0540789 5.29793C0.0991447 4.33713 0.249665 3.68458 0.473191 3.10954C0.698733 2.50762 1.05346 1.96245 1.51241 1.51241C1.96277 1.05385 2.50785 0.699177 3.10954 0.473191C3.68458 0.249665 4.33713 0.0991447 5.29793 0.0540789C6.25874 0.0117171 6.56428 0 9.01316 0ZM9.01316 4.50658C7.81794 4.50658 6.67167 4.98138 5.82653 5.82653C4.98138 6.67167 4.50658 7.81794 4.50658 9.01316C4.50658 10.2084 4.98138 11.3546 5.82653 12.1998C6.67167 13.0449 7.81794 13.5197 9.01316 13.5197C10.2084 13.5197 11.3546 13.0449 12.1998 12.1998C13.0449 11.3546 13.5197 10.2084 13.5197 9.01316C13.5197 7.81794 13.0449 6.67167 12.1998 5.82653C11.3546 4.98138 10.2084 4.50658 9.01316 4.50658ZM14.8717 4.28125C14.8717 3.98245 14.753 3.69588 14.5417 3.48459C14.3304 3.27331 14.0439 3.15461 13.7451 3.15461C13.4463 3.15461 13.1597 3.27331 12.9484 3.48459C12.7371 3.69588 12.6184 3.98245 12.6184 4.28125C12.6184 4.58006 12.7371 4.86662 12.9484 5.07791C13.1597 5.2892 13.4463 5.4079 13.7451 5.4079C14.0439 5.4079 14.3304 5.2892 14.5417 5.07791C14.753 4.86662 14.8717 4.58006 14.8717 4.28125ZM9.01316 6.30921C9.73029 6.30921 10.418 6.59409 10.9251 7.10118C11.4322 7.60827 11.7171 8.29603 11.7171 9.01316C11.7171 9.73029 11.4322 10.418 10.9251 10.9251C10.418 11.4322 9.73029 11.7171 9.01316 11.7171C8.29603 11.7171 7.60827 11.4322 7.10118 10.9251C6.59409 10.418 6.30921 9.73029 6.30921 9.01316C6.30921 8.29603 6.59409 7.60827 7.10118 7.10118C7.60827 6.59409 8.29603 6.30921 9.01316 6.30921Z" fill="url(#paint0_linear)"/>
<defs>
<linearGradient id="paint0_linear" x1="0" y1="9.01316" x2="18.0263" y2="9.01316" gradientUnits="userSpaceOnUse">
<stop stop-color="#EECE21"/>
<stop offset="1" stop-color="#EECE21"/>
</linearGradient>
</defs>
</svg>
