<svg width="25" height="25" viewBox="0 0 25 25" fill="none" xmlns="http://www.w3.org/2000/svg">
<path d="M13.3081 0.358276L13.3092 3.72509C15.2468 3.97006 17.0479 4.8526 18.4288 6.23372C19.8098 7.61484 20.692 9.41607 20.9367 11.3537H24.3035V13.5528L20.9367 13.5539C20.6918 15.4914 19.8094 17.2924 18.4285 18.6733C17.0476 20.0542 15.2466 20.9366 13.3092 21.1815L13.3081 24.5483H11.109V21.1815C9.17132 20.9368 7.37009 20.0545 5.98897 18.6736C4.60784 17.2927 3.72531 15.4916 3.48033 13.5539L0.113525 13.5528V11.3537H3.48033C3.72508 9.4159 4.60752 7.61455 5.98866 6.23341C7.3698 4.85227 9.17115 3.96983 11.109 3.72509V0.358276H13.3081ZM12.2085 10.2542C11.6253 10.2542 11.0659 10.4859 10.6535 10.8983C10.2411 11.3107 10.0094 11.87 10.0094 12.4533C10.0094 13.0365 10.2411 13.5959 10.6535 14.0083C11.0659 14.4207 11.6253 14.6524 12.2085 14.6524C12.7918 14.6524 13.3511 14.4207 13.7635 14.0083C14.1759 13.5959 14.4076 13.0365 14.4076 12.4533C14.4076 11.87 14.1759 11.3107 13.7635 10.8983C13.3511 10.4859 12.7918 10.2542 12.2085 10.2542Z" fill="url(#paint0_linear)"/>
<defs>
<linearGradient id="paint0_linear" x1="0.113525" y1="12.4533" x2="24.3035" y2="12.4533" gradientUnits="userSpaceOnUse">
<stop stop-color="#283745"/>
<stop offset="1" stop-color="#152331"/>
</linearGradient>
</defs>
</svg>
