<svg width="19" height="28" viewBox="0 0 19 28" fill="none" xmlns="http://www.w3.org/2000/svg">
<path d="M17.6803 4.73172C16.0034 1.83778 13.0248 0.0697527 9.71257 0.00218568C9.57118 -0.000728558 9.42886 -0.000728558 9.28742 0.00218568C5.97523 0.0697527 2.99666 1.83778 1.31968 4.73172C-0.394425 7.68977 -0.441322 11.243 1.19421 14.2366L8.04606 26.7779C8.04914 26.7835 8.05221 26.789 8.0554 26.7945C8.35686 27.3185 8.89691 27.6313 9.5001 27.6313C10.1032 27.6313 10.6433 27.3184 10.9447 26.7945C10.9479 26.789 10.951 26.7835 10.954 26.7779L17.8059 14.2366C19.4413 11.243 19.3944 7.68977 17.6803 4.73172ZM9.49999 12.5204C7.35744 12.5204 5.61435 10.7773 5.61435 8.63479C5.61435 6.49224 7.35744 4.74915 9.49999 4.74915C11.6425 4.74915 13.3856 6.49224 13.3856 8.63479C13.3856 10.7773 11.6426 12.5204 9.49999 12.5204Z" fill="#EECE21"/>
</svg>
