<svg width="19" height="14" viewBox="0 0 19 14" fill="none" xmlns="http://www.w3.org/2000/svg">
<path d="M18.8326 0.95459L13.0703 6.67979L18.8326 12.405C18.9368 12.1873 19 11.9466 19 11.6896V1.67002C19 1.41296 18.9368 1.17231 18.8326 0.95459Z" fill="#EECE21"/>
<path d="M17.3301 0H1.6699C1.41284 0 1.17219 0.0631974 0.954468 0.167363L8.31931 7.49509C8.9705 8.14629 10.0295 8.14629 10.6807 7.49509L18.0455 0.167363C17.8278 0.0631974 17.5871 0 17.3301 0Z" fill="#EECE21"/>
<path d="M0.167363 0.95459C0.0631973 1.17231 0 1.41296 0 1.67002V11.6896C0 11.9466 0.0631973 12.1873 0.167363 12.405L5.92967 6.67979L0.167363 0.95459Z" fill="#EECE21"/>
<path d="M12.2832 7.4668L11.4678 8.2822C10.3827 9.36724 8.61718 9.36724 7.53214 8.2822L6.71677 7.4668L0.954468 13.192C1.17219 13.2962 1.41284 13.3594 1.6699 13.3594H17.3301C17.5871 13.3594 17.8278 13.2962 18.0455 13.192L12.2832 7.4668Z" fill="#EECE21"/>
</svg>
