<svg width="64" height="22" viewBox="0 0 64 22" fill="none" xmlns="http://www.w3.org/2000/svg">
<line y1="1.5" x2="25" y2="1.5" stroke="white" stroke-width="3"/>
<line y1="10.5" x2="25" y2="10.5" stroke="white" stroke-width="3"/>
<line y1="19.5" x2="25" y2="19.5" stroke="white" stroke-width="3"/>
<path d="M57.17 12L63.4244 6.3142C64.1919 5.61648 64.1919 4.48523 63.4244 3.78693L62.0344 2.5233C61.2669 1.82557 60.0225 1.82557 59.2544 2.5233L53 8.20909L46.7456 2.5233C45.9781 1.82557 44.7338 1.82557 43.9656 2.5233L42.5756 3.78693C41.8081 4.48466 41.8081 5.61591 42.5756 6.3142L48.83 12L42.5756 17.6858C41.8081 18.3835 41.8081 19.5148 42.5756 20.2131L43.9656 21.4767C44.7331 22.1744 45.9781 22.1744 46.7456 21.4767L53 15.7909L59.2544 21.4767C60.0219 22.1744 61.2669 22.1744 62.0344 21.4767L63.4244 20.2131C64.1919 19.5153 64.1919 18.3841 63.4244 17.6858L57.17 12Z" fill="white"/>
</svg>
