<svg width="21" height="21" viewBox="0 0 21 21" fill="none" xmlns="http://www.w3.org/2000/svg">
<path d="M20.7293 15.1072V18.9952C20.7295 19.2736 20.624 19.5417 20.4342 19.7453C20.2444 19.949 19.9844 20.0731 19.7067 20.0926C19.2262 20.1256 18.8337 20.1431 18.5302 20.1431C8.81355 20.1431 0.9375 12.2671 0.9375 2.55041C0.9375 2.24694 0.953993 1.8544 0.988079 1.3739C1.00757 1.0962 1.13166 0.83623 1.33532 0.646446C1.53898 0.456662 1.80705 0.351193 2.08543 0.351319H5.97342C6.10981 0.351181 6.24138 0.401742 6.34257 0.493182C6.44376 0.584622 6.50736 0.710411 6.52099 0.846114C6.54628 1.09901 6.56937 1.30023 6.59137 1.45306C6.80988 2.97805 7.25769 4.46124 7.91962 5.85235C8.02407 6.07226 7.9559 6.33505 7.75798 6.47579L5.38516 8.17129C6.83596 11.5518 9.52995 14.2458 12.9105 15.6966L14.6038 13.3282C14.673 13.2314 14.7739 13.162 14.8891 13.1321C15.0042 13.1021 15.1262 13.1135 15.2338 13.1643C16.6247 13.825 18.1075 14.2717 19.632 14.4893C19.7848 14.5113 19.986 14.5355 20.2367 14.5597C20.3722 14.5735 20.4978 14.6372 20.589 14.7384C20.6802 14.8396 20.7306 14.971 20.7304 15.1072H20.7293Z" fill="url(#paint0_linear)"/>
<defs>
<linearGradient id="paint0_linear" x1="0.9375" y1="10.2472" x2="20.7304" y2="10.2472" gradientUnits="userSpaceOnUse">
<stop stop-color="#283745"/>
<stop offset="1" stop-color="#152331"/>
</linearGradient>
</defs>
</svg>
