<svg width="19" height="19" viewBox="0 0 19 19" fill="none" xmlns="http://www.w3.org/2000/svg">
<path d="M9.01316 18.0263C4.03519 18.0263 0 13.9911 0 9.01316C0 4.03519 4.03519 0 9.01316 0C13.9911 0 18.0263 4.03519 18.0263 9.01316C18.0263 13.9911 13.9911 18.0263 9.01316 18.0263ZM6.21007 10.0677L6.22178 10.0614L7.00593 12.6482C7.10688 12.9285 7.24568 12.9789 7.41422 12.9555C7.58367 12.933 7.6729 12.8419 7.78376 12.7356L8.85453 11.7009L11.1529 13.4026C11.5729 13.6342 11.8748 13.5143 11.9794 13.0132L13.4729 5.96311C13.6378 5.30695 13.3494 5.04376 12.8401 5.25287L4.06764 8.64182C3.46916 8.88157 3.47277 9.21686 3.95948 9.36557L6.21007 10.0686V10.0677Z" fill="url(#paint0_linear)"/>
<defs>
<linearGradient id="paint0_linear" x1="0" y1="9.01316" x2="18.0263" y2="9.01316" gradientUnits="userSpaceOnUse">
<stop stop-color="#EECE21"/>
<stop offset="1" stop-color="#EECE21"/>
</linearGradient>
</defs>
</svg>
