<svg width="161" height="153" viewBox="0 0 161 153" fill="none" xmlns="http://www.w3.org/2000/svg">
<path d="M28.2969 57.0679C28.2969 57.0679 28.1086 59.6652 26.955 60.1846C25.7779 60.704 23.7063 58.1777 23.7063 58.1777L28.2969 57.0679Z" fill="#FED8A7"/>
<path d="M18.3622 107.713C18.3622 107.713 16.1493 110.877 17.2322 113.64C17.4912 114.277 19.8689 115.93 20.4574 115.907C21.0695 115.883 21.3284 115.954 21.8699 116.497C22.4349 117.04 22.3172 117.276 23.1882 117.961C24.0593 118.669 28.2025 120.44 31.2865 118.268C31.2865 118.268 31.4277 116.922 31.2629 116.497C31.0981 116.072 28.9559 114.207 27.92 113.687C26.8842 113.168 24.1299 110.122 23.8945 109.484C23.6355 108.847 22.5997 108.469 22.5997 108.469C22.5997 108.469 20.6928 106.155 18.3622 107.713Z" fill="#1E160D"/>
<path d="M7.34489 113.806C7.34489 113.806 5.13199 116.969 6.2149 119.732C6.47385 120.369 8.85154 122.022 9.44008 121.999C10.0522 121.975 10.3111 122.046 10.8526 122.589C11.4176 123.132 11.2999 123.368 12.1709 124.053C13.0419 124.761 17.1852 126.532 20.2691 124.36C20.2691 124.36 20.4104 123.014 20.2456 122.589C20.0808 122.164 17.915 120.299 16.8792 119.779C15.8434 119.26 13.089 116.214 12.8536 115.576C12.5946 114.939 11.5588 114.561 11.5588 114.561C11.5588 114.561 9.69903 112.224 7.34489 113.806Z" fill="#1E160D"/>
<path d="M12.6418 64.4582C13.56 67.6457 13.56 70.9276 14.2191 74.1623C15.0195 78.0109 14.6429 82.6151 16.7145 86.0859C17.3501 87.1248 19.2335 88.7776 21.3757 88.3998C22.6234 88.1873 24.8363 87.597 25.0247 86.7234C25.3071 85.2832 25.3307 84.1498 25.213 83.347C25.0011 81.8359 24.2713 72.8401 24.1301 69.9359C24.0124 67.5512 23.8476 66.0873 23.5886 63.4665C23.5886 63.4665 24.0595 60.5623 18.4566 61.8373C12.8773 63.1123 12.5006 63.9859 12.6418 64.4582Z" fill="#5A6369"/>
<path d="M15.9139 88.0221C16.2435 85.9207 16.008 84.2679 16.0787 81.9304C16.1258 80.2068 25.1657 82.1665 25.2834 86.3457C25.2834 86.3457 23.4236 102.543 24.5536 107.69L24.6948 108.54C24.6948 108.54 24.9538 109.319 24.3417 109.862C24.2946 109.886 23.4236 110.618 22.2936 110.878C20.6928 111.232 18.5741 111.043 17.4912 109.839C14.8074 106.864 14.7839 95.0582 15.9139 88.0221Z" fill="#5A6369"/>
<path d="M6.4268 64.8597C6.77992 68.1416 5.53222 72.7458 5.64993 76.0513C5.76764 79.9708 5.90889 86.4166 5.32035 90.8319C5.15556 92.0361 8.09824 91.3041 10.2641 91.3041C11.5118 91.3041 13.5599 90.9499 14.1249 90.2888C14.3367 90.0527 14.7134 89.7222 14.8782 89.0138C15.349 86.8888 15.608 77.8458 16.1259 73.5958C16.4084 71.2347 16.6438 69.0861 17.5384 66.7722C17.5384 66.7722 17.8209 63.6319 12.0767 63.5847C7.32137 63.5138 6.4268 64.8597 6.4268 64.8597Z" fill="#687178"/>
<path d="M5.32035 90.8317C7.22721 81.3165 13.8424 85.7081 14.5486 89.8165C14.5486 89.8165 11.4882 107.879 13.3244 112.814L13.5834 113.64C13.5834 113.64 13.9601 114.372 13.4186 114.986C13.3715 115.033 12.6182 115.86 11.5353 116.261C10.0051 116.851 7.88637 116.946 6.61513 115.907C3.5312 113.357 3.90786 97.797 5.32035 90.8317Z" fill="#687178"/>
<path d="M19.3275 27.4362C20.5752 33.8348 23.2825 44.4126 25.5425 43.964C26.3899 43.7987 28.0614 41.3196 27.5906 39.289C26.4841 34.5196 27.1668 29.0654 26.3899 25.0515C25.1422 18.6529 23.871 17.8737 21.611 18.3223C19.3511 18.7946 18.0798 21.0376 19.3275 27.4362Z" fill="black"/>
<path d="M24.8598 43.8691C30.1801 46.4427 36.4657 45.7344 39.3378 47.0094C40.044 47.3163 41.2211 44.0108 39.8086 42.7594C37.5957 40.7997 30.4156 40.3038 25.3541 36.8802C25.3541 36.8802 25.6366 36.6914 24.5773 38.4386C23.5179 40.2094 22.3879 42.665 24.8598 43.8691Z" fill="black"/>
<path d="M12.0062 20.4233C11.4883 20.5414 6.02664 23.2803 3.60187 26.0428C1.81272 28.0733 3.20166 32.8428 3.2252 33.4803C3.29583 35.5344 6.09726 47.9539 6.52101 50.7164C6.94475 53.4789 5.81476 55.4858 5.67351 58.5316C5.57935 60.515 5.4381 65.19 5.57935 66.04C6.09726 68.8261 14.0072 68.3775 15.3961 68.3066C19.869 68.0469 25.4954 64.6469 25.0481 62.4511C23.9652 57.3747 24.0829 44.483 24.4596 38.4858C24.5538 37.0455 24.6715 36.0066 24.7656 35.558C25.3306 33.315 28.1085 21.7928 24.6715 18.7469C23.8004 17.9678 22.0348 17.4483 20.9519 17.5191C17.1382 17.6844 12.6418 20.3053 12.0062 20.4233Z" fill="#B2EF0D"/>
<path d="M22.7881 44.9787C24.3183 43.3495 24.3183 41.9092 24.3183 41.9092C24.2712 43.4912 24.2241 45.2384 24.2241 47.0801C23.2825 48.4495 21.7758 49.3704 19.9161 50.362C15.1371 52.9592 8.45138 51.7551 6.56806 50.9287C6.54452 50.8106 6.54452 50.7162 6.54452 50.5981C6.42681 49.9134 6.1914 48.6384 5.86182 47.0801C6.77993 47.6704 7.58034 48.1898 9.4872 48.5676C14.5957 49.5592 20.8577 47.0329 22.7881 44.9787Z" fill="#7C7C7C"/>
<path d="M6.00317 55.9817C6.19151 55.0137 6.40338 54.1165 6.52109 53.2192C7.22733 53.6442 8.02774 53.9984 9.46377 54.2817C14.5958 55.297 21.3287 52.9831 23.2355 50.9053C23.6593 50.4567 23.9418 50.0553 24.1772 49.7012C24.1772 50.8581 24.2007 52.0151 24.2478 53.1484C23.2355 54.447 21.5876 55.297 19.822 56.2651C14.6429 59.0984 7.15671 56.6192 6.00317 55.9817Z" fill="#7C7C7C"/>
<path d="M15.4197 18.1334C15.5139 18.2278 18.9038 18.0625 20.952 20.4C23.0001 22.7375 22.4351 22.3834 22.4351 22.3834L20.999 21.9111C20.999 21.9111 20.4811 27.932 19.7984 28.782L14.0072 24.957L13.5599 27.625C13.5599 27.625 9.1106 22.6903 9.69914 21.4153C11.1352 18.3223 14.6664 17.1889 15.4197 18.1334Z" fill="#0A0C11"/>
<path d="M17.1618 18.8884C17.1618 18.8884 19.6572 19.7384 20.0103 23.0912C20.3634 26.444 19.7749 28.7815 19.7749 28.7815C19.7513 28.5454 16.3143 25.5468 13.4893 23.4454C13.1833 23.2093 10.0758 20.8954 13.4893 19.3134L17.1618 18.8884Z" fill="#FCCB95"/>
<path d="M11.7943 14.0956C11.7943 15.89 12.1003 16.8109 11.8414 18.9831C11.7707 19.6678 11.4412 20.5414 11.4412 21.5095C11.4412 23.1386 13.2303 23.847 14.1249 24.3192C14.9488 24.7442 18.3388 23.6109 18.1505 22.4539C17.9857 21.5095 18.1976 20.14 17.868 19.2192C17.4913 18.2039 16.5497 17.6372 16.5497 16.5747L11.7943 14.0956Z" fill="#FCCB95"/>
<path d="M21.6345 6.49294C21.611 7.50822 21.6345 8.38183 21.87 9.37349C22.0347 10.0582 21.7758 11.8054 22.0112 13.6471C22.176 14.804 21.7758 15.9846 21.4698 17.0943C21.2108 17.9443 21.0931 18.9832 20.2927 19.5263C18.3387 20.8721 16.1258 19.479 14.1248 18.7943C12.1473 18.1332 12.4298 15.2527 11.7942 13.6235C10.6407 10.6721 11.4176 6.51655 14.6427 5.19433C16.1023 4.60405 18.48 4.2971 19.9866 4.84016C20.5046 5.02905 21.6581 5.45405 21.6345 6.49294Z" fill="#FED8A7"/>
<path d="M11.1822 2.92771C13.042 1.22771 16.7851 1.77076 19.869 3.16382C21.3992 3.87215 21.7759 5.97354 21.7759 5.97354C22.129 6.56382 20.4575 7.81521 20.0338 8.05132C19.1628 8.52354 18.2446 8.64159 17.2559 8.71243C16.6438 8.75965 16.0317 8.75965 15.4432 8.68882C15.0665 8.66521 14.478 8.49993 14.1249 8.54715C13.2068 8.64159 13.2068 9.86937 13.042 10.6013C12.9007 11.2152 12.7124 11.6874 12.6653 12.3485C12.6418 12.6555 13.1597 15.961 12.7124 16.0555C12.0532 16.1735 9.46367 13.1277 9.29888 11.4277C9.18117 10.318 7.88639 5.92632 11.1822 2.92771Z" fill="url(#paint0_linear)"/>
<path d="M11.1351 14.0486C11.5824 15.1111 12.2886 15.8194 12.7594 15.6305C13.2303 15.4416 13.7246 14.4263 13.2773 13.3638C12.8536 12.3013 11.6765 11.593 11.2057 11.7819C10.7349 11.9708 10.7113 12.9861 11.1351 14.0486Z" fill="#FED8A7"/>
<path d="M0.776942 33.9292C-0.117633 40.375 -0.659087 52.2278 1.62443 52.5347C2.47193 52.6528 6.33273 50.8111 6.56814 48.7333C7.06251 43.8695 8.12188 38.25 8.68687 34.2125C9.58145 27.7667 8.14542 26.3972 5.88544 26.0903C3.60192 25.7833 1.64798 27.4833 0.776942 33.9292Z" fill="#0A0C11"/>
<path d="M4.89661 54.8721C10.0993 57.6818 20.3633 61.2943 21.2815 59.4763C21.6346 58.7916 22.8587 56.761 21.3521 55.6041C18.9979 53.8096 11.8413 51.8263 6.54452 48.7569C5.39099 48.0957 2.07164 47.8832 1.12998 49.7013C0.211866 51.5194 1.20061 52.8888 4.89661 54.8721Z" fill="#0A0C11"/>
<path d="M21.7287 5.95001C21.7287 5.95001 25.3541 6.11529 24.8598 6.9889C24.3654 7.8389 19.7983 10.8611 17.3029 10.932C14.8311 11.0028 11.394 10.2236 11.394 10.2236L21.7287 5.95001Z" fill="#FFDA3E"/>
<path d="M18.4329 9.20841C21.0225 8.26396 22.3173 7.53202 23.3531 6.23341C22.3173 1.9598 18.1269 -0.731871 13.8424 0.165351C9.46364 1.1098 6.66221 5.40702 7.60387 9.77507C7.83928 10.8848 8.28657 11.8765 8.87511 12.7501C10.4759 12.7028 16.3377 9.96396 18.4329 9.20841Z" fill="#FFBC00"/>
<path d="M49.7666 47.0332L34.7707 55.7221L18.2446 59.9485L33.2405 51.2596L49.7666 47.0332Z" fill="#002368"/>
<path d="M46.1883 48.261L32.6519 55.5568L20.0808 59.0985L33.4053 51.4485L46.1883 48.261Z" fill="white"/>
<path d="M22.0819 7.43754C20.1044 1.10976 15.3725 1.6056 15.3725 1.6056L13.4421 1.86532C19.045 3.11671 20.0337 7.10699 20.1985 8.47643C20.9754 8.14587 21.5639 7.81532 22.0819 7.43754Z" fill="#FFDA3E"/>
<path d="M39.5968 43.0189C39.8558 42.9009 40.0441 42.6884 40.3031 42.5703C41.1741 42.1926 41.2918 43.4676 41.6214 44.0342C41.8097 44.3648 42.0451 44.6953 42.3041 44.9787C42.563 45.262 40.3031 46.7023 39.9029 46.6787C39.5262 46.6551 39.0083 46.0648 38.7964 45.7578C38.5139 45.4273 38.2785 43.6801 39.5968 43.0189Z" fill="#FED8A7"/>
<path d="M42.1629 41.6735C42.3041 41.5318 42.7279 41.6027 42.9397 41.5791C43.3399 41.5318 43.6931 41.5082 44.0933 41.4138C44.7289 41.2721 45.082 41.1068 45.6941 41.3902C46.0472 41.5555 46.3297 41.6263 46.7064 41.6971C47.1772 41.768 47.3184 41.9096 47.6716 42.193C48.1189 42.5707 48.5426 42.9721 48.9899 43.3263C49.1311 43.4443 49.6726 43.7749 49.7197 43.9638C49.8845 44.743 48.3307 44.1527 48.0718 44.011C47.648 43.7749 47.2478 43.468 46.8241 43.3263C46.1414 43.0902 45.2233 43.2555 44.5406 43.3735C44.1403 43.4443 43.8108 43.586 43.4106 43.4916C42.8456 43.3735 42.2335 43.1138 41.7156 42.9249L42.1629 41.6735Z" fill="#FCCB95"/>
<path d="M40.3738 39.7842L50.0964 45.4272L40.3738 39.7842Z" fill="#FCCB95"/>
<path d="M49.3665 46.5136C49.4842 46.5373 49.6019 46.49 49.6726 46.3956C49.7903 46.2539 49.7432 46.0414 49.6019 45.947L40.6562 39.1234C40.5149 39.0053 40.3031 39.0525 40.1854 39.1942C40.0677 39.3359 40.1147 39.5484 40.256 39.6428L49.2017 46.4664C49.2724 46.49 49.3194 46.5136 49.3665 46.5136Z" fill="#231F20"/>
<path d="M39.5733 45.4277C39.3614 45.9707 43.8343 42.9957 43.9049 43.0902L46.9182 43.7749C47.2243 44.0818 47.8834 44.6013 47.5774 45.0735C47.4361 45.3096 47.0595 45.3804 46.7064 45.3804C46.8947 45.7346 47.0595 46.1124 46.777 46.3721C46.5886 46.561 46.2355 46.5374 45.9059 46.4665C46.0236 46.7735 46.0472 47.0568 45.8118 47.2457C45.4822 47.5054 44.7524 47.1985 44.3993 47.104C43.4812 46.8679 38.1843 47.5763 39.5733 45.4277Z" fill="#FCCB95"/>
<path d="M39.3849 45.1677C39.5967 45.6871 44.305 43.9399 44.1873 43.3496C44.0225 42.4524 43.1044 41.8385 42.4923 41.5788C41.5978 41.2246 40.4678 42.1218 39.8086 42.7121C39.4555 43.0191 39.3142 43.6093 39.3613 44.2468C39.4555 45.1913 39.3849 45.1677 39.3849 45.1677Z" fill="#FED8A7"/>
<path d="M44.2579 42.5C44.6346 42.7833 46.1883 42.9722 46.5886 42.9722C47.2477 42.9958 48.3542 43.8694 47.3654 44.3417C46.6121 44.6958 45.8588 44.2 45.1525 44.0583C44.564 43.9403 44.4698 43.9875 44.1167 44.4125C43.8107 44.7667 43.4575 45.1208 43.0809 45.4042C42.304 45.9708 41.3623 46.1597 40.4442 45.8292C40.0911 45.7111 39.3849 45.4514 39.2201 45.0972C38.7257 43.9639 40.0911 43.4444 40.9151 43.2083C41.4801 43.043 41.8567 42.8778 42.3511 42.5472C42.9161 42.1222 43.6694 42.0278 44.2579 42.5Z" fill="#FED8A7"/>
<path d="M20.1279 57.0445C20.8342 56.3125 22.5056 56.0764 22.9058 56.0292C23.6827 55.9111 24.5067 55.3445 25.2364 55.9111C25.6131 56.1945 25.8956 56.3834 26.3429 56.4306C26.8137 56.4778 26.6725 56.6903 26.3429 56.9028C26.0368 57.1153 25.7308 57.3278 25.3777 57.1861C24.9069 56.9973 24.1535 56.8792 24.0594 57.6584C23.9652 58.4139 24.5773 58.3195 25.0952 58.6028C25.8956 59.0514 26.4371 59.075 26.9079 59.8778C27.1904 60.2792 26.5548 60.9167 25.8014 60.6806C25.8485 60.775 26.131 60.7986 25.9898 61.0584C25.6131 61.6014 24.9069 61.6486 24.4831 61.3181C25.0716 62.0736 23.7062 62.357 23.2119 61.7903C23.259 62.4514 21.9171 62.1917 21.564 62.0028C20.9283 61.6723 19.9632 60.8459 19.5394 60.2792C19.1863 59.8306 19.045 58.5792 19.3746 58.0125C19.5394 57.8 19.8925 57.2098 20.1279 57.0445Z" fill="#FED8A7"/>
<path d="M113.07 148.301C113.07 148.23 113.046 148.16 113.046 148.089C113.046 148.018 113.023 147.947 112.999 147.853C112.999 147.805 112.976 147.758 112.976 147.687C112.976 147.64 112.952 147.593 112.929 147.546C112.905 147.475 112.905 147.404 112.882 147.333C112.882 147.286 112.858 147.262 112.834 147.215C112.811 147.144 112.787 147.073 112.764 146.979C112.764 146.955 112.74 146.908 112.74 146.885C112.693 146.79 112.67 146.672 112.623 146.578C112.623 146.554 112.623 146.554 112.599 146.53C112.552 146.436 112.505 146.341 112.458 146.247C112.434 146.223 112.434 146.2 112.411 146.153C112.364 146.058 112.317 145.987 112.269 145.893C112.269 145.869 112.246 145.869 112.246 145.846C112.199 145.751 112.128 145.657 112.058 145.562C112.034 145.539 112.01 145.515 112.01 145.491C111.963 145.421 111.916 145.35 111.869 145.279C111.846 145.232 111.822 145.208 111.799 145.161C111.752 145.114 111.704 145.043 111.681 144.996C111.634 144.948 111.61 144.901 111.563 144.854C111.516 144.807 111.493 144.783 111.446 144.736C111.375 144.665 111.328 144.594 111.257 144.523C111.21 144.476 111.187 144.453 111.139 144.405C111.116 144.382 111.069 144.335 111.045 144.311C110.998 144.264 110.928 144.216 110.881 144.169C110.857 144.146 110.81 144.122 110.786 144.098C110.716 144.051 110.669 144.004 110.598 143.957C110.574 143.933 110.551 143.91 110.504 143.886C110.41 143.815 110.316 143.768 110.221 143.721C110.104 143.65 109.986 143.603 109.868 143.532C109.821 143.508 109.798 143.508 109.751 143.485C109.68 143.461 109.609 143.437 109.539 143.414C109.492 143.39 109.444 143.39 109.421 143.366C109.374 143.366 109.35 143.343 109.303 143.343C109.256 143.343 109.209 143.319 109.162 143.319C109.138 143.319 109.115 143.319 109.068 143.319C108.997 143.319 108.95 143.319 108.879 143.319H108.856C108.762 143.319 108.691 143.343 108.621 143.343C108.597 143.343 108.597 143.343 108.597 143.343C108.526 143.366 108.479 143.366 108.432 143.39C108.409 143.39 108.409 143.39 108.385 143.414C108.314 143.437 108.267 143.461 108.197 143.508L110.08 142.398H110.104C110.151 142.375 110.198 142.351 110.245 142.328H110.268C110.292 142.328 110.316 142.304 110.316 142.304C110.316 142.304 110.363 142.28 110.386 142.28C110.386 142.28 110.433 142.257 110.457 142.257C110.48 142.257 110.48 142.257 110.48 142.257H110.527C110.574 142.257 110.645 142.233 110.692 142.233H110.739H110.881C110.881 142.233 110.904 142.233 110.928 142.233H111.022C111.045 142.233 111.069 142.233 111.069 142.233C111.069 142.233 111.139 142.257 111.163 142.257C111.21 142.257 111.234 142.28 111.281 142.28C111.304 142.28 111.328 142.28 111.351 142.304C111.351 142.304 111.398 142.328 111.422 142.328C111.493 142.351 111.563 142.375 111.634 142.398C111.657 142.398 111.681 142.422 111.704 142.422C111.728 142.422 111.728 142.446 111.752 142.446C111.869 142.493 111.987 142.564 112.105 142.635C112.199 142.682 112.293 142.753 112.387 142.8C112.411 142.823 112.434 142.847 112.481 142.871C112.552 142.918 112.599 142.965 112.67 143.012C112.693 143.036 112.74 143.06 112.764 143.083C112.811 143.13 112.882 143.178 112.929 143.225C112.952 143.248 112.999 143.296 113.023 143.319C113.046 143.343 113.07 143.366 113.093 143.366C113.117 143.39 113.14 143.414 113.164 143.437C113.235 143.508 113.282 143.579 113.352 143.65C113.376 143.673 113.399 143.697 113.423 143.721C113.447 143.744 113.447 143.768 113.47 143.768C113.517 143.815 113.541 143.862 113.588 143.91C113.611 143.933 113.635 143.957 113.658 144.004C113.682 144.028 113.705 144.051 113.705 144.075C113.729 144.098 113.753 144.146 113.776 144.193C113.8 144.216 113.823 144.24 113.823 144.264C113.847 144.311 113.87 144.358 113.917 144.382C113.941 144.405 113.964 144.429 113.964 144.476L113.988 144.5C114.035 144.571 114.082 144.665 114.129 144.736C114.153 144.76 114.153 144.783 114.153 144.783C114.176 144.83 114.223 144.901 114.247 144.948C114.27 144.972 114.27 144.996 114.294 145.019C114.318 145.043 114.318 145.066 114.341 145.114C114.365 145.137 114.365 145.161 114.388 145.185C114.412 145.255 114.459 145.326 114.482 145.397C114.482 145.421 114.482 145.421 114.506 145.444C114.553 145.539 114.577 145.61 114.624 145.704C114.624 145.728 114.624 145.728 114.647 145.751C114.647 145.775 114.671 145.822 114.671 145.846C114.694 145.893 114.694 145.94 114.718 145.964C114.718 145.987 114.741 146.035 114.741 146.058C114.765 146.105 114.765 146.129 114.788 146.176C114.788 146.2 114.812 146.223 114.812 146.247C114.835 146.294 114.835 146.341 114.835 146.389C114.859 146.436 114.859 146.483 114.883 146.53C114.883 146.554 114.883 146.554 114.906 146.578C114.906 146.601 114.906 146.648 114.93 146.672C114.953 146.743 114.953 146.814 114.977 146.908C114.977 146.932 114.977 146.955 114.977 146.979C114.977 147.026 114.977 147.073 115 147.121C115 147.144 115 147.191 115 147.215C115 147.333 115.024 147.428 115.024 147.522C115.024 148.301 114.788 148.891 114.365 149.222C114.318 149.269 114.247 149.316 114.176 149.34L112.293 150.45C112.811 150.143 113.117 149.505 113.117 148.608C113.117 148.514 113.117 148.396 113.093 148.301C113.093 148.372 113.093 148.348 113.07 148.301Z" fill="#231F20"/>
<path d="M110.245 143.791C108.668 142.87 107.396 143.602 107.373 145.42C107.373 147.238 108.644 149.458 110.221 150.355C111.799 151.276 113.07 150.544 113.093 148.726C113.117 146.908 111.822 144.688 110.245 143.791Z" fill="#2B2B2B"/>
<path d="M109.279 150.544C109.279 150.473 109.256 150.402 109.256 150.332C109.256 150.261 109.232 150.19 109.209 150.096C109.209 150.048 109.185 150.001 109.185 149.93C109.185 149.883 109.162 149.836 109.138 149.789C109.115 149.718 109.115 149.647 109.091 149.576C109.091 149.529 109.068 149.505 109.044 149.458C109.02 149.387 108.997 149.316 108.973 149.222C108.973 149.198 108.95 149.151 108.95 149.127C108.903 149.033 108.879 148.915 108.832 148.821C108.832 148.797 108.832 148.797 108.809 148.773C108.762 148.679 108.714 148.584 108.667 148.49C108.644 148.466 108.644 148.443 108.62 148.396C108.573 148.301 108.526 148.23 108.479 148.136C108.479 148.112 108.455 148.112 108.455 148.089C108.408 147.994 108.338 147.9 108.267 147.805C108.244 147.782 108.22 147.758 108.22 147.734C108.173 147.664 108.126 147.593 108.079 147.522C108.055 147.475 108.032 147.451 108.008 147.404C107.961 147.357 107.914 147.286 107.89 147.239C107.843 147.191 107.82 147.144 107.773 147.097C107.726 147.05 107.702 147.026 107.655 146.979C107.584 146.908 107.537 146.837 107.467 146.766C107.42 146.719 107.396 146.696 107.349 146.648C107.325 146.625 107.278 146.577 107.255 146.554C107.208 146.507 107.137 146.459 107.09 146.412C107.067 146.389 107.019 146.365 106.996 146.341C106.925 146.294 106.878 146.247 106.808 146.2C106.784 146.176 106.76 146.152 106.713 146.129C106.619 146.058 106.525 146.011 106.431 145.964C106.313 145.893 106.196 145.846 106.078 145.775C106.031 145.751 106.007 145.751 105.96 145.727C105.889 145.704 105.819 145.68 105.748 145.657C105.701 145.633 105.654 145.633 105.631 145.609C105.583 145.609 105.56 145.586 105.56 145.586C105.466 145.562 105.419 145.562 105.419 145.562C105.348 145.562 105.301 145.539 105.301 145.539H105.089C105.066 145.539 105.066 145.539 105.066 145.539C105.066 145.539 104.901 145.562 104.83 145.562L104.783 145.586C104.736 145.609 104.665 145.609 104.618 145.633L104.571 145.657C104.501 145.68 104.453 145.704 104.383 145.751L106.266 144.641H106.29C106.337 144.618 106.384 144.594 106.431 144.571H106.454C106.454 144.571 106.478 144.571 106.502 144.547C106.525 144.547 106.549 144.523 106.549 144.523C106.596 144.5 106.619 144.5 106.666 144.5C106.666 144.5 106.69 144.5 106.713 144.476H106.737C106.784 144.476 106.855 144.452 106.902 144.452H106.949C106.996 144.452 107.043 144.452 107.09 144.452H107.137C107.137 144.452 107.184 144.452 107.231 144.452C107.231 144.452 107.278 144.452 107.302 144.452L107.373 144.476C107.42 144.476 107.443 144.5 107.49 144.5L107.561 144.523C107.584 144.523 107.608 144.547 107.632 144.547C107.702 144.571 107.773 144.594 107.843 144.618C107.867 144.618 107.89 144.641 107.914 144.641C107.914 144.641 107.938 144.665 107.961 144.665C108.079 144.712 108.197 144.783 108.314 144.854C108.408 144.901 108.503 144.972 108.597 145.019C108.62 145.043 108.644 145.066 108.691 145.09C108.762 145.137 108.809 145.184 108.879 145.232C108.903 145.255 108.95 145.279 108.973 145.302C109.02 145.35 109.091 145.397 109.138 145.444C109.162 145.468 109.209 145.515 109.232 145.539C109.256 145.562 109.279 145.586 109.303 145.586C109.327 145.609 109.35 145.633 109.374 145.657C109.444 145.727 109.491 145.798 109.562 145.869C109.585 145.893 109.609 145.916 109.633 145.94C109.656 145.964 109.656 145.987 109.68 145.987C109.727 146.034 109.75 146.082 109.797 146.129C109.821 146.152 109.844 146.176 109.868 146.223C109.891 146.247 109.915 146.271 109.915 146.294C109.939 146.318 109.962 146.365 109.986 146.412C110.009 146.436 110.033 146.459 110.033 146.483C110.056 146.53 110.08 146.577 110.127 146.601C110.15 146.625 110.174 146.648 110.174 146.696C110.174 146.719 110.198 146.719 110.198 146.719C110.245 146.79 110.292 146.884 110.339 146.955V146.979C110.339 147.002 110.362 147.002 110.362 147.026C110.386 147.073 110.433 147.144 110.456 147.191C110.48 147.215 110.48 147.239 110.504 147.262C110.527 147.286 110.527 147.309 110.551 147.357C110.574 147.38 110.574 147.404 110.598 147.427C110.621 147.498 110.668 147.569 110.692 147.64C110.692 147.664 110.692 147.664 110.715 147.687C110.763 147.782 110.786 147.852 110.81 147.947C110.81 147.971 110.81 147.971 110.833 147.994C110.833 148.018 110.857 148.065 110.857 148.089C110.88 148.136 110.88 148.183 110.904 148.207C110.904 148.23 110.927 148.277 110.927 148.301C110.951 148.348 110.951 148.372 110.974 148.419C110.974 148.443 110.998 148.466 110.998 148.49C111.021 148.537 111.021 148.584 111.021 148.632C111.045 148.679 111.045 148.726 111.069 148.773C111.069 148.797 111.069 148.797 111.092 148.821C111.092 148.844 111.092 148.891 111.116 148.915C111.139 148.986 111.139 149.057 111.163 149.151C111.163 149.175 111.163 149.198 111.163 149.222C111.163 149.269 111.163 149.316 111.186 149.364C111.186 149.387 111.186 149.434 111.186 149.458C111.186 149.576 111.21 149.671 111.21 149.765C111.21 150.544 110.974 151.134 110.551 151.465C110.504 151.512 110.433 151.559 110.362 151.583L108.479 152.693C108.997 152.386 109.303 151.748 109.303 150.851C109.303 150.757 109.303 150.639 109.279 150.544C109.279 150.591 109.279 150.615 109.279 150.544Z" fill="#231F20"/>
<path d="M106.455 146.035C104.877 145.114 103.606 145.846 103.583 147.664C103.583 149.482 104.854 151.701 106.431 152.598C108.008 153.519 109.28 152.787 109.303 150.969C109.303 149.151 108.032 146.932 106.455 146.035Z" fill="#2B2B2B"/>
<path d="M156.009 123.439C156.009 123.368 155.986 123.297 155.986 123.226C155.986 123.156 155.962 123.085 155.939 122.99C155.939 122.943 155.915 122.896 155.915 122.825C155.915 122.778 155.892 122.731 155.868 122.683C155.845 122.613 155.845 122.542 155.821 122.471C155.821 122.424 155.797 122.4 155.774 122.353C155.75 122.282 155.727 122.211 155.703 122.117C155.703 122.093 155.68 122.046 155.68 122.022C155.633 121.928 155.609 121.81 155.562 121.715C155.562 121.692 155.562 121.692 155.538 121.668C155.491 121.574 155.444 121.479 155.397 121.385C155.374 121.408 155.374 121.361 155.35 121.338C155.303 121.243 155.256 121.172 155.209 121.078C155.209 121.054 155.185 121.054 155.185 121.031C155.138 120.936 155.068 120.842 154.997 120.747C154.973 120.724 154.95 120.7 154.95 120.676C154.903 120.606 154.856 120.535 154.809 120.464C154.785 120.417 154.762 120.393 154.738 120.346C154.691 120.299 154.644 120.228 154.62 120.181C154.573 120.133 154.55 120.086 154.503 120.039C154.456 119.992 154.432 119.968 154.385 119.921C154.314 119.85 154.267 119.779 154.197 119.708C154.15 119.661 154.126 119.638 154.079 119.59C154.055 119.567 154.008 119.519 153.985 119.496C153.938 119.449 153.867 119.401 153.82 119.354C153.796 119.331 153.749 119.307 153.726 119.283C153.679 119.236 153.608 119.189 153.537 119.142C153.514 119.118 153.49 119.094 153.443 119.071C153.349 119 153.255 118.953 153.161 118.906C153.043 118.835 152.925 118.788 152.808 118.717C152.761 118.693 152.737 118.693 152.69 118.669C152.619 118.646 152.549 118.622 152.478 118.599C152.431 118.575 152.384 118.575 152.36 118.575C152.313 118.575 152.29 118.551 152.243 118.551C152.196 118.551 152.149 118.528 152.101 118.528C152.101 118.528 152.054 118.528 152.007 118.528H151.819H151.795C151.701 118.528 151.631 118.551 151.56 118.551C151.536 118.551 151.536 118.551 151.536 118.551C151.466 118.575 151.419 118.575 151.372 118.599C151.348 118.599 151.348 118.599 151.325 118.622C151.254 118.646 151.207 118.669 151.136 118.717L153.02 117.607C153.02 117.607 153.02 117.607 153.043 117.607C153.09 117.583 153.137 117.56 153.184 117.536H153.208C153.231 117.536 153.255 117.513 153.255 117.513C153.255 117.513 153.302 117.489 153.326 117.489C153.349 117.489 153.373 117.465 153.373 117.465C153.42 117.465 153.443 117.442 153.443 117.442H153.49C153.537 117.442 153.608 117.418 153.655 117.418C153.655 117.418 153.679 117.418 153.702 117.418C153.702 117.418 153.796 117.418 153.844 117.418H153.891H153.985C154.008 117.418 154.032 117.418 154.032 117.418C154.079 117.418 154.102 117.442 154.102 117.442C154.173 117.442 154.197 117.465 154.197 117.465C154.267 117.489 154.267 117.489 154.291 117.489L154.361 117.513C154.432 117.536 154.503 117.56 154.573 117.583C154.597 117.583 154.62 117.607 154.644 117.607C154.667 117.607 154.667 117.631 154.691 117.631C154.809 117.678 154.926 117.749 155.044 117.819C155.138 117.867 155.232 117.938 155.327 117.985C155.35 118.008 155.374 118.032 155.421 118.056C155.491 118.103 155.538 118.15 155.609 118.197C155.633 118.221 155.68 118.244 155.703 118.268C155.75 118.315 155.821 118.363 155.868 118.41C155.892 118.433 155.939 118.481 155.962 118.504C155.986 118.528 156.009 118.551 156.033 118.551C156.056 118.575 156.08 118.599 156.103 118.622C156.174 118.693 156.221 118.764 156.292 118.835C156.315 118.858 156.339 118.882 156.362 118.906C156.386 118.929 156.386 118.953 156.41 118.953C156.457 119 156.48 119.047 156.527 119.094C156.551 119.118 156.574 119.142 156.598 119.189C156.621 119.213 156.645 119.236 156.645 119.26C156.668 119.283 156.692 119.331 156.716 119.378C156.739 119.401 156.763 119.425 156.763 119.449C156.786 119.496 156.81 119.543 156.857 119.567C156.88 119.59 156.904 119.614 156.904 119.661C156.904 119.685 156.927 119.685 156.927 119.685C156.975 119.756 157.022 119.85 157.069 119.921C157.092 119.944 157.092 119.968 157.092 119.968C157.116 120.015 157.163 120.086 157.186 120.133C157.21 120.157 157.21 120.181 157.233 120.204C157.257 120.228 157.257 120.251 157.281 120.299C157.304 120.322 157.304 120.346 157.328 120.369C157.351 120.44 157.398 120.511 157.422 120.582C157.422 120.606 157.422 120.606 157.445 120.629C157.492 120.724 157.516 120.794 157.563 120.889C157.563 120.913 157.563 120.913 157.587 120.936C157.587 120.96 157.61 121.007 157.61 121.031C157.634 121.078 157.634 121.125 157.657 121.149C157.657 121.172 157.681 121.219 157.681 121.243C157.704 121.29 157.704 121.314 157.728 121.361C157.728 121.385 157.751 121.408 157.751 121.432C157.751 121.479 157.775 121.526 157.775 121.574C157.798 121.621 157.798 121.668 157.822 121.715C157.822 121.739 157.822 121.739 157.846 121.763C157.846 121.786 157.846 121.833 157.869 121.857C157.893 121.928 157.893 121.999 157.916 122.093C157.916 122.117 157.916 122.14 157.916 122.164C157.916 122.211 157.916 122.258 157.94 122.306C157.94 122.329 157.94 122.376 157.94 122.4C157.94 122.518 157.963 122.613 157.963 122.707C157.963 123.486 157.728 124.076 157.304 124.407C157.257 124.454 157.186 124.501 157.116 124.525L155.232 125.635C155.75 125.328 156.056 124.69 156.056 123.793C156.056 123.699 156.056 123.581 156.033 123.486C156.009 123.51 156.009 123.463 156.009 123.439Z" fill="#231F20"/>
<path d="M153.184 118.906C151.607 117.985 150.336 118.717 150.312 120.535C150.312 122.353 151.583 124.572 153.161 125.469C154.738 126.39 156.009 125.658 156.033 123.84C156.033 122.046 154.762 119.826 153.184 118.906Z" fill="#2B2B2B"/>
<path d="M152.196 125.682C152.196 125.611 152.172 125.54 152.172 125.469C152.172 125.399 152.149 125.328 152.125 125.233C152.125 125.186 152.101 125.139 152.101 125.068C152.101 125.021 152.078 124.974 152.054 124.926C152.031 124.855 152.031 124.785 152.007 124.714C152.007 124.667 151.984 124.643 151.96 124.596C151.937 124.525 151.913 124.454 151.89 124.36C151.89 124.336 151.866 124.289 151.866 124.265C151.819 124.171 151.795 124.053 151.748 123.958C151.748 123.935 151.748 123.935 151.725 123.911C151.678 123.817 151.631 123.722 151.584 123.628C151.56 123.604 151.56 123.58 151.536 123.533C151.489 123.439 151.442 123.368 151.395 123.274C151.395 123.25 151.372 123.25 151.372 123.226C151.325 123.132 151.254 123.037 151.183 122.943C151.16 122.919 151.136 122.896 151.136 122.872C151.089 122.801 151.042 122.73 150.995 122.66C150.971 122.612 150.948 122.589 150.924 122.542C150.877 122.494 150.83 122.424 150.807 122.376C150.76 122.329 150.736 122.282 150.689 122.235C150.642 122.187 150.618 122.164 150.571 122.117C150.501 122.046 150.454 121.975 150.383 121.904C150.336 121.857 150.312 121.833 150.265 121.786C150.242 121.762 150.195 121.715 150.171 121.692C150.124 121.644 150.053 121.597 150.006 121.55C149.983 121.526 149.936 121.503 149.912 121.479C149.841 121.432 149.794 121.385 149.724 121.337C149.7 121.314 149.677 121.29 149.63 121.267C149.535 121.196 149.441 121.149 149.347 121.101C149.229 121.03 149.112 120.983 148.994 120.912C148.947 120.889 148.923 120.889 148.876 120.865C148.806 120.842 148.735 120.818 148.664 120.794C148.617 120.771 148.57 120.771 148.547 120.747C148.5 120.747 148.476 120.724 148.476 120.724C148.382 120.7 148.335 120.7 148.288 120.7C148.264 120.7 148.241 120.7 148.241 120.7C148.146 120.7 148.099 120.7 148.029 120.7H148.005C147.911 120.7 147.84 120.724 147.77 120.724C147.77 120.724 147.746 120.724 147.723 120.747C147.676 120.771 147.605 120.771 147.558 120.794L147.511 120.818C147.44 120.842 147.393 120.865 147.323 120.912L149.206 119.803H149.229C149.276 119.779 149.324 119.755 149.371 119.732H149.394L149.441 119.708C149.465 119.708 149.488 119.685 149.512 119.685C149.535 119.685 149.559 119.661 149.582 119.661C149.582 119.661 149.606 119.661 149.63 119.661H149.653C149.7 119.661 149.771 119.637 149.771 119.637H149.841H149.889H150.03H150.077C150.1 119.637 150.124 119.637 150.124 119.637C150.124 119.637 150.195 119.637 150.242 119.637L150.312 119.661C150.359 119.661 150.383 119.685 150.43 119.685L150.501 119.708C150.524 119.708 150.548 119.732 150.571 119.732C150.642 119.755 150.712 119.779 150.783 119.803C150.807 119.803 150.83 119.826 150.854 119.826C150.854 119.826 150.877 119.85 150.901 119.85C151.019 119.897 151.136 119.968 151.254 120.039C151.348 120.086 151.442 120.157 151.536 120.204C151.56 120.228 151.584 120.251 151.631 120.275C151.701 120.322 151.748 120.369 151.819 120.417C151.842 120.44 151.89 120.464 151.913 120.487C151.96 120.535 152.031 120.582 152.078 120.629C152.101 120.653 152.149 120.7 152.172 120.724C152.196 120.747 152.219 120.771 152.243 120.771C152.266 120.794 152.29 120.818 152.313 120.842C152.384 120.912 152.431 120.983 152.502 121.054C152.525 121.078 152.549 121.101 152.572 121.125C152.596 121.149 152.596 121.172 152.619 121.172C152.666 121.219 152.69 121.267 152.737 121.314C152.761 121.337 152.784 121.361 152.808 121.408C152.831 121.432 152.855 121.455 152.855 121.479C152.878 121.503 152.902 121.55 152.925 121.597C152.949 121.621 152.972 121.644 152.972 121.668C152.996 121.715 153.02 121.762 153.067 121.786C153.09 121.81 153.114 121.833 153.114 121.88L153.137 121.904C153.184 121.975 153.231 122.069 153.278 122.14V122.164C153.278 122.187 153.302 122.187 153.302 122.211C153.326 122.258 153.373 122.329 153.396 122.376C153.42 122.4 153.42 122.424 153.443 122.447C153.467 122.471 153.467 122.494 153.49 122.542C153.514 122.565 153.514 122.589 153.537 122.612C153.561 122.683 153.608 122.754 153.632 122.825C153.632 122.849 153.632 122.849 153.655 122.872C153.702 122.967 153.726 123.037 153.749 123.132C153.749 123.155 153.749 123.155 153.773 123.179C153.773 123.203 153.796 123.25 153.796 123.274C153.82 123.321 153.82 123.368 153.843 123.392C153.843 123.415 153.867 123.462 153.867 123.486C153.891 123.533 153.891 123.557 153.914 123.604C153.914 123.628 153.938 123.651 153.938 123.675C153.938 123.722 153.961 123.769 153.961 123.817C153.985 123.864 153.985 123.911 154.008 123.958C154.008 123.982 154.008 123.982 154.032 124.005C154.032 124.029 154.032 124.076 154.055 124.1C154.079 124.171 154.079 124.242 154.102 124.336C154.102 124.36 154.102 124.383 154.102 124.407C154.102 124.454 154.102 124.501 154.126 124.549C154.126 124.572 154.126 124.619 154.126 124.643C154.126 124.761 154.15 124.855 154.15 124.95C154.15 125.729 153.914 126.319 153.49 126.65C153.443 126.697 153.373 126.744 153.302 126.768L151.419 127.878C151.937 127.571 152.243 126.933 152.243 126.036C152.243 125.942 152.243 125.824 152.219 125.729C152.219 125.753 152.196 125.705 152.196 125.682Z" fill="#231F20"/>
<path d="M149.371 121.149C147.793 120.228 146.522 120.96 146.499 122.778C146.499 124.596 147.77 126.815 149.347 127.713C150.924 128.634 152.196 127.902 152.219 126.084C152.219 124.289 150.948 122.07 149.371 121.149Z" fill="#2B2B2B"/>
<path d="M64.8567 87.5257L64.8802 100.89L70.0358 103.888L69.9887 90.5243L64.8567 87.5257Z" fill="#939598"/>
<path d="M69.9888 90.5246L70.0359 103.888L83.4074 96.144L83.3603 82.7802L69.9888 90.5246Z" fill="#808285"/>
<path d="M64.8567 87.5259L69.9887 90.5246L83.3603 82.7801L78.2282 79.7815L64.8567 87.5259Z" fill="#E6E7E8"/>
<path d="M68.7646 29.2067L68.9294 87.6914L70.9069 88.8483L70.7421 30.3636L68.7646 29.2067Z" fill="#A7A9AC"/>
<path d="M70.7422 30.3636L70.907 88.8483L79.4996 83.89L79.3348 25.4053L70.7422 30.3636Z" fill="#D5D7E3"/>
<path d="M68.7646 29.2067L70.7421 30.3637L79.3348 25.4053L77.3337 24.2248L68.7646 29.2067Z" fill="#909294"/>
<path d="M50.5435 117.418V119.756L104.948 151.465V149.128L50.5435 117.418Z" fill="#6D6E71"/>
<path d="M104.948 149.128V151.465L159.729 119.756L159.705 117.418L104.948 149.128Z" fill="#6D6E71"/>
<path d="M50.5435 117.418L104.948 149.128L159.705 117.418L105.301 85.7081L50.5435 117.418Z" fill="#1E1B1C"/>
<path d="M49.2488 105.518L49.2959 117.205L104.971 149.671L104.924 137.96L49.2488 105.518Z" fill="#BCBEC0"/>
<path d="M104.924 137.96L104.971 149.671L161 117.205L160.977 105.518L104.924 137.96Z" fill="#BCBEC0"/>
<path d="M49.2488 105.518L104.924 137.959L160.977 105.518L105.301 73.076L49.2488 105.518Z" fill="#D1D3D4"/>
<path d="M50.5435 103.062V105.424L104.948 137.133V134.796L50.5435 103.062Z" fill="#D1D3D4"/>
<path d="M104.948 134.796V137.133L159.729 105.423L159.705 103.086L104.948 134.796Z" fill="#D1D3D4"/>
<path d="M50.5435 103.062L104.948 134.796L159.705 103.086L105.301 71.3525L50.5435 103.062Z" fill="#F1F2F2"/>
<path d="M89.9049 26.1373L87.433 26.3262L86.5149 26.8693L88.9632 26.6804L89.9049 26.1373Z" fill="#161314"/>
<path d="M88.9632 26.6804L86.5149 26.8692L86.6091 27.1526L89.0809 26.9401L88.9632 26.6804Z" fill="#121011"/>
<path d="M84.4433 11.9L81.9714 12.0889L87.433 26.3264L89.9049 26.1375L84.4433 11.9Z" fill="#121011"/>
<path d="M87.998 24.1541L85.5261 24.343L86.5149 26.8694L88.9632 26.6805L87.998 24.1541Z" fill="#121011"/>
<path d="M86.0677 8.09833L83.6194 8.28722L90.8701 27.1997L93.342 27.0108L86.0677 8.09833Z" fill="#616263"/>
<path d="M89.081 26.94L86.6092 27.1525L83.5488 28.9233L86.0207 28.7344L89.081 26.94Z" fill="#161314"/>
<path d="M85.9029 28.4512L83.4546 28.6401L83.5488 28.9235L86.0206 28.7346L85.9029 28.4512Z" fill="#793224"/>
<path d="M84.4433 11.9L81.9714 12.0889L85.5968 21.5334L88.0451 21.3445L84.4433 11.9Z" fill="#121011"/>
<path d="M87.9981 24.1541L85.5262 24.343L82.4658 26.1138L84.9377 25.9249L87.9981 24.1541Z" fill="#923C2B"/>
<path d="M84.9377 25.9249L82.4658 26.1138L83.4546 28.6402L85.9029 28.4513L84.9377 25.9249Z" fill="#793224"/>
<path d="M84.9377 25.9249L85.9029 28.4513L86.0207 28.7347L89.081 26.9402L88.9633 26.6805L87.9981 24.1541L84.9377 25.9249Z" fill="#D7583F"/>
<path d="M85.9028 28.4512L83.4545 28.6401L81.6418 29.7026L84.0902 29.4901L85.9028 28.4512Z" fill="#161314"/>
<path d="M84.0902 29.49L81.6418 29.7025L81.736 29.9622L84.2079 29.7733L84.0902 29.49Z" fill="#121011"/>
<path d="M83.1251 26.9637L80.6768 27.1526L81.642 29.7026L84.0903 29.4901L83.1251 26.9637Z" fill="#121011"/>
<path d="M84.2078 29.7734L81.7359 29.9623L78.6755 31.7332L81.1474 31.5443L84.2078 29.7734Z" fill="#161314"/>
<path d="M81.0298 31.2609L78.5815 31.4734L78.6757 31.7331L81.1476 31.5442L81.0298 31.2609Z" fill="#186A3B"/>
<path d="M80.0645 28.7346L77.6162 28.9471L78.5814 31.4735L81.0297 31.261L80.0645 28.7346Z" fill="#186A3B"/>
<path d="M83.1249 26.9637L80.6766 27.1526L77.6162 28.9471L80.0645 28.7346L83.1249 26.9637Z" fill="#1D7F47"/>
<path d="M79.2171 32.3236L76.7688 32.5125L76.863 32.7958L79.3348 32.6069L79.2171 32.3236Z" fill="#121011"/>
<path d="M81.0298 31.2609L78.5815 31.4734L76.7688 32.5123L79.2171 32.3234L81.0298 31.2609Z" fill="#161314"/>
<path d="M78.2519 29.7968L75.78 29.9857L76.7688 32.5121L79.2171 32.3232L78.2519 29.7968Z" fill="#121011"/>
<path d="M79.3347 32.607L76.8629 32.7959L73.8025 34.5667L76.2743 34.3778L79.3347 32.607Z" fill="#161314"/>
<path d="M76.1568 34.0944L73.7085 34.2833L73.8027 34.5667L76.2745 34.3778L76.1568 34.0944Z" fill="#616263"/>
<path d="M75.1916 31.5676L72.7197 31.7565L73.7085 34.2829L76.1568 34.094L75.1916 31.5676Z" fill="#616263"/>
<path d="M78.252 29.7968L75.7801 29.9857L72.7197 31.7565L75.1916 31.5676L78.252 29.7968Z" fill="#757778"/>
<path d="M75.1914 31.5676L76.1566 34.094L76.2743 34.3774L79.3347 32.6065L79.217 32.3232L78.2518 29.7968L75.1914 31.5676Z" fill="#ADAFB1"/>
<path d="M74.3441 35.1332L71.8958 35.3457L71.9899 35.6055L74.4618 35.4166L74.3441 35.1332Z" fill="#121011"/>
<path d="M76.1567 34.0944L73.7084 34.2833L71.8958 35.3458L74.3441 35.1333L76.1567 34.0944Z" fill="#161314"/>
<path d="M73.3788 32.607L70.907 32.8195L71.8957 35.3459L74.344 35.1334L73.3788 32.607Z" fill="#121011"/>
<path d="M74.4617 35.4166L71.9898 35.6055L68.9294 37.3763L71.4013 37.1875L74.4617 35.4166Z" fill="#161314"/>
<path d="M71.2835 36.9275L68.8352 37.1164L68.9294 37.3761L71.4012 37.1872L71.2835 36.9275Z" fill="#616263"/>
<path d="M70.3184 34.3778L67.8701 34.5903L68.8353 37.1167L71.2836 36.9278L70.3184 34.3778Z" fill="#616263"/>
<path d="M73.3788 32.607L70.907 32.8195L67.8701 34.5903L70.3184 34.3778L73.3788 32.607Z" fill="#757778"/>
<path d="M71.2837 36.9275L68.8354 37.1164L67.0227 38.1553L69.4946 37.9664L71.2837 36.9275Z" fill="#161314"/>
<path d="M69.4946 37.9668L67.0227 38.1557L67.1169 38.439L69.5887 38.2265L69.4946 37.9668Z" fill="#121011"/>
<path d="M68.5057 35.44L66.0574 35.6289L67.0226 38.1553L69.4944 37.9664L68.5057 35.44Z" fill="#121011"/>
<path d="M69.5886 38.2263L67.1168 38.4388L64.0564 40.2097L66.5283 39.9972L69.5886 38.2263Z" fill="#161314"/>
<path d="M66.434 39.7377L63.9622 39.9266L64.0563 40.2099L66.5282 39.9974L66.434 39.7377Z" fill="#616263"/>
<path d="M68.5058 35.44L66.0575 35.6289L62.9971 37.3997L65.4454 37.2108L68.5058 35.44Z" fill="#757778"/>
<path d="M66.434 39.7377L63.9622 39.9266L63.0205 40.4696L65.4924 40.2807L66.434 39.7377Z" fill="#161314"/>
<path d="M65.4454 37.2109L62.9971 37.3998L63.9623 39.9262L66.4341 39.7373L65.4454 37.2109Z" fill="#616263"/>
<path d="M63.6562 35.4639L61.1843 35.6764L63.0206 40.4695L65.4924 40.2806L63.6562 35.4639Z" fill="#121011"/>
<path d="M65.4453 37.2108L66.4341 39.7372L66.5282 39.997L69.5886 38.2261L69.4944 37.9664L68.5057 35.44L65.4453 37.2108Z" fill="#ADAFB1"/>
<path d="M93.342 27.011L90.8701 27.1999L61.3962 44.2708L63.8446 44.0819L93.342 27.011Z" fill="#757778"/>
<path d="M60.0308 26.0431L63.6561 35.4639L88.0451 21.3445L84.4433 11.9L60.0308 26.0431Z" fill="#177FC0"/>
<path d="M60.0307 26.0429L57.5588 26.2318L61.1842 35.6762L63.6561 35.4637L60.0307 26.0429Z" fill="#2E2E2F"/>
<path d="M84.4432 11.9L81.9713 12.0889L57.5588 26.232L60.0307 26.0431L84.4432 11.9Z" fill="#373839"/>
<path d="M86.0676 8.09833L83.6193 8.28722L54.1218 25.3817L56.5937 25.1692L86.0676 8.09833Z" fill="#161314"/>
<path d="M56.5937 25.1692L54.1218 25.3817L61.3961 44.2706L63.8445 44.0817L56.5937 25.1692Z" fill="#121011"/>
<path d="M95.6255 27.5776L62.7617 46.6082L54.3103 24.6026L87.1742 5.57208L95.6255 27.5776ZM63.8446 44.0818L93.342 27.011L86.0913 8.12208L56.5938 25.1929L63.8446 44.0818Z" fill="#E6E7E8"/>
<path d="M89.905 26.1375L88.9633 26.6806L87.9981 24.1542L84.9377 25.925L85.9029 28.4514L84.0902 29.4903L83.125 26.9639L80.0646 28.7348L81.0298 31.2611L79.2172 32.3236L78.252 29.7973L75.1916 31.5681L76.1568 34.0945L74.3441 35.1334L73.3789 32.607L70.3185 34.3778L71.2837 36.9278L69.4945 37.9667L68.5058 35.4403L65.4454 37.2111L66.4341 39.7375L65.4925 40.2806L63.6562 35.4639L88.0452 21.3445L89.905 26.1375Z" fill="#201D1D"/>
<path d="M56.5938 25.1692L63.8445 44.058L93.342 26.9872L86.0912 8.09833L56.5938 25.1692ZM65.4924 40.2803L63.6562 35.4872L60.0308 26.0428L84.4433 11.8997L89.9049 26.1372L88.9632 26.6803L89.0574 26.94L85.997 28.7108L85.9029 28.4511L84.0902 29.49L84.1843 29.7497L81.1239 31.5205L81.0298 31.2608L79.2171 32.3233L79.3112 32.583L76.2509 34.3539L76.1567 34.0942L74.344 35.1331L74.4617 35.4164L71.4013 37.1872L71.3072 36.9275L69.4945 37.9664L69.5886 38.2261L66.5282 39.9969L66.4341 39.7372L65.4924 40.2803Z" fill="#201D1D"/>
<path d="M84.0903 29.4901L84.208 29.7735L81.1476 31.5443L81.0299 31.261L80.0647 28.7346L83.1251 26.9637L84.0903 29.4901Z" fill="#2ABC68"/>
<path d="M70.3184 34.3778L71.2836 36.9278L71.4013 37.1875L74.4617 35.4167L74.3439 35.1334L73.3787 32.607L70.3184 34.3778Z" fill="#ADAFB1"/>
<path d="M87.1741 5.57208L84.7022 5.76097L51.8384 24.8151L54.2867 24.6026L87.1741 5.57208Z" fill="#F1F2F2"/>
<path d="M54.2867 24.6027L51.8384 24.8152L60.2898 46.7972L62.7381 46.6083L54.2867 24.6027Z" fill="#BCBEC0"/>
<path d="M80.7473 86.0622V107.312L106.384 122.352L106.407 101.126L80.7473 86.0622Z" fill="#F5BC6F"/>
<path d="M106.408 101.126L106.384 122.353L132.303 107.454V86.2278L106.408 101.126Z" fill="#FFCF7A"/>
<path d="M80.7473 86.0624L106.407 101.126L132.303 86.2277L106.643 71.1874L80.7473 86.0624Z" fill="#FCD495"/>
<path d="M91.0115 108.729L102.382 115.34L102.406 103.44L91.0586 96.8289L91.0115 108.729Z" fill="#F1F2F2"/>
<path d="M92.0239 102.495L92.636 102.85V99.2134L92.0475 98.8593L92.0239 102.495Z" fill="#6D6E71"/>
<path d="M93.2244 103.203L93.8364 103.558V99.9216L93.2479 99.5674L93.2244 103.203Z" fill="#6D6E71"/>
<path d="M94.425 103.912L95.0371 104.243V100.63L94.4486 100.276L94.425 103.912Z" fill="#6D6E71"/>
<path d="M95.6257 105.305L96.2378 105.636V101.315L95.6493 100.961L95.6257 105.305Z" fill="#6D6E71"/>
<path d="M96.8264 105.305L97.4385 105.659V102.023L96.85 101.669L96.8264 105.305Z" fill="#6D6E71"/>
<path d="M98.0269 106.014L98.6389 106.344V102.708L98.0504 102.378L98.0269 106.014Z" fill="#6D6E71"/>
<path d="M99.2275 107.383L99.8396 107.737V103.416L99.2511 103.062L99.2275 107.383Z" fill="#6D6E71"/>
<path d="M100.428 107.407L101.04 107.761V104.125L100.452 103.77L100.428 107.407Z" fill="#6D6E71"/>
<path d="M91.9297 107.737L101.087 113.073V112.719L91.9297 107.383V107.737Z" fill="#6D6E71"/>
<path d="M91.9531 106.344L101.087 111.68V111.349L91.9531 106.013V106.344Z" fill="#6D6E71"/>
<path d="M91.9531 104.974L101.111 110.311V109.956L91.9531 104.62V104.974Z" fill="#6D6E71"/>
<path d="M123.452 107.477L123.475 107.454C124.134 107.076 124.652 106.155 124.652 105.423V103.77L122.251 105.14V106.793C122.275 107.548 122.816 107.855 123.452 107.477Z" fill="#CF9975"/>
<path d="M123.404 109.791C123.452 109.768 123.499 109.673 123.499 109.626V106.486C123.499 106.415 123.452 106.391 123.404 106.439C123.357 106.462 123.31 106.557 123.31 106.604V109.744C123.31 109.791 123.357 109.815 123.404 109.791Z" fill="#CF9975"/>
<path d="M122.251 110.476L124.558 109.154C124.605 109.13 124.652 109.036 124.652 108.989C124.652 108.918 124.605 108.894 124.558 108.941L122.251 110.264C122.204 110.287 122.157 110.382 122.157 110.429C122.157 110.5 122.204 110.523 122.251 110.476Z" fill="#CF9975"/>
<path d="M120.438 108.162C120.65 108.044 120.862 108.021 121.003 108.068C120.956 106.722 119.967 106.179 118.767 106.864C117.543 107.572 116.53 109.296 116.507 110.712C116.672 110.429 116.907 110.169 117.142 110.028C117.519 109.815 117.825 109.886 117.966 110.169C118.108 109.721 118.414 109.296 118.79 109.083C119.167 108.871 119.473 108.942 119.614 109.225C119.756 108.8 120.062 108.375 120.438 108.162Z" fill="#CF9975"/>
<path d="M119.473 112.058L119.85 111.845C119.897 111.822 119.944 111.727 119.944 111.68C119.944 111.609 119.897 111.586 119.85 111.633L119.473 111.845C119.12 112.058 118.837 111.893 118.837 111.491V108.705C118.837 108.634 118.79 108.611 118.743 108.658C118.696 108.682 118.649 108.776 118.649 108.823V111.609C118.649 112.105 119.026 112.318 119.473 112.058Z" fill="#CF9975"/>
<path d="M128.819 105.046L129.101 103.511L130.278 103.251L130.019 103.558L130.396 104.101C130.443 104.149 130.443 104.243 130.396 104.337L129.808 105.801L129.054 104.715L128.819 105.046Z" fill="#CF9975"/>
<path d="M129.031 105.046L129.666 105.943L128.16 106.84V105.565L129.031 105.046Z" fill="#CF9975"/>
<path d="M126.865 106.32V105.99L127.759 106.439L126.865 107.926V107.595L126.088 108.044C126.017 108.091 125.947 108.091 125.9 108.02L125.335 107.218L126.865 106.32Z" fill="#CF9975"/>
<path d="M125.311 107.005L126.088 105.046L127.03 105.14L126.583 106.273L125.311 107.005Z" fill="#CF9975"/>
<path d="M126.724 103.464L127.124 102.472C127.171 102.378 127.242 102.283 127.312 102.26L128.466 101.598L127.689 103.558L127.948 103.582L126.771 104.668L126.488 103.464H126.724Z" fill="#CF9975"/>
<path d="M128.607 101.551L129.36 102.614L128.419 103.794L127.971 103.18L128.607 101.551Z" fill="#CF9975"/>
<path d="M121.733 92.6738L118.178 94.7279L92.0942 79.7113L95.649 77.6571L121.733 92.6738Z" fill="#CF9975"/>
<path d="M121.709 100.89L118.155 102.921L118.178 94.7279L121.733 92.6737L121.709 100.89Z" fill="#CF9975"/>
<path d="M80.3472 63.3954V84.6454L105.984 99.6857V78.4593L80.3472 63.3954Z" fill="#F5BC6F"/>
<path d="M105.984 78.4596V99.686L131.879 84.7874V63.561L105.984 78.4596Z" fill="#FFCF7A"/>
<path d="M80.3472 63.3957L105.984 78.4596L131.879 63.561L106.243 48.5207L80.3472 63.3957Z" fill="#FCD495"/>
<path d="M90.6113 86.0622L101.958 92.6733L102.005 80.7733L90.6584 74.1622L90.6113 86.0622Z" fill="#F1F2F2"/>
<path d="M91.6238 79.8288L92.2123 80.183L92.2359 76.5468L91.6238 76.1927V79.8288Z" fill="#6D6E71"/>
<path d="M92.8242 80.5369L93.4128 80.8911L93.4363 77.255L92.8242 76.9008V80.5369Z" fill="#6D6E71"/>
<path d="M94.0249 81.222L94.6134 81.5762L94.637 77.9401L94.0249 77.6095V81.222Z" fill="#6D6E71"/>
<path d="M95.2256 82.615L95.8141 82.9692L95.8377 78.6484L95.2256 78.2942V82.615Z" fill="#6D6E71"/>
<path d="M96.4263 82.6384L97.0148 82.9926L97.0384 79.3565L96.4263 79.0023V82.6384Z" fill="#6D6E71"/>
<path d="M97.6267 83.3235L98.2152 83.6777L98.2388 80.0416L97.6267 79.711V83.3235Z" fill="#6D6E71"/>
<path d="M98.8274 84.716L99.4159 85.0702L99.4395 80.7494L98.8274 80.3952V84.716Z" fill="#6D6E71"/>
<path d="M100.028 84.74L100.617 85.0942L100.64 81.4581L100.028 81.1039V84.74Z" fill="#6D6E71"/>
<path d="M91.5295 85.0704L100.687 90.4065V90.0524L91.5295 84.7162V85.0704Z" fill="#6D6E71"/>
<path d="M91.5295 83.6771L100.687 89.0132V88.6827L91.5295 83.3466V83.6771Z" fill="#6D6E71"/>
<path d="M91.5295 82.3078L100.687 87.644V87.2898L91.5295 81.9537V82.3078Z" fill="#6D6E71"/>
<path d="M123.051 84.8112L123.075 84.7876C123.734 84.4098 124.252 83.489 124.252 82.757V81.1042L121.851 82.4737V84.1265C121.874 84.882 122.392 85.189 123.051 84.8112Z" fill="#CF9975"/>
<path d="M123.004 87.1251C123.051 87.1015 123.099 87.007 123.099 86.9598V83.8195C123.099 83.7487 123.051 83.7251 123.004 83.7723C122.957 83.7959 122.91 83.8904 122.91 83.9376V87.0779C122.887 87.1251 122.934 87.1487 123.004 87.1251Z" fill="#CF9975"/>
<path d="M121.851 87.8099L124.158 86.4877C124.205 86.4641 124.252 86.3696 124.252 86.3224C124.252 86.2516 124.205 86.228 124.158 86.2752L121.851 87.5974C121.804 87.621 121.757 87.7154 121.757 87.7627C121.733 87.8099 121.78 87.8571 121.851 87.8099Z" fill="#CF9975"/>
<path d="M120.014 85.4956C120.226 85.3775 120.438 85.3539 120.579 85.4012C120.532 84.0553 119.544 83.5123 118.343 84.197C117.119 84.9053 116.107 86.6289 116.083 88.0456C116.248 87.7623 116.483 87.5025 116.719 87.3609C117.095 87.1484 117.401 87.2192 117.543 87.5025C117.684 87.0539 117.99 86.6289 118.367 86.4164C118.743 86.2039 119.049 86.2748 119.19 86.5581C119.355 86.1331 119.661 85.7081 120.014 85.4956Z" fill="#CF9975"/>
<path d="M119.073 89.3679L119.449 89.1554C119.496 89.1318 119.544 89.0373 119.544 88.9901C119.544 88.9193 119.496 88.8956 119.449 88.9429L119.073 89.1554C118.72 89.3679 118.437 89.2026 118.437 88.8012V86.0151C118.437 85.9443 118.39 85.9206 118.343 85.9679C118.296 85.9915 118.249 86.0859 118.249 86.1331V88.9193C118.249 89.4387 118.625 89.6512 119.073 89.3679Z" fill="#CF9975"/>
<path d="M128.419 82.3557L128.701 80.8209L129.878 80.5612L129.619 80.8682L129.996 81.4112C130.043 81.4584 130.043 81.5529 129.996 81.6473L129.407 83.1112L128.654 82.0251L128.419 82.3557Z" fill="#CF9975"/>
<path d="M128.631 82.3793L129.266 83.2766L127.736 84.1738L127.76 82.8988L128.631 82.3793Z" fill="#CF9975"/>
<path d="M126.441 83.6309V83.3004L127.336 83.749L126.441 85.2365V84.9059L125.664 85.3545C125.594 85.4017 125.523 85.4017 125.476 85.3309L124.911 84.5281L126.441 83.6309Z" fill="#CF9975"/>
<path d="M124.911 84.3391L125.664 82.3793L126.63 82.4738L126.182 83.6071L124.911 84.3391Z" fill="#CF9975"/>
<path d="M126.324 80.797L126.7 79.8053C126.747 79.7109 126.818 79.6164 126.889 79.5928L128.042 78.9317L127.265 80.8914L127.524 80.915L126.347 82.0011L126.065 80.797H126.324Z" fill="#CF9975"/>
<path d="M128.207 78.861L128.96 79.9471L128.019 81.1277L127.548 80.4902L128.207 78.861Z" fill="#CF9975"/>
<path d="M121.333 70.007L117.778 72.0612L91.6941 57.0445L95.2488 54.9904L121.333 70.007Z" fill="#CF9975"/>
<path d="M121.309 78.2236L117.731 80.2542L117.755 72.0611L121.333 70.007L121.309 78.2236Z" fill="#CF9975"/>
<defs>
<linearGradient id="paint0_linear" x1="8.87306" y1="10.425" x2="21.7847" y2="5.92284" gradientUnits="userSpaceOnUse">
<stop stop-color="#231F20"/>
<stop offset="0.0896" stop-color="#231F20"/>
<stop offset="1" stop-color="#231F20"/>
</linearGradient>
</defs>
</svg>
