<svg width="19" height="23" viewBox="0 0 19 23" fill="none" xmlns="http://www.w3.org/2000/svg">
<path d="M3.13598 0.437744C3.13598 1.00181 3.67476 1.53729 4.23553 1.53729H15.231C15.7951 1.53729 16.3305 0.998513 16.3305 0.437744H18.5296C18.5296 2.25969 17.0529 3.73638 15.231 3.73638H10.8328L10.8339 6.00365C15.1727 6.54572 18.5296 10.2468 18.5296 14.7318V21.3291C18.5296 21.9361 18.037 22.4287 17.4301 22.4287H2.03644C1.42949 22.4287 0.93689 21.9361 0.93689 21.3291V14.7318C0.93689 10.2457 4.2949 6.54462 8.63371 6.00365V3.73638H4.23553C2.41028 3.73638 0.93689 2.26299 0.93689 0.437744H3.13598ZM9.73326 10.3337C7.30326 10.3337 5.33507 12.3018 5.33507 14.7318C5.33507 17.1618 7.30326 19.13 9.73326 19.13C12.1633 19.13 14.1314 17.1618 14.1314 14.7318C14.1314 13.916 13.9093 13.1529 13.5223 12.4976L10.5106 15.5103L10.4073 15.6005C9.97626 15.9358 9.35171 15.9062 8.95588 15.5092C8.52705 15.0804 8.52705 14.3833 8.95588 13.9545L11.9675 10.9417C11.3122 10.5569 10.5491 10.3337 9.73326 10.3337Z" fill="url(#paint0_linear)"/>
<defs>
<linearGradient id="paint0_linear" x1="0.93689" y1="11.4332" x2="18.5296" y2="11.4332" gradientUnits="userSpaceOnUse">
<stop stop-color="#283745"/>
<stop offset="1" stop-color="#152331"/>
</linearGradient>
</defs>
</svg>
