<svg width="42" height="42" viewBox="0 0 42 42" fill="none" xmlns="http://www.w3.org/2000/svg">
<mask id="mask0" mask-type="alpha" maskUnits="userSpaceOnUse" x="0" y="0" width="42" height="42">
<rect width="42" height="42" rx="21" fill="#2E3D4B"/>
</mask>
<g mask="url(#mask0)">
<circle cx="21" cy="21" r="21" fill="#EECE21"/>
<path d="M16.5096 27.2031V27.2623C16.4936 28.4964 15.4534 29.4245 13.389 30.0468C15.8772 31.8513 18.3654 33.2948 20.8515 33.2948C23.3377 33.2948 25.8256 31.8495 28.3138 30.0453C26.2634 29.4228 25.2234 28.4937 25.1938 27.2579C25.1938 27.0375 25.1956 26.7247 25.1967 26.1373C25.1967 26.0441 25.1967 25.9485 25.1967 25.8506C25.3448 25.8716 25.333 25.8583 25.1967 25.821C25.2009 24.2756 25.2074 22.1973 25.2166 20.0856C27.1612 17.5716 26.4468 14.624 25.8386 14.6977C25.091 14.7866 18.6184 8.66174 17.3769 8.34835C16.1355 8.03495 12.982 9.04771 12.439 11.8733C11.896 14.6989 11.6688 21.8194 13.7278 24.6622C14.3136 25.4718 15.2361 25.7878 16.4954 25.61C16.4972 26.2025 16.5007 26.5331 16.5093 27.2028L16.5096 27.2031Z" fill="url(#paint0_linear)"/>
<path opacity="0.228" d="M16.5078 25.6165C18.2358 25.4417 19.9037 24.8872 21.3924 23.9927C21.3924 23.9927 19.3382 26.7152 16.5078 27.2407V25.6165Z" fill="#FFBE94"/>
<path d="M35.0806 33.7721C36.3676 36.3868 37.1085 42.4175 37.1085 42.4175H4.65918C4.65918 42.4175 5.39972 36.3862 6.68708 33.7721C7.97443 31.158 15.4885 28.7323 15.4885 28.7323C16.937 31.7039 24.886 31.7036 26.2738 28.7323C26.2738 28.7323 33.792 31.1571 35.0806 33.7721Z" fill="url(#paint1_linear)"/>
<path d="M26.908 19.582C27.8429 17.3394 31.5882 12.7726 28.3595 9.93041C27.2744 4.65243 21.2772 5.23687 17.2745 6.45461C14.5842 7.27335 12.5528 8.89069 12.1185 7.67265C9.40491 9.93041 10.7639 12.1387 12.5528 12.7726C14.1767 13.3479 16.9223 13.9216 21.5909 13.3816C22.4248 13.2851 22.2503 15.8322 22.6958 16.1068C23.3644 16.52 23.8834 13.9222 25.7172 14.7022C27.5511 15.4821 26.4625 19.0992 24.495 19.0992C23.8167 19.0992 23.4775 20.9594 25.309 21.8392C26.6367 22.4918 26.3008 21.0391 26.908 19.582Z" fill="#192734"/>
</g>
<defs>
<linearGradient id="paint0_linear" x1="12.0647" y1="8.29358" x2="12.0647" y2="33.2948" gradientUnits="userSpaceOnUse">
<stop stop-color="#E2FBFF"/>
<stop offset="1" stop-color="#FFE2CF"/>
</linearGradient>
<linearGradient id="paint1_linear" x1="4.65918" y1="35.5749" x2="37.1085" y2="35.5749" gradientUnits="userSpaceOnUse">
<stop stop-color="#283745"/>
<stop offset="1" stop-color="#152331"/>
</linearGradient>
</defs>
</svg>
