<svg width="199" height="150" viewBox="0 0 199 150" fill="none" xmlns="http://www.w3.org/2000/svg">
<path d="M198.966 67.0858L147.886 37.3923L147.903 44.5229L199 74.2335L198.966 67.0858Z" fill="#6B6B6B"/>
<path d="M183.901 86.1351C181.061 84.4816 178.22 82.8454 175.38 81.1919C176.137 81.6225 176.585 82.5526 176.602 83.8615C176.602 86.4968 174.743 89.7176 172.436 91.0438C171.282 91.7155 170.232 91.7672 169.474 91.3366C172.315 92.99 175.156 94.6263 177.996 96.297C178.754 96.7276 179.804 96.6759 180.958 96.0042C183.265 94.678 185.107 91.4571 185.107 88.8047C185.107 87.4957 184.642 86.5656 183.901 86.1351Z" fill="white"/>
<path d="M180.252 72.7869C178.255 71.6157 175.466 71.7707 172.384 73.5619C166.29 77.0928 161.349 85.6357 161.366 92.6456C161.383 96.1248 162.605 98.5878 164.585 99.7418C167.426 101.395 170.266 103.031 173.107 104.685C171.127 103.531 169.888 101.085 169.888 97.5888C169.87 90.5788 174.794 82.0359 180.906 78.5051C183.97 76.7311 186.759 76.5588 188.774 77.7473L180.252 72.7869Z" fill="black"/>
<path d="M191.993 84.8261C192.01 91.8361 187.087 100.379 180.975 103.91C174.88 107.441 169.905 104.599 169.888 97.5888C169.871 90.5788 174.794 82.0359 180.906 78.5051C187.018 74.9742 191.976 77.7989 191.993 84.8261ZM180.958 96.0042C183.265 94.678 185.107 91.4572 185.107 88.8048C185.107 86.1523 183.23 85.0845 180.923 86.4279C178.616 87.7541 176.757 90.9749 176.774 93.6273C176.791 96.2626 178.668 97.3304 180.958 96.0042Z" fill="#303335"/>
<path d="M159.128 88.3224L108.031 58.629L108.065 65.7595L159.162 95.4702L159.128 88.3224Z" fill="#CE6200"/>
<path d="M110.424 17.1547L140.259 0L188.774 27.9022L159.128 45.298L110.424 17.1547Z" fill="#FF912E"/>
<path d="M159.076 67.3614L159.128 88.3225L159.162 95.4703L168.149 90.2687C170.404 84.3783 174.691 78.7978 179.598 75.956C184.521 73.1141 188.808 73.7513 191.098 77.0066L196.882 73.6652V48.7255L188.791 27.9022L159.128 45.3152L159.076 67.3614Z" fill="#EA7500"/>
<path d="M172.522 60.5924V39.5969L187.844 30.589L194.489 47.6748L172.522 60.5924Z" fill="#052738"/>
<path d="M160.918 67.4129L160.987 46.3829L170.817 40.613V61.6086L160.918 67.4129Z" fill="#052738"/>
<path d="M173.434 58.9734L193.336 47.2786L187.379 31.9496L173.434 40.1308V58.9734Z" fill="#2493BC"/>
<path d="M169.905 42.2148L161.917 46.8997L161.848 65.7939L169.905 61.0574V42.2148Z" fill="#2493BC"/>
<path d="M174.02 63.2448L176.533 61.7636V64.7088L174.02 66.1901V63.2448Z" fill="white"/>
<path d="M159.128 45.3152L107.979 15.6046L108.031 58.629L159.128 88.3224V45.3152Z" fill="#CE6200"/>
<path d="M197.743 66.4657L190.84 70.4788L190.822 77.6093L191.993 78.2638L197.743 66.4657Z" fill="#494949"/>
<path d="M198.931 67.1204L192.027 71.1334L191.993 78.264L198.931 74.2337V67.1204Z" fill="#5D5D5D"/>
<path d="M197.743 66.4657L190.84 70.4788L192.028 71.1333L198.966 67.0857L197.743 66.4657Z" fill="#6B6B6B"/>
<path d="M110.337 129.228C107.497 127.575 104.656 125.921 101.816 124.268C102.573 124.699 103.038 125.629 103.038 126.938C103.055 129.59 101.179 132.811 98.8888 134.137L107.411 139.097C109.7 137.771 111.56 134.55 111.56 131.898C111.543 130.572 111.078 129.659 110.337 129.228Z" fill="white"/>
<path d="M95.9104 134.43L104.432 139.373C105.19 139.821 106.24 139.752 107.393 139.08L98.8716 134.12C97.7181 134.809 96.6679 134.861 95.9104 134.43Z" fill="white"/>
<path d="M117.43 115.088L108.909 110.127L112.197 119.945L120.701 124.905L117.43 115.088Z" fill="#FFAC06"/>
<path d="M115.21 120.823L106.705 115.88C104.691 114.709 101.919 114.881 98.8372 116.655L107.359 121.616C110.406 119.824 113.195 119.652 115.21 120.823Z" fill="#052738"/>
<path d="M91.0211 142.818L99.543 147.778C97.5632 146.624 96.3408 144.161 96.3236 140.682C96.3064 133.672 101.23 125.112 107.342 121.598L98.8199 116.638C92.7255 120.169 87.7845 128.712 87.8017 135.722C87.8189 139.218 89.0584 141.664 91.0211 142.818Z" fill="black"/>
<path d="M118.429 127.919C118.446 134.929 113.505 143.472 107.411 147.003C101.299 150.534 96.3408 147.692 96.3236 140.682C96.3064 133.672 101.23 125.112 107.342 121.598C113.436 118.067 118.412 120.892 118.429 127.919ZM107.393 139.08C109.683 137.754 111.543 134.533 111.543 131.881C111.543 129.245 109.666 128.16 107.359 129.504C105.069 130.83 103.193 134.051 103.21 136.703C103.227 139.338 105.087 140.424 107.393 139.08Z" fill="#303335"/>
<path d="M97.5115 125.112L94.0855 136.428L95.2562 136.376L98.3551 126.111L117.43 115.088L120.701 124.905L121.063 124.681L118.395 113.038L97.5115 125.112Z" fill="#FFCB5B"/>
<path d="M118.395 113.038L109.89 108.078L88.9896 120.151L97.5115 125.112L118.395 113.038Z" fill="#FFAC06"/>
<path d="M97.5115 125.112L88.9896 120.151L85.5636 131.484L94.0855 136.428L97.5115 125.112Z" fill="#FFAC06"/>
<path d="M67.6245 104.943C64.7839 103.29 61.9432 101.636 59.1198 100C59.8601 100.431 60.3249 101.361 60.3249 102.67C60.3421 105.322 58.4656 108.543 56.1758 109.869L64.6978 114.829C67.0047 113.503 68.8641 110.282 68.8468 107.63C68.8296 106.304 68.3648 105.391 67.6245 104.943Z" fill="white"/>
<path d="M53.2147 110.145L61.7194 115.105C62.4769 115.553 63.5271 115.484 64.6805 114.812L56.1586 109.852C55.0223 110.524 53.9549 110.593 53.2147 110.145Z" fill="white"/>
<path d="M74.7175 90.8198L66.2128 85.8594L69.4838 95.6768L77.9885 100.62L74.7175 90.8198Z" fill="#FFAC06"/>
<path d="M72.4966 96.538L63.9747 91.5948C61.9777 90.4236 59.1887 90.5958 56.1242 92.3699L64.6461 97.313C67.7106 95.539 70.4824 95.384 72.4966 96.538Z" fill="#052738"/>
<path d="M48.3253 118.55L56.8301 123.51C54.8502 122.356 53.6107 119.911 53.6107 116.414C53.5934 109.404 58.5172 100.844 64.6289 97.3132L56.107 92.3701C49.9953 95.9009 45.0715 104.444 45.0887 111.454C45.1232 114.933 46.3455 117.396 48.3253 118.55Z" fill="black"/>
<path d="M75.716 103.634C75.7332 110.644 70.8095 119.204 64.6978 122.718C58.5861 126.249 53.6279 123.407 53.6106 116.397C53.5934 109.387 58.5172 100.827 64.6289 97.2958C70.7406 93.7822 75.6988 96.6241 75.716 103.634ZM64.6805 114.812C66.9875 113.486 68.8468 110.265 68.8296 107.613C68.8124 104.977 66.9531 103.892 64.6461 105.236C62.3392 106.562 60.4798 109.783 60.4798 112.435C60.5143 115.07 62.3908 116.138 64.6805 114.812Z" fill="#303335"/>
<path d="M54.7985 100.827L51.3726 112.16L52.5432 112.091L55.6421 101.826L74.7175 90.8197L77.9885 100.62L78.3501 100.413L75.6988 88.7701L54.7985 100.827Z" fill="#FFCB5B"/>
<path d="M75.6988 88.7702L67.1769 83.8098L46.2938 95.8835L54.7985 100.827L75.6988 88.7702Z" fill="#FFAC06"/>
<path d="M54.7986 100.827L46.2939 95.8834L42.8506 107.217L51.3726 112.16L54.7986 100.827Z" fill="#FFAC06"/>
<path d="M159.11 89.1663L159.128 82.7764L112.627 55.8732L34.3287 101.843L85.4259 131.554L159.11 89.1663Z" fill="#052738"/>
<path d="M32.0734 99.3628L108.237 55.0811L149.28 78.7807L73.1164 123.08L32.0734 99.3628Z" fill="#CC2600"/>
<path d="M32.1939 52.1702L108.358 7.88843L108.237 55.081L32.0734 99.3628L32.1939 52.1702Z" fill="#931C00"/>
<path d="M88.2321 105.891L58.8444 88.9254L63.4066 86.2902L92.7771 103.255L88.2321 105.891Z" fill="#DD9A3A"/>
<path d="M63.4066 83.4828L67.9688 86.1008L63.4066 88.7188L58.8444 86.1008L63.4066 83.4828Z" fill="#CC8425"/>
<path d="M63.4066 88.7189V91.0957L67.9689 88.4605V86.1009L63.4066 88.7189Z" fill="#BF7113"/>
<path d="M75.8193 90.6306L80.3644 93.2486L75.8193 95.8666L71.2571 93.2486L75.8193 90.6306Z" fill="#CC8425"/>
<path d="M75.8193 95.8665V98.2606L80.3816 95.6254V93.2485L75.8193 95.8665Z" fill="#BF7113"/>
<path d="M88.2321 97.7957L92.7944 100.431L88.2321 103.032L83.6699 100.431L88.2321 97.7957Z" fill="#CC8425"/>
<path d="M88.2321 103.049V105.426L92.7944 102.791V100.414L88.2321 103.049Z" fill="#FAC952"/>
<path d="M88.2321 103.049V105.426L83.6699 102.791V100.414L88.2321 103.049Z" fill="#EDB659"/>
<path d="M63.4066 88.7189V91.0957L58.8444 88.4777V86.1009L63.4066 88.7189Z" fill="#EDB659"/>
<path d="M88.2321 105.891V106.649L58.8444 89.6834V88.9256L88.2321 105.891Z" fill="#EDB659"/>
<path d="M75.8193 95.8665V98.2606L71.2571 95.6254V93.2485L75.8193 95.8665Z" fill="#EDB659"/>
<path d="M100.628 98.7257L71.2399 81.7605L75.8021 79.1425L105.173 96.0905L100.628 98.7257Z" fill="#DD9A3A"/>
<path d="M75.8021 76.3178L80.3471 78.9358L75.8021 81.5538L71.2399 78.9358L75.8021 76.3178Z" fill="#CC8425"/>
<path d="M75.8021 81.5538V83.9307L80.3644 81.3127V78.9359L75.8021 81.5538Z" fill="#BF7113"/>
<path d="M88.2148 83.4656L92.7599 86.1008L88.2148 88.7015L83.6354 86.1008L88.2148 83.4656Z" fill="#CC8425"/>
<path d="M88.2148 88.7016V91.0957L92.7599 88.4605V86.1009L88.2148 88.7016Z" fill="#BF7113"/>
<path d="M100.628 90.6306L105.19 93.2658L100.628 95.8666L96.0654 93.2658L100.628 90.6306Z" fill="#CC8425"/>
<path d="M100.628 95.8839V98.2607L105.19 95.6427L105.173 93.2487L100.628 95.8839Z" fill="#FAC952"/>
<path d="M100.628 95.8839V98.2607L96.0654 95.6427V93.2487L100.628 95.8839Z" fill="#EDB659"/>
<path d="M75.8021 81.5538V83.9307L71.2399 81.3127V78.9359L75.8021 81.5538Z" fill="#EDB659"/>
<path d="M100.628 98.7258V99.5008L71.2399 82.5356V81.7606L100.628 98.7258Z" fill="#EDB659"/>
<path d="M88.1977 88.7187V91.0956L83.6526 88.4604V86.0835L88.1977 88.7187Z" fill="#EDB659"/>
<path d="M75.8193 113.073L46.4144 96.0905L50.9766 93.4725L80.3471 110.438L75.8193 113.073Z" fill="#DD9A3A"/>
<path d="M50.9766 90.6478L55.5389 93.283L50.9766 95.901L46.4144 93.283L50.9766 90.6478Z" fill="#CC8425"/>
<path d="M50.9766 95.8837V98.2777L55.5389 95.6425V93.2657L50.9766 95.8837Z" fill="#BF7113"/>
<path d="M63.3894 97.7955L67.9344 100.431L63.3894 103.049L58.8271 100.431L63.3894 97.7955Z" fill="#CC8425"/>
<path d="M63.3893 103.049V105.426L67.9516 102.808V100.431L63.3893 103.049Z" fill="#BF7113"/>
<path d="M88.2321 100.637L92.7944 103.273L88.2321 105.891L83.6699 103.273L88.2321 100.637Z" fill="#CC8425"/>
<path d="M88.2321 103.031V105.425L83.6699 102.79V100.431L88.2321 103.031Z" fill="#DD9A3A"/>
<path d="M88.2321 97.7955L92.7944 100.431L88.2321 103.031L83.6699 100.431L88.2321 97.7955Z" fill="#CC8425"/>
<path d="M88.2321 103.031V105.425L92.7944 102.79V100.431L88.2321 103.031Z" fill="#FAC952"/>
<path d="M88.2321 105.891V106.648L83.6699 104.03L83.6871 103.255L88.2321 105.891Z" fill="#DD9A3A"/>
<path d="M88.2321 105.891V106.648L92.7944 104.03V103.255L88.2321 105.891Z" fill="#FAC952"/>
<path d="M100.628 93.4725L105.19 96.1077L100.628 98.7256L96.0654 96.1077L100.628 93.4725Z" fill="#CC8425"/>
<path d="M100.628 95.8836V98.2605L96.0654 95.6425V93.2656L100.628 95.8836Z" fill="#DD9A3A"/>
<path d="M100.628 90.6306L105.19 93.2658L100.628 95.8838L96.0654 93.2658L100.628 90.6306Z" fill="#CC8425"/>
<path d="M100.628 95.8836V98.2605L105.19 95.6253V93.2656L100.628 95.8836Z" fill="#FAC952"/>
<path d="M100.628 98.7258V99.5008L96.0654 96.8656V96.1078L100.628 98.7258Z" fill="#DD9A3A"/>
<path d="M100.628 98.7257V99.5008L105.19 96.8656V96.0905L100.628 98.7257Z" fill="#FAC952"/>
<path d="M75.8193 104.961L80.3644 107.596L75.8193 110.214L71.2399 107.596L75.8193 104.961Z" fill="#CC8425"/>
<path d="M75.8193 109.111L105.19 92.1462L100.628 89.5282L71.2571 106.493L75.8193 109.111Z" fill="#CC8425"/>
<path d="M63.3894 101.946L92.7599 84.9812L88.2149 82.346L58.8271 99.3112L63.3894 101.946Z" fill="#CC8425"/>
<path d="M50.9766 94.7642L80.3471 77.7989L75.8021 75.181L46.4144 92.1462L50.9766 94.7642Z" fill="#CC8425"/>
<path d="M88.2149 100.792V101.568L92.7599 98.9323V98.1745L88.2149 100.792Z" fill="#FAC952"/>
<path d="M81.9999 104.375V105.15L86.5621 102.515V101.757L81.9999 104.375Z" fill="#FAC952"/>
<path d="M75.8193 110.214V112.608L80.3644 109.972V107.596L75.8193 110.214Z" fill="#FAC952"/>
<path d="M75.8193 109.111V109.869L105.19 92.9211V92.146L75.8193 109.111Z" fill="#FAC952"/>
<path d="M63.3893 101.946V102.704L92.7599 85.7389V84.9811L63.3893 101.946Z" fill="#BF7113"/>
<path d="M50.9766 94.7813V95.5391L80.3644 78.5739V77.816L50.9766 94.7813Z" fill="#BF7113"/>
<path d="M75.8193 107.957L46.4144 90.9919L50.9766 88.374L80.3471 105.339L75.8193 107.957Z" fill="#FFD578"/>
<path d="M75.8193 107.957V108.732L80.3471 106.097V105.339L75.8193 107.957Z" fill="#FAC952"/>
<path d="M94.4127 97.21L94.4299 97.985L98.9749 95.3498V94.592L94.4127 97.21Z" fill="#FAC952"/>
<path d="M100.628 93.6275V94.3853L105.19 91.7674V90.9923L100.628 93.6275Z" fill="#FAC952"/>
<path d="M75.8193 113.073V113.831L80.3644 111.196V110.438L75.8193 113.073Z" fill="#FAC952"/>
<path d="M75.8193 110.214V112.608L71.2399 109.973V107.596L75.8193 110.214Z" fill="#EDB659"/>
<path d="M75.8193 109.112V109.869L71.2399 107.251L71.2571 106.494L75.8193 109.112Z" fill="#EDB659"/>
<path d="M50.9766 95.8837V98.2777L46.4144 95.6425V93.2657L50.9766 95.8837Z" fill="#EDB659"/>
<path d="M50.9766 94.7815V95.5393L46.4144 92.9214V92.1463L50.9766 94.7815Z" fill="#EDB659"/>
<path d="M63.3894 101.947V102.704L58.8271 100.086V99.3113L63.3894 101.947Z" fill="#EDB659"/>
<path d="M75.8193 113.073V113.831L46.4144 96.8655V96.0904L75.8193 113.073Z" fill="#EDB659"/>
<path d="M75.8193 107.958V108.733L46.4144 91.7674V90.9923L75.8193 107.958Z" fill="#EDB659"/>
<path d="M82.0171 104.375L52.6293 87.4098L57.1744 84.7746L86.5621 101.757L82.0171 104.375Z" fill="#FFD578"/>
<path d="M82.0171 104.375V105.15L52.6293 88.1849V87.4098L82.0171 104.375Z" fill="#EDB659"/>
<path d="M88.2149 100.81L58.8271 83.8272L63.3894 81.2092L92.7599 98.1744L88.2149 100.81Z" fill="#FFD578"/>
<path d="M88.2149 100.81V101.568L58.8271 84.6023V83.8273L88.2149 100.81Z" fill="#EDB659"/>
<path d="M94.4299 97.2099L65.0421 80.2447L69.5871 77.6267L98.9749 94.5919L94.4299 97.2099Z" fill="#FFD578"/>
<path d="M94.4299 97.21V97.985L65.0421 81.0026V80.2448L94.4299 97.21Z" fill="#EDB659"/>
<path d="M100.628 93.6274L71.2571 76.6622L75.8021 74.027L105.19 91.0095L100.628 93.6274Z" fill="#FFD578"/>
<path d="M100.645 93.6273V94.3851L71.2571 77.4199V76.662L100.645 93.6273Z" fill="#EDB659"/>
<path d="M63.3894 103.049L63.3722 105.426L58.8271 102.808V100.431L63.3894 103.049Z" fill="#EDB659"/>
<g opacity="0.3">
<g opacity="0.3">
<g opacity="0.3">
<path opacity="0.3" d="M46.4144 90.9922L60.9103 99.3628L75.4234 90.975L60.9963 82.5871L46.4144 90.9922Z" fill="#CC8425"/>
</g>
</g>
<g opacity="0.3">
<g opacity="0.3">
<path opacity="0.3" d="M76.267 90.975L90.7284 99.3628L105.19 90.9922L90.7973 82.5871L76.267 90.975Z" fill="#CC8425"/>
</g>
</g>
<g opacity="0.3">
<g opacity="0.3">
<path opacity="0.3" d="M61.2546 99.604L75.8193 107.975L90.2119 99.604L75.8193 91.1989L61.2546 99.604Z" fill="#CC8425"/>
</g>
</g>
</g>
<path d="M75.7505 73.7515V60.8166L61.2546 69.1872V82.1221L75.7505 73.7515Z" fill="#A1663B"/>
<path d="M75.7505 73.7515V60.8166L90.212 69.1872V82.1221L75.7505 73.7515Z" fill="#DEAE80"/>
<path d="M75.7505 77.5578V90.4927L90.212 82.1221V69.1872L75.7505 77.5578Z" fill="#DEAE80"/>
<path d="M90.212 69.1872L75.7505 77.5578C75.7505 77.5578 81.208 74.9399 90.212 69.1872Z" fill="#7F492A"/>
<path d="M75.7505 77.5578V90.4927L61.2546 82.1221V69.1872L75.7505 77.5578Z" fill="#D8A57A"/>
<path d="M61.2546 69.2045L75.7505 77.5579L90.2119 69.1872L75.7849 60.8166L61.2546 69.2045Z" fill="#E3B786"/>
<path d="M82.8435 73.4759L68.3992 65.0708L68.9501 64.7608L83.3772 73.1487L82.8435 73.4759Z" fill="#7F492A"/>
<path d="M71.6531 80.9511L71.4637 81.2439L71.5498 81.3128V82.8974L71.7564 83.0007V81.4334L71.8597 81.485L71.6531 80.9511Z" fill="#281407"/>
<path d="M69.9142 82.6562V79.5904L72.5655 81.1233V84.1719L69.9142 82.6562ZM70.1036 79.9176V82.5356L72.3761 83.8618V81.2439L70.1036 79.9176Z" fill="#281407"/>
<path d="M70.5857 82.4838V82.7077L71.8769 83.4483V83.2244L70.5857 82.4838Z" fill="#281407"/>
<path d="M70.827 80.4687L70.6204 80.7615L70.7237 80.8304V82.415L70.9302 82.5183V80.9509L71.0335 81.0026L70.827 80.4687Z" fill="#281407"/>
<path d="M68.4509 80.8132C68.4337 80.796 68.4165 80.796 68.3993 80.7788C68.382 80.7615 68.3648 80.7615 68.3304 80.7443V81.2783V81.3127L68.4509 81.3816V81.3472V80.8132Z" fill="#281407"/>
<path d="M67.7967 78.7119V79.7109C67.7967 80.0726 68.0377 80.5204 68.3476 80.7271C68.3648 80.7443 68.382 80.7615 68.4165 80.7615C68.4337 80.7787 68.4509 80.7787 68.4681 80.796C68.778 80.9337 69.019 80.7787 69.019 80.417V79.4181L67.7967 78.7119Z" fill="#281407"/>
<path d="M67.7967 80.9511V81.0889L69.0018 81.7951V81.6573L68.4509 81.33V81.3645L68.3304 81.2956V81.2611L67.7967 80.9511Z" fill="#281407"/>
<path d="M67.0736 81.02L67.0908 77.9714L69.7421 79.5043V82.5529L67.0736 81.02ZM67.263 78.2814V80.8994L69.5355 82.2256L69.5527 79.6076L67.263 78.2814Z" fill="#281407"/>
<path d="M65.5586 77.4373C65.111 77.179 64.7322 77.3857 64.7322 77.9024C64.8011 77.8507 64.9044 77.8507 65.0077 77.9196C65.111 77.9885 65.2143 78.0918 65.2831 78.2296C65.3348 78.1952 65.4209 78.178 65.507 78.2124V78.0746L65.6275 78.1435V78.2813C65.7135 78.3502 65.7824 78.4363 65.8513 78.5396C65.9201 78.488 66.0234 78.488 66.1267 78.5569C66.23 78.6258 66.3333 78.7291 66.4022 78.8669C66.385 78.3157 66.0234 77.6957 65.5586 77.4373Z" fill="#281407"/>
<path d="M65.507 78.0574V78.1952V79.3664C65.507 79.5042 65.4037 79.5559 65.2832 79.487C65.1626 79.4181 65.0594 79.2459 65.0594 79.1081L64.9388 79.0392C64.9388 79.2459 65.0938 79.5214 65.2832 79.6248C65.4725 79.7281 65.6275 79.642 65.6275 79.4353V78.2641V78.1263L65.507 78.0574Z" fill="#281407"/>
<path d="M64.233 79.3665V76.3007L66.8842 77.8336V80.8993L64.233 79.3665ZM64.4223 76.6451V79.2631L66.6949 80.5893L66.7121 77.9713L64.4223 76.6451Z" fill="#281407"/>
<path d="M80.9841 78.2295L77.0933 80.4686V78.6429L80.9841 76.4038V78.2295Z" fill="#131111"/>
<path d="M80.9158 78.1789L77.1799 80.3318V78.6783L80.9158 76.5254V78.1789Z" fill="white"/>
<path d="M79.1765 77.7128V77.7989L80.7775 76.886V76.7999L79.1765 77.7128Z" fill="#131111"/>
<path d="M77.2999 78.7979V78.884L78.901 77.954V77.8679L77.2999 78.7979Z" fill="#131111"/>
<path d="M80.0373 78.4189V78.5051L80.7776 78.0745V77.9883L80.0373 78.4189Z" fill="#131111"/>
<path d="M77.2999 79.9861V80.0722L79.7618 78.6599V78.5738L77.2999 79.9861Z" fill="#131111"/>
<path d="M78.3329 78.7977V78.8838L80.7776 77.4715V77.3854L78.3329 78.7977Z" fill="#131111"/>
<path d="M77.2999 79.4006V79.4867L78.0574 79.0389V78.97L77.2999 79.4006Z" fill="#131111"/>
<path d="M84.6684 72.408L82.2237 73.8204L67.7967 65.4325L70.2414 64.0201L84.6684 72.408Z" fill="#FFDA9F"/>
<path d="M84.5995 74.9916L84.4101 74.8882L84.2208 75.2155L84.0314 75.0949L83.842 75.4394L83.6354 75.3188L83.446 75.646L83.2567 75.5427L83.0673 75.8699L82.8779 75.7666L82.6885 76.0939L82.4992 75.9905L82.3098 76.3178L82.2237 76.2661V73.8203L84.6684 72.408V74.8538L84.5995 74.9916Z" fill="#F7CE92"/>
<path d="M60.9103 82.4666V69.5145L46.4144 77.8851V90.8372L60.9103 82.4666Z" fill="#A1663B"/>
<path d="M60.9103 82.4666V69.5145L75.3889 77.8851V90.8372L60.9103 82.4666Z" fill="#DEAE80"/>
<path d="M60.9103 86.2557V99.2078L75.3889 90.8372V77.8851L60.9103 86.2557Z" fill="#DEAE80"/>
<path d="M75.3889 77.8851L60.9103 86.2557C60.9103 86.2557 66.3678 83.655 75.3889 77.8851Z" fill="#7F492A"/>
<path d="M60.9103 86.2557V99.2078L46.4144 90.8372V77.8851L60.9103 86.2557Z" fill="#D8A57A"/>
<path d="M46.4144 77.8851L60.9103 86.2558L75.3889 77.8851L60.9447 69.5145L46.4144 77.8851Z" fill="#E3B786"/>
<path d="M68.0205 82.1738L53.5762 73.7859L54.1099 73.4587L68.5542 81.8638L68.0205 82.1738Z" fill="#7F492A"/>
<path d="M56.8301 89.6489L56.6235 89.9417L56.7268 90.0106V91.5951L56.9334 91.7157V90.1311L57.0367 90.1828L56.8301 89.6489Z" fill="#281407"/>
<path d="M55.074 91.3539V88.2881L57.7253 89.821V92.8868L55.074 91.3539ZM55.2806 88.6326V91.2505L57.5704 92.5768V89.9588L55.2806 88.6326Z" fill="#281407"/>
<path d="M55.7627 91.1818V91.4057L57.0539 92.1636V91.9397L55.7627 91.1818Z" fill="#281407"/>
<path d="M56.004 89.1667L55.7974 89.4767L55.9007 89.5284L55.8834 91.113L56.09 91.2335L56.1073 89.6489L56.2106 89.7006L56.004 89.1667Z" fill="#281407"/>
<path d="M53.6279 89.511C53.6107 89.4937 53.5935 89.4937 53.5762 89.4765C53.559 89.4593 53.5418 89.4593 53.5246 89.4421V89.976V90.0105L53.6451 90.0793V90.0449V89.511H53.6279Z" fill="#281407"/>
<path d="M52.9737 87.4269V88.4259C52.9737 88.7876 53.2147 89.2354 53.5246 89.4421C53.5418 89.4593 53.559 89.4766 53.5763 89.4766C53.5935 89.4938 53.6107 89.4938 53.6279 89.511C53.9378 89.6488 54.1788 89.4938 54.1788 89.1321V88.1331L52.9737 87.4269Z" fill="#281407"/>
<path d="M52.9565 89.6489V89.7867L54.1788 90.4928V90.355L53.6279 90.045V90.0795L53.5074 89.9933V89.9761L52.9565 89.6489Z" fill="#281407"/>
<path d="M52.2334 89.7178L52.2506 86.652L54.9019 88.1849V91.2507L52.2334 89.7178ZM52.44 86.9964V89.6144L54.7297 90.9234V88.3054L52.44 86.9964Z" fill="#281407"/>
<path d="M50.7356 86.1351C50.288 85.8767 49.9092 86.0834 49.9092 86.5829C49.9781 86.5312 50.0814 86.5312 50.1847 86.6001C50.288 86.669 50.3913 86.7724 50.4602 86.9102C50.5118 86.8757 50.5979 86.8585 50.684 86.8929V86.7551L50.8045 86.824V86.9618C50.8906 87.0307 50.9594 87.1168 51.0283 87.2202C51.0971 87.1685 51.2004 87.1685 51.3037 87.2374C51.407 87.3063 51.5103 87.4096 51.5792 87.5474C51.562 87.0307 51.1832 86.3934 50.7356 86.1351Z" fill="#281407"/>
<path d="M50.6668 86.7551V86.8929V88.0813C50.6668 88.2191 50.5635 88.2708 50.4429 88.2019C50.3224 88.133 50.2191 87.9608 50.2191 87.823L50.0986 87.7541C50.0986 87.978 50.2536 88.2364 50.4429 88.3397C50.6323 88.443 50.7701 88.3569 50.7701 88.1502V86.9618V86.824L50.6668 86.7551Z" fill="#281407"/>
<path d="M49.41 88.0815V85.0157L52.0612 86.5486V89.6144L49.41 88.0815ZM49.5993 85.3429V87.9609L51.8891 89.2699V86.6519L49.5993 85.3429Z" fill="#281407"/>
<path d="M66.1612 86.9275L62.2703 89.1666V87.3581L66.1612 85.119V86.9275Z" fill="#131111"/>
<path d="M66.0928 86.8942L62.3397 89.0644V87.411L66.0928 85.258V86.8942Z" fill="white"/>
<path d="M64.3535 86.4281V86.497L65.9545 85.5842V85.498L64.3535 86.4281Z" fill="#131111"/>
<path d="M62.4769 87.5132V87.5821L64.078 86.652V86.5831L62.4769 87.5132Z" fill="#131111"/>
<path d="M65.2143 87.117V87.2031L65.9546 86.7726V86.6865L65.2143 87.117Z" fill="#131111"/>
<path d="M62.4769 88.7017V88.7878L64.9388 87.3583V87.2894L62.4769 88.7017Z" fill="#131111"/>
<path d="M63.5099 87.4961V87.5822L65.9546 86.1871V86.101L63.5099 87.4961Z" fill="#131111"/>
<path d="M62.4769 88.0987V88.1848L63.2344 87.737V87.6681L62.4769 88.0987Z" fill="#131111"/>
<path d="M69.8454 81.1231L67.4007 82.5354L52.9565 74.1303L55.4012 72.718L69.8454 81.1231Z" fill="#FFDA9F"/>
<path d="M69.7765 83.6895L69.5871 83.5861L69.3978 83.9134L69.2084 83.8101L69.0018 84.1373L68.8124 84.034L68.623 84.3612L68.4337 84.2406L68.2443 84.5851L68.0549 84.4646L67.8655 84.7918L67.6589 84.6885L67.4696 85.0157L67.4007 84.9813V82.5355L69.8454 81.1232V83.5689L69.7765 83.6895Z" fill="#F7CE92"/>
<path d="M90.7284 82.4666L90.7457 69.5145L76.2325 77.8851V90.8372L90.7284 82.4666Z" fill="#A1663B"/>
<path d="M90.7284 82.4666L90.7456 69.5145L105.19 77.8851V90.8372L90.7284 82.4666Z" fill="#DEAE80"/>
<path d="M90.7284 86.2557V99.2078L105.19 90.8372V77.8851L90.7284 86.2557Z" fill="#DEAE80"/>
<path d="M105.19 77.8851L90.7112 86.2557C90.7285 86.2557 96.1859 83.655 105.19 77.8851Z" fill="#7F492A"/>
<path d="M90.7284 86.2557V99.2078L76.2325 90.8372V77.8851L90.7284 86.2557Z" fill="#D8A57A"/>
<path d="M76.2325 77.8851L90.7284 86.2558L105.19 77.8851L90.7457 69.5145L76.2325 77.8851Z" fill="#E3B786"/>
<path d="M97.8214 82.1738L83.3772 73.7859L83.9281 73.4587L98.3551 81.8638L97.8214 82.1738Z" fill="#7F492A"/>
<path d="M86.6482 89.6489L86.4417 89.9417L86.5449 90.0106L86.5277 91.5951L86.7343 91.7157L86.7515 90.1311L86.8376 90.1828L86.6482 89.6489Z" fill="#281407"/>
<path d="M84.8922 91.3539V88.2881L87.5607 89.821V92.8868L84.8922 91.3539ZM85.0816 88.6326V91.2505L87.3713 92.5768V89.9588L85.0816 88.6326Z" fill="#281407"/>
<path d="M85.5637 91.1818V91.4057L86.8721 92.1636V91.9397L85.5637 91.1818Z" fill="#281407"/>
<path d="M85.8049 89.1667L85.5983 89.4767L85.7016 89.5284V91.113L85.9082 91.2335V89.6489L86.0115 89.7006L85.8049 89.1667Z" fill="#281407"/>
<path d="M83.4289 89.511C83.4116 89.4937 83.3944 89.4937 83.3772 89.4765C83.36 89.4593 83.3428 89.4593 83.3256 89.4421V89.976V90.0105L83.4461 90.0793V90.0449V89.511H83.4289Z" fill="#281407"/>
<path d="M82.7747 87.4269V88.4259C82.7747 88.7876 83.0157 89.2354 83.3256 89.4421C83.3428 89.4593 83.36 89.4766 83.3772 89.4766C83.3944 89.4938 83.4116 89.4938 83.4289 89.511C83.7387 89.6488 83.9798 89.4938 83.9798 89.1321V88.1331L82.7747 87.4269Z" fill="#281407"/>
<path d="M82.7747 89.6489V89.7867L83.9798 90.4928L83.997 90.355L83.4289 90.045V90.0795L83.3256 89.9933V89.9761L82.7747 89.6489Z" fill="#281407"/>
<path d="M82.0516 89.7178V86.652L84.7028 88.1849V91.2507L82.0516 89.7178ZM82.2582 86.9964L82.241 89.6144L84.5135 90.9234V88.3054L82.2582 86.9964Z" fill="#281407"/>
<path d="M80.5366 86.1351C80.089 85.8767 79.7274 86.0834 79.7102 86.5829C79.7791 86.5312 79.8824 86.5312 79.9857 86.6001C80.089 86.669 80.1923 86.7724 80.2611 86.9102C80.3128 86.8757 80.3988 86.8585 80.4849 86.8929V86.7551L80.6054 86.824V86.9618C80.6915 87.0307 80.7776 87.1168 80.8292 87.2202C80.8981 87.1685 81.0014 87.1685 81.1047 87.2374C81.208 87.3063 81.3113 87.4096 81.3802 87.5474C81.3629 87.0307 81.0014 86.3934 80.5366 86.1351Z" fill="#281407"/>
<path d="M80.4849 86.7551V86.8929V88.0813C80.4849 88.2191 80.3816 88.2708 80.2611 88.2019C80.1406 88.133 80.0373 87.9608 80.0373 87.823L79.9168 87.7541C79.9168 87.978 80.0718 88.2364 80.2611 88.3397C80.4505 88.443 80.5882 88.3569 80.6055 88.1502V86.9618V86.824L80.4849 86.7551Z" fill="#281407"/>
<path d="M79.2109 88.0815V85.0157L81.8794 86.5486L81.8622 89.6144L79.2109 88.0815ZM79.4175 85.3429L79.4003 87.9609L81.69 89.2699V86.6519L79.4175 85.3429Z" fill="#281407"/>
<path d="M95.9621 86.9275L92.0713 89.1666V87.3581L95.9621 85.119V86.9275Z" fill="#131111"/>
<path d="M95.8938 86.8942L92.158 89.0644V87.411L95.8938 85.258V86.8942Z" fill="white"/>
<path d="M94.1716 86.4281V86.497L95.7555 85.5842V85.498L94.1716 86.4281Z" fill="#131111"/>
<path d="M92.2779 87.5132V87.5821L93.8962 86.652V86.5831L92.2779 87.5132Z" fill="#131111"/>
<path d="M95.0153 87.117V87.2031L95.7556 86.7726V86.6865L95.0153 87.117Z" fill="#131111"/>
<path d="M92.2951 88.7017V88.7878L94.7398 87.3583V87.2894L92.2951 88.7017Z" fill="#131111"/>
<path d="M93.3109 87.4961V87.5822L95.7555 86.1871V86.101L93.3109 87.4961Z" fill="#131111"/>
<path d="M92.2779 88.0987V88.1848L93.0526 87.737V87.6681L92.2779 88.0987Z" fill="#131111"/>
<path d="M99.6464 81.1231L97.2189 82.5354L82.7747 74.1303L85.2193 72.718L99.6464 81.1231Z" fill="#FFDA9F"/>
<path d="M99.5775 83.6895L99.3881 83.5861L99.1987 83.9134L99.0093 83.8101L98.82 84.1373L98.6306 84.034L98.4412 84.3612L98.2518 84.2406L98.0452 84.5851L97.8559 84.4646L97.6665 84.7918L97.4771 84.6885L97.2877 85.0157L97.2017 84.9813L97.2189 82.5355L99.6463 81.1232V83.5689L99.5775 83.6895Z" fill="#F7CE92"/>
<path d="M75.7505 91.0782V78.1261L61.2546 86.4967V99.4316L75.7505 91.0782Z" fill="#A1663B"/>
<path d="M75.7505 91.0782V78.1261L90.212 86.4967V99.4316L75.7505 91.0782Z" fill="#DEAE80"/>
<path d="M75.8193 94.8674V107.819L90.2119 99.4316V86.4967L75.8193 94.8674Z" fill="#DEAE80"/>
<path d="M90.2119 86.4967L75.8193 94.8674C75.8193 94.8674 81.208 92.2494 90.2119 86.4967Z" fill="#7F492A"/>
<path d="M75.8193 94.8674V107.819L61.2546 99.4316V86.4967L75.8193 94.8674Z" fill="#D8A57A"/>
<path d="M61.2546 86.514L75.8193 94.8674L90.2119 86.4967L75.7505 78.1261L61.2546 86.514Z" fill="#E3B786"/>
<path d="M82.8435 90.7854L68.3992 82.3803L68.9501 82.0703L83.3772 90.4754L82.8435 90.7854Z" fill="#7F492A"/>
<path d="M71.6531 98.2605L71.4637 98.5533L71.5498 98.6222V100.207L71.7564 100.327V98.7428L71.8597 98.7944L71.6531 98.2605Z" fill="#281407"/>
<path d="M69.9142 99.9656V96.9171L72.5655 98.45V101.516L69.9142 99.9656ZM70.1036 97.2443V99.8623L72.3761 101.171V98.5533L70.1036 97.2443Z" fill="#281407"/>
<path d="M70.5857 99.7935V100.017L71.8769 100.758V100.534L70.5857 99.7935Z" fill="#281407"/>
<path d="M70.827 97.7783L70.6204 98.0711L70.7237 98.14V99.7246L70.9302 99.8452V98.2606L71.0335 98.3123L70.827 97.7783Z" fill="#281407"/>
<path d="M68.4509 98.1226C68.4337 98.1054 68.4165 98.1054 68.3993 98.0882C68.382 98.0882 68.3648 98.0709 68.3304 98.0537V98.5877V98.6221L68.4509 98.691V98.6565V98.1226Z" fill="#281407"/>
<path d="M67.7967 96.0214V97.0204C67.7967 97.3821 68.0377 97.8299 68.3476 98.0366C68.3648 98.0538 68.382 98.071 68.4165 98.071C68.4337 98.0882 68.4509 98.0882 68.4681 98.1055C68.778 98.2433 69.019 98.0882 69.019 97.7266V96.7276L67.7967 96.0214Z" fill="#281407"/>
<path d="M67.7967 98.2605V98.3983L69.0018 99.1045V98.9667L68.4509 98.6394V98.6739L68.3304 98.605V98.5705L67.7967 98.2605Z" fill="#281407"/>
<path d="M67.0736 98.3293L67.0908 95.2808L69.7421 96.8137V99.8622L67.0736 98.3293ZM67.263 95.5908V98.2088L69.5355 99.5178L69.5527 96.8998L67.263 95.5908Z" fill="#281407"/>
<path d="M65.5586 94.7468C65.111 94.4885 64.7322 94.6952 64.7322 95.2119C64.8011 95.1602 64.9044 95.1602 65.0077 95.2291C65.111 95.298 65.2143 95.4013 65.2831 95.5391C65.3348 95.5047 65.4209 95.4875 65.507 95.5219V95.3841L65.6275 95.453V95.5908C65.7135 95.6597 65.7824 95.763 65.8513 95.8664C65.9201 95.8147 66.0234 95.8147 66.1267 95.8836C66.23 95.9525 66.3333 96.0558 66.4022 96.1936C66.385 95.6252 66.0234 95.0052 65.5586 94.7468Z" fill="#281407"/>
<path d="M65.507 95.3668V95.5046V96.6757C65.507 96.8135 65.4037 96.8652 65.2832 96.7963C65.1626 96.7274 65.0594 96.5552 65.0594 96.4174L64.9388 96.3485C64.9388 96.5552 65.0938 96.8308 65.2832 96.9341C65.4725 97.0374 65.6275 96.9513 65.6275 96.7446V95.5562V95.4184L65.507 95.3668Z" fill="#281407"/>
<path d="M64.233 96.6759V93.6273L66.8842 95.1602V98.226L64.233 96.6759ZM64.4223 93.9546V96.5725L66.6949 97.8815L66.7121 95.2636L64.4223 93.9546Z" fill="#281407"/>
<path d="M80.9841 95.5391L77.0933 97.7782V95.9697L80.9841 93.7307V95.5391Z" fill="#131111"/>
<path d="M80.9158 95.4884L77.1799 97.6414V95.9879L80.9158 93.835V95.4884Z" fill="white"/>
<path d="M79.1765 95.0225V95.1086L80.7775 94.1957V94.1096L79.1765 95.0225Z" fill="#131111"/>
<path d="M77.2999 96.1077V96.1938L78.901 95.2637V95.1776L77.2999 96.1077Z" fill="#131111"/>
<path d="M80.0373 95.7286V95.8147L80.7776 95.3841V95.298L80.0373 95.7286Z" fill="#131111"/>
<path d="M77.2999 97.3131V97.382L79.7618 95.9697V95.8835L77.2999 97.3131Z" fill="#131111"/>
<path d="M78.3329 96.1075V96.1936L80.7776 94.7812V94.6951L78.3329 96.1075Z" fill="#131111"/>
<path d="M77.2999 96.7103V96.7964L78.0574 96.3486V96.2625L77.2999 96.7103Z" fill="#131111"/>
<path d="M84.6684 89.7347L82.2237 91.1471L67.7967 82.742L70.2414 81.3297L84.6684 89.7347Z" fill="#FFDA9F"/>
<path d="M84.5995 92.3012L84.4101 92.1978L84.2208 92.5251L84.0314 92.4045L83.842 92.749L83.6354 92.6284L83.446 92.9557L83.2567 92.8523L83.0673 93.1796L82.8779 93.0762L82.6885 93.4035L82.4992 93.3001L82.3098 93.6274L82.2237 93.5929V91.1472L84.6684 89.7349V92.1806L84.5995 92.3012Z" fill="#F7CE92"/>
<g opacity="0.3">
<g opacity="0.3">
<g opacity="0.3">
<path opacity="0.3" d="M46.4316 77.8851L60.9103 86.2558L75.4406 77.8679L60.9963 69.48L46.4316 77.8851Z" fill="#CC8425"/>
</g>
</g>
<g opacity="0.3">
<g opacity="0.3">
<path opacity="0.3" d="M76.2842 77.8679L90.7284 86.2558L105.207 77.8851L90.8145 69.48L76.2842 77.8679Z" fill="#CC8425"/>
</g>
</g>
<g opacity="0.3">
<g opacity="0.3">
<path opacity="0.3" d="M61.2546 86.497L75.8193 94.8677L90.2291 86.497L75.8193 78.0747L61.2546 86.497Z" fill="#CC8425"/>
</g>
</g>
</g>
<path d="M75.7505 60.6443V47.6922L61.2546 56.0801V69.015L75.7505 60.6443Z" fill="#A1663B"/>
<path d="M75.7505 60.6443V47.6922L90.2292 56.0801V69.015L75.7505 60.6443Z" fill="#DEAE80"/>
<path d="M75.7505 64.4335V77.3856L90.2292 69.015V56.0801L75.7505 64.4335Z" fill="#DEAE80"/>
<path d="M90.2292 56.0801L75.7505 64.4335C75.7505 64.4335 81.208 61.8327 90.2292 56.0801Z" fill="#7F492A"/>
<path d="M75.7505 64.4335V77.3856L61.2546 69.015V56.0801L75.7505 64.4335Z" fill="#D8A57A"/>
<path d="M61.2546 56.0973L75.7505 64.4335L90.2291 56.0801L75.7849 47.6922L61.2546 56.0973Z" fill="#E3B786"/>
<path d="M82.8435 60.3515L68.3992 51.9636L68.9501 51.6536L83.3772 60.0414L82.8435 60.3515Z" fill="#7F492A"/>
<path d="M71.6703 67.8439L71.4637 68.1367L71.567 68.1883L71.5498 69.7729L71.7736 69.8935V68.3089L71.8769 68.3778L71.6703 67.8439Z" fill="#281407"/>
<path d="M69.9142 69.549L69.9315 66.4832L72.5827 68.0161V71.0818L69.9142 69.549ZM70.1036 66.8104V69.4284L72.3761 70.7546L72.3933 68.1366L70.1036 66.8104Z" fill="#281407"/>
<path d="M70.5857 69.3594V69.5833L71.8941 70.3412V70.1173L70.5857 69.3594Z" fill="#281407"/>
<path d="M70.8443 67.3615L70.6377 67.6542L70.7238 67.7059V69.2905L70.9304 69.4111V67.8265L71.0337 67.8954L70.8443 67.3615Z" fill="#281407"/>
<path d="M68.4681 67.6887C68.4509 67.6715 68.4337 67.6715 68.3992 67.6543C68.382 67.637 68.3648 67.637 68.3476 67.6198V68.1537V68.1882L68.4681 68.2571V68.2226V67.6887Z" fill="#281407"/>
<path d="M67.7967 65.6047V66.6036C67.7967 66.9653 68.0377 67.3959 68.3476 67.6198C68.3648 67.6371 68.382 67.6543 68.3992 67.6543C68.4165 67.6715 68.4337 67.6715 68.4681 67.6887C68.778 67.8265 69.019 67.6715 69.019 67.3098V66.3108L67.7967 65.6047Z" fill="#281407"/>
<path d="M67.7967 67.8439V67.9644L69.019 68.6706V68.5328L68.4681 68.2228V68.2572L68.3476 68.1883V68.1539L67.7967 67.8439Z" fill="#281407"/>
<path d="M67.0736 67.8954V64.8469L69.7249 66.3798V69.4283L67.0736 67.8954ZM67.263 65.1741V67.7921L69.5355 69.1011L69.5527 66.4831L67.263 65.1741Z" fill="#281407"/>
<path d="M65.5758 64.3128C65.1282 64.0545 64.7495 64.2612 64.7495 64.7606C64.8183 64.709 64.9216 64.709 65.0249 64.7779C65.1282 64.8468 65.2315 64.9501 65.3004 65.0879C65.352 65.0534 65.4381 65.0362 65.5242 65.0707V64.9329L65.6447 65.0018V65.1396C65.7308 65.2085 65.7996 65.2946 65.8513 65.3979C65.9201 65.3462 66.0234 65.3462 66.1267 65.4151C66.2472 65.484 66.3333 65.5874 66.4022 65.7252C66.385 65.2085 66.0234 64.5884 65.5758 64.3128Z" fill="#281407"/>
<path d="M65.507 64.9329V65.0706V66.2591C65.507 66.3969 65.4037 66.4485 65.2832 66.3796C65.1626 66.3107 65.0594 66.1385 65.0594 66.0007L64.9388 65.9318C64.9388 66.1557 65.0938 66.4141 65.2832 66.5174C65.4725 66.6208 65.6275 66.5347 65.6275 66.328V65.1395V65.0018L65.507 64.9329Z" fill="#281407"/>
<path d="M64.233 66.2592V63.1934L66.9015 64.7263L66.8842 67.7749L64.233 66.2592ZM64.4223 63.5379V66.1559L66.7121 67.4821V64.8641L64.4223 63.5379Z" fill="#281407"/>
<path d="M80.9841 65.1051L77.1105 67.3442V65.5185L80.9841 63.2794V65.1051Z" fill="#131111"/>
<path d="M80.9157 65.0719L77.1799 67.2248V65.5713L80.9157 63.4184V65.0719Z" fill="white"/>
<path d="M79.1937 64.6057V64.6918L80.7775 63.7618V63.6929L79.1937 64.6057Z" fill="#131111"/>
<path d="M77.2999 65.6909V65.777L78.9182 64.8469V64.7608L77.2999 65.6909Z" fill="#131111"/>
<path d="M80.0373 65.3119V65.398L80.7776 64.9674V64.8813L80.0373 65.3119Z" fill="#131111"/>
<path d="M77.3171 66.8791V66.9652L79.7618 65.5529V65.4667L77.3171 66.8791Z" fill="#131111"/>
<path d="M78.3329 65.6907V65.7768L80.7776 64.3645V64.2784L78.3329 65.6907Z" fill="#131111"/>
<path d="M77.2999 66.2936V66.3625L78.0746 65.9319L78.0574 65.8458L77.2999 66.2936Z" fill="#131111"/>
<path d="M84.6684 59.3009L82.2237 60.7132L67.7967 52.3254L70.2414 50.913L84.6684 59.3009Z" fill="#FFDA9F"/>
<path d="M84.5995 61.8844L84.4101 61.7639L84.2208 62.0911L84.0314 61.9878L83.842 62.315L83.6526 62.2117L83.4632 62.5389L83.2567 62.4356L83.0673 62.7628L82.8779 62.6595L82.6885 62.9867L82.4992 62.8662L82.3098 63.2107L82.2237 63.159V60.7132L84.6684 59.3009V61.7466L84.5995 61.8844Z" fill="#F7CE92"/>
<path d="M60.9275 69.3422V56.4073L46.4316 64.778V77.7129L60.9275 69.3422Z" fill="#A1663B"/>
<path d="M60.9275 69.3422V56.4073L75.389 64.778V77.7129L60.9275 69.3422Z" fill="#DEAE80"/>
<path d="M60.9275 73.1486V86.1007L75.389 77.7128V64.778L60.9275 73.1486Z" fill="#DEAE80"/>
<path d="M75.389 64.778L60.9103 73.1486C60.9275 73.1486 66.385 70.5306 75.389 64.778Z" fill="#7F492A"/>
<path d="M60.9275 73.1486V86.1007L46.4316 77.7128V64.778L60.9275 73.1486Z" fill="#D8A57A"/>
<path d="M46.4316 64.778L60.9275 73.1487L75.3889 64.778L60.9619 56.4073L46.4316 64.778Z" fill="#E3B786"/>
<path d="M68.0205 69.0667L53.5762 60.6616L54.1271 60.3516L68.5542 68.7567L68.0205 69.0667Z" fill="#7F492A"/>
<path d="M56.8473 76.5419L56.6407 76.8347L56.7268 76.9036V78.4709L56.9334 78.5915V77.0069L57.0367 77.0758L56.8473 76.5419Z" fill="#281407"/>
<path d="M55.0912 78.2469V75.1812L57.7425 76.7141V79.7798L55.0912 78.2469ZM55.2806 75.5256V78.1436L57.5704 79.4698V76.8518L55.2806 75.5256Z" fill="#281407"/>
<path d="M55.7627 78.0746V78.2985L57.0711 79.0391V78.8152L55.7627 78.0746Z" fill="#281407"/>
<path d="M56.004 76.0594L55.7974 76.3523L55.9007 76.4211V78.0057L56.1073 78.109V76.5417L56.2106 76.5934L56.004 76.0594Z" fill="#281407"/>
<path d="M53.6451 76.3867C53.6279 76.3867 53.6107 76.3695 53.5762 76.3523C53.559 76.335 53.5418 76.3178 53.5246 76.3178V76.8517V76.8862L53.6451 76.9551V76.9206V76.3867Z" fill="#281407"/>
<path d="M52.9737 74.3027V75.3016C52.9737 75.6633 53.2147 76.0939 53.5246 76.3178C53.5418 76.3351 53.559 76.3351 53.5763 76.3523C53.5935 76.3523 53.6279 76.3695 53.6451 76.3867C53.955 76.5245 54.196 76.3695 54.196 76.0078V75.0088L52.9737 74.3027Z" fill="#281407"/>
<path d="M52.9737 76.5419V76.6797L54.1788 77.3858V77.248L53.6279 76.9208V76.9552L53.5074 76.8863V76.8519L52.9737 76.5419Z" fill="#281407"/>
<path d="M52.2506 76.6107L52.2678 73.5449L54.9191 75.0778V78.1263L52.2506 76.6107ZM52.44 73.8721L52.4228 76.4901L54.7125 77.7991L54.7297 75.1811L52.44 73.8721Z" fill="#281407"/>
<path d="M50.7356 73.0283C50.288 72.7699 49.9092 72.9766 49.9092 73.4761C49.9781 73.4244 50.0814 73.4244 50.1847 73.4933C50.288 73.5622 50.3913 73.6655 50.4602 73.8033C50.5118 73.7689 50.5979 73.7517 50.684 73.7861V73.6483L50.8045 73.7172V73.855C50.8906 73.9239 50.9594 74.01 51.0111 74.1134C51.0799 74.0617 51.1832 74.0617 51.2865 74.1306C51.3898 74.1995 51.4931 74.3028 51.562 74.4406C51.562 73.9067 51.2004 73.2866 50.7356 73.0283Z" fill="#281407"/>
<path d="M50.684 73.6309V73.7687V74.9571C50.684 75.0949 50.5807 75.1465 50.4602 75.0776C50.3396 75.0087 50.2364 74.8365 50.2364 74.6987L50.1158 74.6298C50.1158 74.8365 50.2708 75.1121 50.4602 75.2154C50.6495 75.3188 50.8045 75.2327 50.8045 75.026V73.8375V73.6998L50.684 73.6309Z" fill="#281407"/>
<path d="M49.41 74.9572V71.8914L52.0785 73.4243L52.0612 76.4901L49.41 74.9572ZM49.5993 72.2359L49.5821 74.8539L51.8719 76.1629V73.5449L49.5993 72.2359Z" fill="#281407"/>
<path d="M66.1612 73.8203L62.2875 76.0593V74.2336L66.1612 71.9946V73.8203Z" fill="#131111"/>
<path d="M66.0927 73.7698L62.3569 75.94V74.2865L66.0927 72.1335V73.7698Z" fill="white"/>
<path d="M64.3535 73.3035L64.3707 73.3897L65.9546 72.4768V72.3907L64.3535 73.3035Z" fill="#131111"/>
<path d="M62.4769 74.3887V74.4748L64.0952 73.5447V73.4586L62.4769 74.3887Z" fill="#131111"/>
<path d="M65.2143 74.0097V74.0958L65.9546 73.6652V73.5791L65.2143 74.0097Z" fill="#131111"/>
<path d="M62.4769 75.5942V75.6631L64.9388 74.2507V74.1646L62.4769 75.5942Z" fill="#131111"/>
<path d="M63.5099 74.3885V74.4746L65.9546 73.0623V72.9762L63.5099 74.3885Z" fill="#131111"/>
<path d="M62.4769 74.9914V75.0775L63.2517 74.6297V74.5436L62.4769 74.9914Z" fill="#131111"/>
<path d="M69.8454 67.9988L67.4179 69.4111L52.9737 61.0232L55.4184 59.6109L69.8454 67.9988Z" fill="#FFDA9F"/>
<path d="M69.7765 70.5823L69.5871 70.479L69.3978 70.8062L69.2084 70.6857L69.019 71.0301L68.8124 70.9096L68.623 71.2368L68.4337 71.1335L68.2443 71.4607L68.0549 71.3574L67.8655 71.6846L67.6762 71.5813L67.4868 71.9085L67.4179 71.8569V69.4111L69.8454 67.9988V70.4618L69.7765 70.5823Z" fill="#F7CE92"/>
<path d="M90.7284 69.3422L90.7456 56.4073L76.2325 64.778V77.7129L90.7284 69.3422Z" fill="#A1663B"/>
<path d="M90.7284 69.3422L90.7456 56.4073L105.207 64.778V77.7129L90.7284 69.3422Z" fill="#DEAE80"/>
<path d="M90.7284 73.1486V86.1007L105.207 77.7128V64.778L90.7284 73.1486Z" fill="#DEAE80"/>
<path d="M105.207 64.778L90.7284 73.1486C90.7284 73.1486 96.1859 70.5306 105.207 64.778Z" fill="#7F492A"/>
<path d="M90.7284 73.1486V86.1007L76.2325 77.7128V64.778L90.7284 73.1486Z" fill="#D8A57A"/>
<path d="M76.2325 64.778L90.7284 73.1487L105.207 64.778L90.7457 56.4073L76.2325 64.778Z" fill="#E3B786"/>
<path d="M97.8214 69.0667L83.3772 60.6616L83.9281 60.3516L98.3724 68.7567L97.8214 69.0667Z" fill="#7F492A"/>
<path d="M86.6483 76.5419L86.4417 76.8347L86.545 76.9036V78.4709L86.7515 78.5915V77.0069L86.8548 77.0758L86.6483 76.5419Z" fill="#281407"/>
<path d="M84.8922 78.2469V75.1812L87.5435 76.7141V79.7798L84.8922 78.2469ZM85.0988 75.5256V78.1436L87.3713 79.4698L87.3885 76.8518L85.0988 75.5256Z" fill="#281407"/>
<path d="M85.5809 78.0746V78.2985L86.8721 79.0391V78.8152L85.5809 78.0746Z" fill="#281407"/>
<path d="M85.8221 76.0594L85.6155 76.3523L85.7016 76.4211V78.0057L85.9082 78.109V76.5417L86.0115 76.5934L85.8221 76.0594Z" fill="#281407"/>
<path d="M83.4461 76.3867C83.4289 76.3867 83.4116 76.3695 83.3772 76.3523C83.36 76.335 83.3428 76.3178 83.3256 76.3178V76.8517V76.8862L83.4461 76.9551V76.9206V76.3867Z" fill="#281407"/>
<path d="M82.7919 74.3027V75.3016C82.7919 75.6633 83.0329 76.0939 83.3428 76.3178C83.36 76.3351 83.3772 76.3351 83.3944 76.3523C83.4116 76.3523 83.4289 76.3695 83.4633 76.3867C83.7732 76.5245 84.0142 76.3695 84.0142 76.0078V75.0088L82.7919 74.3027Z" fill="#281407"/>
<path d="M82.7747 76.5419V76.6797L83.997 77.3858V77.248L83.4461 76.9208V76.9552L83.3256 76.8863V76.8519L82.7747 76.5419Z" fill="#281407"/>
<path d="M82.0516 76.6107L82.0688 73.5449L84.72 75.0778V78.1263L82.0516 76.6107ZM82.2582 73.8721L82.241 76.4901L84.5307 77.7991V75.1811L82.2582 73.8721Z" fill="#281407"/>
<path d="M80.5538 73.0283C80.1062 72.7699 79.7274 72.9766 79.7274 73.4761C79.7963 73.4244 79.8824 73.4244 80.0029 73.4933C80.1062 73.5622 80.2095 73.6655 80.2783 73.8033C80.33 73.7689 80.416 73.7517 80.5021 73.7861V73.6483L80.6226 73.7172V73.855C80.7087 73.9239 80.7776 74.01 80.8464 74.1134C80.9153 74.0617 81.0014 74.0617 81.1219 74.1306C81.2252 74.1995 81.3285 74.3028 81.3974 74.4406C81.3629 73.9067 81.0014 73.2866 80.5538 73.0283Z" fill="#281407"/>
<path d="M80.4849 73.6309V73.7687V74.9571C80.4849 75.0949 80.3816 75.1465 80.2611 75.0776C80.1406 75.0087 80.0545 74.8365 80.0545 74.6987L79.934 74.6298C79.934 74.8365 80.089 75.1121 80.2611 75.2154C80.4505 75.3188 80.6054 75.2327 80.6054 75.026V73.8375V73.6998L80.4849 73.6309Z" fill="#281407"/>
<path d="M79.2109 74.9572L79.2282 71.8914L81.8794 73.4243V76.4901L79.2109 74.9572ZM79.4175 72.2359V74.8539L81.69 76.1629V73.5449L79.4175 72.2359Z" fill="#281407"/>
<path d="M95.9621 73.8203L92.0713 76.0593V74.2336L95.9621 71.9946V73.8203Z" fill="#131111"/>
<path d="M95.8938 73.7698L92.158 75.94V74.2865L95.8938 72.1335V73.7698Z" fill="white"/>
<path d="M94.1716 73.3035V73.3897L95.7727 72.4768V72.3907L94.1716 73.3035Z" fill="#131111"/>
<path d="M92.2951 74.3887V74.4748L93.8962 73.5447V73.4586L92.2951 74.3887Z" fill="#131111"/>
<path d="M95.0153 74.0097V74.0958L95.7728 73.6652V73.5791L95.0153 74.0097Z" fill="#131111"/>
<path d="M92.2951 75.5942V75.6631L94.7398 74.2507V74.1646L92.2951 75.5942Z" fill="#131111"/>
<path d="M93.3281 74.3885V74.4746L95.7727 73.0623V72.9762L93.3281 74.3885Z" fill="#131111"/>
<path d="M92.2951 74.9914V75.0775L93.0526 74.6297V74.5436L92.2951 74.9914Z" fill="#131111"/>
<path d="M99.6636 67.9988L97.2189 69.4111L82.7747 61.0232L85.2193 59.6109L99.6636 67.9988Z" fill="#FFDA9F"/>
<path d="M99.5947 70.5823L99.4053 70.479L99.1987 70.8062L99.0093 70.6857L98.82 71.0301L98.6306 70.9096L98.4412 71.2368L98.2518 71.1335L98.0625 71.4607L97.8559 71.3574L97.6665 71.6846L97.4771 71.5813L97.2877 71.9085L97.2189 71.8569V69.4111L99.6636 67.9988V70.4618L99.5947 70.5823Z" fill="#F7CE92"/>
<path d="M75.7505 77.9541L75.7677 65.0192L61.2546 73.3898V86.3247L75.7505 77.9541Z" fill="#A1663B"/>
<path d="M75.7505 77.9541L75.7677 65.0192L90.2292 73.3898V86.3247L75.7505 77.9541Z" fill="#DEAE80"/>
<path d="M75.8193 81.7432V94.6953L90.2291 86.3247V73.3898L75.8193 81.7432Z" fill="#DEAE80"/>
<path d="M90.2291 73.3898L75.8365 81.7432C75.8193 81.7432 81.2079 79.1424 90.2291 73.3898Z" fill="#7F492A"/>
<path d="M75.8193 81.7432V94.6953L61.2546 86.3247V73.3898L75.8193 81.7432Z" fill="#D8A57A"/>
<path d="M61.2546 73.407L75.8193 81.7432L90.2291 73.3898L75.7677 65.0192L61.2546 73.407Z" fill="#E3B786"/>
<path d="M82.8435 77.6613L68.3992 69.2734L68.9501 68.9634L83.3772 77.3513L82.8435 77.6613Z" fill="#7F492A"/>
<path d="M71.6703 85.1536L71.4637 85.4464L71.567 85.498L71.5498 87.0826L71.7736 87.2032V85.6186L71.8769 85.6875L71.6703 85.1536Z" fill="#281407"/>
<path d="M69.9142 86.8586L69.9315 83.7928L72.5827 85.3257V88.3915L69.9142 86.8586ZM70.1036 84.12V86.738L72.3761 88.047L72.3933 85.429L70.1036 84.12Z" fill="#281407"/>
<path d="M70.5857 86.6865V86.8932L71.8941 87.651V87.4271L70.5857 86.6865Z" fill="#281407"/>
<path d="M70.8443 84.6714L70.6377 84.9642L70.7238 85.0331V86.6004L70.9304 86.721V85.1364L71.0337 85.2053L70.8443 84.6714Z" fill="#281407"/>
<path d="M68.4681 84.9985C68.4509 84.9813 68.4337 84.9813 68.3992 84.9641C68.382 84.9641 68.3648 84.9469 68.3476 84.9296V85.4636V85.498L68.4681 85.5669V85.5325V84.9985Z" fill="#281407"/>
<path d="M67.7967 82.9145V83.9135C67.7967 84.2752 68.0377 84.7057 68.3476 84.9296C68.3648 84.9469 68.382 84.9641 68.3992 84.9641C68.4165 84.9813 68.4337 84.9813 68.4681 84.9985C68.778 85.1363 69.019 84.9813 69.019 84.6196V83.6207L67.7967 82.9145Z" fill="#281407"/>
<path d="M67.7967 85.1364V85.2914L69.019 85.9804V85.8426L68.4681 85.5326V85.567L68.3476 85.4981V85.4637L67.7967 85.1364Z" fill="#281407"/>
<path d="M67.0736 85.2053V82.1567L69.7249 83.6896V86.7382L67.0736 85.2053ZM67.263 82.4839V85.1019L69.5355 86.4109L69.5527 83.7929L67.263 82.4839Z" fill="#281407"/>
<path d="M65.5758 81.6226C65.1282 81.3643 64.7495 81.571 64.7495 82.0705C64.8183 82.0188 64.9216 82.0188 65.0249 82.0877C65.1282 82.1566 65.2315 82.2599 65.3004 82.3977C65.352 82.3633 65.4381 82.346 65.5242 82.3805V82.2427L65.6447 82.3116V82.4494C65.7308 82.5183 65.7996 82.6044 65.8513 82.7249C65.9201 82.6733 66.0234 82.6733 66.1267 82.7422C66.2472 82.8111 66.3333 82.9316 66.4022 83.0522C66.385 82.5183 66.0234 81.8982 65.5758 81.6226Z" fill="#281407"/>
<path d="M65.507 82.2427V82.3805V83.5517C65.507 83.6894 65.4037 83.7411 65.2832 83.6722C65.1626 83.6033 65.0594 83.4311 65.0594 83.2933L64.9388 83.2244C64.9388 83.4311 65.0938 83.7067 65.2832 83.81C65.4725 83.9134 65.6275 83.8272 65.6275 83.6206V82.4321V82.2943L65.507 82.2427Z" fill="#281407"/>
<path d="M64.233 83.569V80.5204L66.9015 82.0533L66.8842 85.1019L64.233 83.569ZM64.4223 80.8476V83.4656L66.7121 84.7918V82.1738L64.4223 80.8476Z" fill="#281407"/>
<path d="M80.9841 82.4321L77.1105 84.6711V82.8454L80.9841 80.6064V82.4321Z" fill="#131111"/>
<path d="M80.9157 82.3814L77.1799 84.5516V82.8981L80.9157 80.728V82.3814Z" fill="white"/>
<path d="M79.1937 81.9153V82.0015L80.7775 81.0714V81.0025L79.1937 81.9153Z" fill="#131111"/>
<path d="M77.2999 83.0005V83.0866L78.9182 82.1566V82.0704L77.2999 83.0005Z" fill="#131111"/>
<path d="M80.0373 82.6215V82.7076L80.7776 82.277V82.1909L80.0373 82.6215Z" fill="#131111"/>
<path d="M77.3171 84.1887V84.2748L79.7618 82.8625V82.7764L77.3171 84.1887Z" fill="#131111"/>
<path d="M78.3329 83.0003V83.0865L80.7776 81.6741V81.588L78.3329 83.0003Z" fill="#131111"/>
<path d="M77.2999 83.6032V83.6721L78.0746 83.2415L78.0574 83.1554L77.2999 83.6032Z" fill="#131111"/>
<path d="M84.6684 76.6106L82.2237 78.0229L67.7967 69.635L70.2414 68.2227L84.6684 76.6106Z" fill="#FFDA9F"/>
<path d="M84.5995 79.1941L84.4101 79.0736L84.2208 79.418L84.0314 79.2975L83.842 79.6247L83.6526 79.5214L83.4632 79.8486L83.2567 79.7453L83.0673 80.0725L82.8779 79.9692L82.6885 80.2964L82.4992 80.1931L82.3098 80.5203L82.2237 80.4687V78.0229L84.6684 76.6106V79.0563L84.5995 79.1941Z" fill="#F7CE92"/>
<path d="M77.0934 73.6825L153.257 29.4008L153.102 85.3946L76.9384 129.676L77.0934 73.6825Z" fill="#FFCB5B"/>
<path d="M28.3903 45.5564L104.554 1.2746L153.258 29.4007L77.0944 73.6824L28.3903 45.5564Z" fill="#FFD683"/>
<path d="M28.3892 45.5563L77.0933 73.6824L76.9384 129.676L28.217 101.533L28.3892 45.5563ZM73.1164 123.08L73.2542 75.887L32.1939 52.1702L32.0562 99.3627L73.1164 123.08Z" fill="#FFAC06"/>
<path d="M76.8361 73.8374L80.7442 93.7134V150H78.024L74.2709 73.8374H76.8361Z" fill="#FFAC06"/>
<path d="M74.2699 73.8374L78.178 93.7134L78.023 150L74.115 129.676L74.2699 73.8374Z" fill="#FFCB5B"/>
<path d="M1.12004 43.1622L30.8177 46.7792L30.6455 102.773L29.6986 104.22L0.155945 44.609L1.12004 43.1622Z" fill="#FFAC06"/>
<path d="M0.154944 44.609L29.8526 48.2087L29.6976 104.22L0 100.603L0.154944 44.609Z" fill="#FFCB5B"/>
</svg>
